<svg width="80" height="80" viewBox="0 0 80 80" fill="none" xmlns="http://www.w3.org/2000/svg">
<g clip-path="url(#clip0_417_2957)">
<path d="M25.0156 80C16.2656 80 8.04688 76.5469 1.875 70.2656C-0.625 67.7188 -0.625 63.5625 1.875 61.0156C2.90625 59.9687 4.26562 59.2969 5.71875 59.1406C5.95312 59.1094 6.20312 59.0938 6.45312 59.0938C8.1875 59.0938 9.79688 59.7812 11.0312 61.0156C14.8594 64.9062 20.125 67.0469 25.4844 66.9062C26.0938 66.8906 26.8281 66.8281 27.1094 66.7969H27.125L27.2812 66.7812C27.75 66.7344 28.3125 66.6406 28.7188 66.5625L29.1719 68.8594C28.7031 68.9531 28.0938 69.0469 27.5781 69.1094C27.4531 69.125 27.2344 69.1562 26.8438 69.1875C26.5 69.2187 26 69.25 25.5312 69.2656C19.5312 69.4062 13.625 67.0156 9.34375 62.6562C8.5625 61.8594 7.53125 61.4375 6.4375 61.4375C6.28125 61.4375 6.14062 61.4531 5.98438 61.4687C5.04688 61.5781 4.20312 61.9844 3.54688 62.6719C1.9375 64.3125 1.9375 66.9844 3.54688 68.625C9.26562 74.4531 16.8906 77.6562 25.0156 77.6562C26.7656 77.6562 28.5156 77.5 30.2344 77.2031L30.6406 79.5156C28.7969 79.8281 26.8906 80 25.0156 80Z" fill="#212121"/>
<path d="M39.4375 63.8281L37.8906 62.0625C37.9844 61.9844 38.0625 61.9062 38.1562 61.8281L39.7187 63.5781C39.6094 63.6719 39.5312 63.75 39.4375 63.8281Z" fill="#212121"/>
<path d="M41.092 51.2972L38.9863 52.3263L39.1579 52.6772L41.2635 51.6481L41.092 51.2972Z" fill="#212121"/>
<path d="M25 69.25C19.1719 69.25 13.5312 66.9219 9.34375 62.6562C8.5625 61.8594 7.53125 61.4375 6.4375 61.4375C6.28125 61.4375 6.14062 61.4531 5.98437 61.4688L3.84375 61.7188L15.3281 38.2344L17.4375 39.2656L7.6875 59.2031C8.9375 59.4531 10.0938 60.0625 11.0312 61.0156C15.6562 65.7344 22.2812 67.7969 28.7188 66.5469L29.1562 68.8438C27.7812 69.1094 26.3906 69.25 25 69.25Z" fill="#212121"/>
<path d="M32.4062 38.875L25.0156 23.75L18.5 37.0625L16.4062 36.0313L24.2031 20.0781H25.8281L34.5156 37.8438L32.4062 38.875Z" fill="#212121"/>
<path d="M17.8438 60.9844C15.2656 60.9844 13.1562 58.875 13.1562 56.2969C13.1562 53.7188 15.2656 51.6094 17.8438 51.6094C20.4219 51.6094 22.5312 53.7188 22.5312 56.2969C22.5312 58.875 20.4375 60.9844 17.8438 60.9844ZM17.8438 53.9531C16.5469 53.9531 15.5 55 15.5 56.2969C15.5 57.5938 16.5469 58.6406 17.8438 58.6406C19.1406 58.6406 20.1875 57.5938 20.1875 56.2969C20.1875 55 19.1406 53.9531 17.8438 53.9531Z" fill="#212121"/>
<path d="M21.4062 43.4688H19.0625V45.8594H21.4062V43.4688Z" fill="#212121"/>
<path d="M26.1875 35.5781H23.8438V37.9688H26.1875V35.5781Z" fill="#212121"/>
<path d="M80 29.5H33.7656V21.5469H80V29.5ZM36.1094 27.1563H77.6562V23.8906H36.1094V27.1563Z" fill="#212121"/>
<path d="M74.8281 23.8906H38.9375V15.9219H65.5156V18.2656H41.2813V21.5469H72.4844V18.2656H67.8906V15.9219H74.8281V23.8906Z" fill="#212121"/>
<path d="M60.9062 18.2656H53.0937L52.0312 7.84375H41.1719V0H59.1094L60.9062 18.2656ZM55.2031 15.9219H58.3125L56.9844 2.34375H43.5156V5.5H54.1406L55.2031 15.9219Z" fill="#212121"/>
<path d="M41.1924 51.6932L38.8613 51.9363L38.897 52.2782L41.2281 52.0351L41.1924 51.6932Z" fill="#212121"/>
<path d="M71.9531 80H56.5781V77.6562H69.8438L74.875 29.5H38.8906L39.75 37.8594L37.4219 38.0938L36.2812 27.1562H77.4844L71.9531 80Z" fill="#212121"/>
<path d="M56.3281 80H33.125C28.1719 80 24.1406 75.9688 24.1406 71.0156C24.1406 68.8906 25.8594 67.1719 27.9844 67.1719H61.4688C63.5938 67.1719 65.3125 68.8906 65.3125 71.0156C65.3125 75.9688 61.2969 80 56.3281 80ZM28 69.5156C27.1719 69.5156 26.5 70.1875 26.5 71.0156C26.5 74.6719 29.4844 77.6563 33.1406 77.6563H56.3438C60 77.6563 62.9844 74.6719 62.9844 71.0156C62.9844 70.1875 62.3125 69.5156 61.4844 69.5156H28Z" fill="#212121"/>
<path d="M58.8594 69.5156H30.6094C28.5938 69.5156 26.9375 67.875 26.9375 65.8438V65.4375C26.9375 63.4219 28.5781 61.7656 30.6094 61.7656H38.9219V64.1094H30.6094C29.875 64.1094 29.2812 64.7031 29.2812 65.4375V65.8438C29.2812 66.5781 29.875 67.1719 30.6094 67.1719H58.8594C59.5938 67.1719 60.1875 66.5781 60.1875 65.8438V65.4375C60.1875 64.7031 59.5938 64.1094 58.8594 64.1094H48.1563V61.7656H58.8594C60.875 61.7656 62.5313 63.4062 62.5313 65.4375V65.8438C62.5313 67.875 60.875 69.5156 58.8594 69.5156Z" fill="#212121"/>
<path d="M38.9219 64.125H28.0156C26.9844 64.125 26.0156 63.7188 25.2812 62.9844C24.5469 62.25 24.1562 61.2813 24.1562 60.25C24.1562 58.1094 25.8906 56.375 28.0312 56.375H34.4062V58.7188H28.0312C27.1875 58.7188 26.5 59.4063 26.5 60.25C26.5 60.6563 26.6562 61.0469 26.9531 61.3281C27.25 61.625 27.625 61.7813 28.0312 61.7813H38.9375V64.125H38.9219Z" fill="#212121"/>
<path d="M41.1875 69.5156C39.2969 69.5156 37.75 67.9687 37.75 66.0781V63.9375C37.4063 64.0469 37.0313 64.1094 36.6563 64.1094C34.7656 64.1094 33.2188 62.5625 33.2188 60.6719V58.7187H30.6094C28.5938 58.7187 26.9375 57.0781 26.9375 55.0469V54.6406C26.9375 52.625 28.5781 50.9688 30.6094 50.9688H58.8594C59.8438 50.9688 60.7656 51.3437 61.4531 52.0469C62.1406 52.7344 62.5313 53.6562 62.5313 54.6406V55.0469C62.5313 57.0625 60.8906 58.7187 58.8594 58.7187H57.2344V60.6719C57.2344 62.5625 55.6875 64.1094 53.7969 64.1094C51.9062 64.1094 50.3594 62.5625 50.3594 60.6719V58.7187H44.625V66.0625C44.625 67.9687 43.0938 69.5156 41.1875 69.5156ZM40.0938 60.6875V66.0781C40.0938 66.6875 40.5781 67.1719 41.1875 67.1719C41.7969 67.1719 42.2813 66.6875 42.2813 66.0781V56.3906H52.7031V60.6875C52.7031 61.2969 53.1875 61.7812 53.7969 61.7812C54.4062 61.7812 54.8906 61.2969 54.8906 60.6875V56.3906H58.8594C59.5938 56.3906 60.1875 55.7969 60.1875 55.0625V54.6562C60.1875 54.2969 60.0469 53.9687 59.7969 53.7187C59.5469 53.4687 59.2188 53.3281 58.8594 53.3281H30.6094C29.875 53.3281 29.2812 53.9219 29.2812 54.6562V55.0625C29.2812 55.7969 29.875 56.3906 30.6094 56.3906H35.5625V60.6875C35.5625 61.2969 36.0469 61.7812 36.6563 61.7812C37.2656 61.7812 37.75 61.2969 37.75 60.6875H40.0938Z" fill="#212121"/>
<path d="M61.0156 53.3281H28.4375C26.0625 53.3281 24.1406 51.4062 24.1406 49.0312C24.1406 42.2812 29.625 36.7969 36.375 36.7969H53.0781C59.8281 36.7969 65.3125 42.2812 65.3125 49.0312C65.3125 51.4062 63.3906 53.3281 61.0156 53.3281ZM36.375 39.1406C30.9219 39.1406 26.4844 43.5781 26.4844 49.0312C26.4844 50.1094 27.3594 50.9844 28.4375 50.9844H61.0156C62.0938 50.9844 62.9688 50.1094 62.9688 49.0312C62.9688 43.5781 58.5313 39.1406 53.0781 39.1406H36.375Z" fill="#212121"/>
<path d="M39.4844 42.5625H37.1719V44.9062H39.4844V42.5625Z" fill="#212121"/>
<path d="M34.8906 42.5625H32.4688V44.9062H34.8906V42.5625Z" fill="#212121"/>
<path d="M40.0938 56.2969H37.75V60.6719H40.0938V56.2969Z" fill="#212121"/>
<path d="M61.4531 64.125H43.4531V61.7813H61.4531C62.2969 61.7813 62.9844 61.0938 62.9844 60.25C62.9844 59.8438 62.8281 59.4531 62.5312 59.1719C62.2344 58.875 61.8594 58.7188 61.4531 58.7188H56.0625V56.375H61.4531C62.4844 56.375 63.4531 56.7813 64.1875 57.5156C64.9219 58.25 65.3125 59.2188 65.3125 60.25C65.3125 62.3906 63.5781 64.125 61.4531 64.125Z" fill="#212121"/>
<path d="M51.5312 56.375H43.4531V58.7188H51.5312V56.375Z" fill="#212121"/>
</g>
<defs>
<clipPath id="clip0_417_2957">
<rect width="80" height="80" fill="white"/>
</clipPath>
</defs>
</svg>
