<svg width="219" height="418" viewBox="0 0 219 418" fill="none" xmlns="http://www.w3.org/2000/svg">
<path d="M238.038 157.176L237.538 157.476C232.938 149.476 229.038 141.076 225.738 132.476C234.538 126.276 246.838 125.376 256.238 130.476C265.638 135.576 271.738 146.476 270.738 157.176C270.438 160.276 269.638 163.276 268.638 166.176C267.638 168.976 266.338 171.676 264.738 174.276L260.938 173.576C262.638 170.976 263.538 168.076 264.338 165.076L260.138 164.176C257.038 164.176 254.438 161.976 251.638 160.676C248.338 159.176 244.338 159.076 240.938 160.376C247.338 155.276 251.238 147.276 251.438 139.176C245.138 143.576 240.338 149.976 238.038 157.176Z" fill="#D24B48"/>
<path d="M235.038 159.276C236.338 160.476 237.838 161.176 239.538 160.876C238.838 159.776 238.238 158.576 237.538 157.476L238.038 157.176C240.338 149.976 245.138 143.476 251.438 139.276C251.238 147.376 247.338 155.376 240.938 160.476C244.338 159.176 248.238 159.276 251.638 160.776C254.438 162.076 257.038 164.376 260.138 164.276C256.938 165.876 253.738 167.476 250.238 167.976C246.738 168.476 242.838 167.676 240.438 165.076C242.038 168.176 240.438 171.776 240.038 175.176C239.638 178.176 240.338 181.276 241.838 183.976C237.238 181.876 234.738 176.576 234.338 171.576C234.038 168.376 234.738 164.576 237.538 162.976C235.038 162.276 232.438 163.876 230.638 165.876C228.838 167.776 227.438 170.176 225.338 171.576C222.338 173.576 218.538 173.476 215.038 172.976C218.238 172.076 219.438 168.376 220.938 165.376C222.238 162.676 224.238 160.176 226.938 158.976C229.438 157.876 232.638 157.976 234.838 159.576L235.038 159.276Z" fill="white"/>
<path d="M257.338 183.076C250.938 188.476 242.238 191.176 233.938 190.376C226.138 189.676 218.638 185.876 213.338 179.976C212.938 179.576 212.638 179.176 212.338 178.776C210.438 176.476 208.938 173.876 208.038 170.976C206.238 165.176 207.438 158.876 209.538 153.276C212.338 145.976 217.038 138.976 224.138 135.576L224.338 135.476C226.438 141.976 228.938 148.376 231.938 154.476C232.738 156.176 233.838 157.876 235.238 159.176L235.038 159.376C232.838 157.676 229.738 157.576 227.138 158.776C224.438 159.976 222.438 162.476 221.138 165.176C219.638 168.176 218.438 171.976 215.238 172.776C218.738 173.276 222.538 173.376 225.538 171.376C227.738 169.976 229.138 167.576 230.838 165.676C232.638 163.776 235.138 162.176 237.738 162.776C234.938 164.376 234.238 168.176 234.538 171.376C234.938 176.376 237.438 181.676 242.038 183.776C240.538 181.176 239.938 177.976 240.238 174.976C240.638 171.576 242.238 167.976 240.638 164.876C243.038 167.476 246.938 168.276 250.438 167.776C253.938 167.276 257.138 165.676 260.338 164.076L264.538 164.976C263.838 167.976 262.838 170.976 261.138 173.476L264.938 174.176C262.738 177.576 260.238 180.576 257.338 183.076Z" fill="#D24B48"/>
<path d="M172.438 117.276C172.538 115.876 172.938 114.576 173.238 113.276C174.138 108.776 172.838 103.876 169.738 100.376C169.238 103.376 167.038 105.776 166.338 108.676C165.338 112.276 166.738 116.076 168.038 119.676C166.738 119.576 166.038 118.176 165.338 116.976C162.738 112.376 156.838 109.976 151.738 111.376C154.138 118.176 160.638 123.176 167.738 123.776C165.338 124.676 162.738 125.576 161.038 127.476C157.638 131.076 158.338 136.776 159.238 141.676C163.538 138.876 167.038 135.076 169.338 130.576L169.538 130.676C168.638 132.276 168.438 134.176 168.638 135.976C169.038 138.576 170.438 140.876 171.838 143.076C172.438 143.976 173.038 144.776 173.438 145.676C174.038 147.176 174.038 148.876 173.338 150.376C175.938 148.576 177.438 145.276 177.038 142.176C176.838 140.076 175.838 138.176 175.138 136.176C174.438 134.176 173.938 131.976 174.638 129.976C174.838 129.476 175.138 129.076 175.638 129.076L176.038 128.476C177.138 129.176 178.238 129.876 179.338 130.376C185.238 133.276 191.338 135.576 197.638 137.376C195.238 141.776 192.538 145.976 189.438 149.876L188.938 149.476C183.938 152.476 178.338 154.676 172.538 155.376C166.738 156.076 160.638 155.076 155.738 151.976C151.038 148.976 147.638 144.376 145.538 139.276C142.738 132.476 142.138 124.676 143.838 117.576C145.038 112.476 147.438 107.576 151.038 103.676C157.138 97.0763 166.238 93.9763 175.238 93.1763C177.838 92.9763 180.438 92.8763 183.038 93.2763C191.838 94.4763 199.838 100.376 203.538 108.476C207.238 116.576 206.438 126.476 201.538 133.876V134.176C200.638 134.176 199.738 133.976 198.838 133.776C190.838 131.976 183.138 128.976 176.138 124.876L176.338 124.576C179.238 122.476 181.838 119.776 183.138 116.376C184.438 112.976 184.238 108.976 182.038 106.076C181.738 108.376 180.638 110.576 179.038 112.276C177.838 113.576 176.238 114.576 175.538 116.176C174.938 117.576 175.038 119.376 174.038 120.576C172.838 120.076 172.338 118.676 172.438 117.276Z" fill="#D24B48"/>
<path d="M166.838 229.476C162.038 224.776 159.338 218.276 158.838 211.576C158.338 204.976 159.938 198.176 162.838 192.176C166.938 183.876 173.938 176.676 182.838 174.276H183.138C183.638 178.376 184.038 182.476 185.338 186.376C186.438 189.776 188.438 192.976 191.138 195.176L188.338 195.376C185.238 193.976 181.538 193.976 178.738 195.776C174.738 198.276 173.338 203.376 172.338 207.976C174.038 206.276 177.138 207.176 179.138 205.676C180.138 204.976 180.638 203.676 181.338 202.676C183.338 199.676 187.438 198.176 190.938 199.076C188.538 201.376 189.138 205.376 190.638 208.276C192.138 211.276 194.338 213.876 194.838 217.176C198.038 214.676 198.838 209.576 196.538 206.176C195.938 205.376 195.238 204.576 194.938 203.676C194.638 202.776 194.838 201.476 195.738 201.076C196.838 200.676 197.938 201.576 198.938 202.176C200.938 203.276 203.538 202.676 205.438 201.276C207.338 199.876 208.538 197.976 209.838 195.976C210.238 195.376 210.638 194.776 210.938 194.176C208.838 195.576 206.138 194.876 203.738 194.376C201.738 193.976 199.238 193.876 197.738 195.076L195.838 192.976C197.538 192.776 198.838 191.076 199.238 189.376C199.738 187.676 199.538 185.876 199.938 184.176C200.438 181.676 201.938 179.476 203.938 178.076C202.638 178.576 201.238 178.976 199.938 179.576C195.738 181.576 193.038 186.376 193.438 190.976L191.238 191.976C190.538 190.776 189.838 189.576 189.238 188.376C187.738 185.176 186.838 181.676 186.038 178.176C185.638 176.276 185.238 174.376 185.038 172.376L187.338 172.176C192.038 170.076 197.638 171.276 202.338 173.576C205.938 175.376 209.138 177.876 211.838 180.776C215.338 184.576 218.038 189.076 219.538 194.076C222.238 202.876 221.338 212.676 217.138 220.876C213.238 228.576 206.138 234.976 197.738 236.876C195.238 237.476 192.538 237.676 189.938 237.676C181.638 237.876 172.838 235.376 166.838 229.476Z" fill="#D24B48"/>
<path d="M190.938 199.176C187.438 198.276 183.438 199.776 181.338 202.776C180.638 203.876 180.138 205.076 179.138 205.776C177.138 207.176 174.038 206.276 172.338 208.076C173.338 203.476 174.738 198.376 178.738 195.876C181.538 194.076 185.338 194.076 188.338 195.476L191.138 195.276C192.338 196.276 193.738 196.976 195.338 197.476C193.738 195.876 192.338 194.076 191.038 192.176L193.238 191.176C192.838 186.576 195.538 181.776 199.738 179.776C201.038 179.176 202.438 178.776 203.738 178.276C201.638 179.676 200.238 181.976 199.738 184.376C199.338 186.076 199.538 187.876 199.038 189.576C198.638 191.276 197.338 192.976 195.638 193.176L197.538 195.276C199.138 194.076 201.538 194.176 203.538 194.576C205.938 195.076 208.738 195.676 210.738 194.376C210.438 194.976 210.038 195.576 209.638 196.176C208.438 198.076 207.138 200.076 205.238 201.476C203.438 202.876 200.838 203.476 198.738 202.376C197.738 201.876 196.638 200.876 195.538 201.276C194.638 201.676 194.438 202.876 194.738 203.876C195.038 204.776 195.838 205.576 196.338 206.376C198.638 209.776 197.838 214.876 194.638 217.376C194.138 214.176 191.838 211.476 190.438 208.476C189.138 205.476 188.538 201.476 190.938 199.176Z" fill="white"/>
<path d="M172.238 122.776C173.538 123.576 174.838 124.376 176.138 125.176C183.138 129.276 190.838 132.276 198.838 134.076C199.738 134.276 200.638 134.476 201.538 134.476C202.038 134.476 202.538 134.476 203.138 134.376C205.338 133.876 206.938 132.176 208.338 130.476C214.938 122.976 221.438 115.376 227.838 107.776L228.838 108.576C230.238 108.476 231.038 110.276 230.638 111.576C230.138 112.876 228.938 113.776 227.838 114.576C225.438 116.376 223.038 118.676 222.738 121.676C222.538 123.376 223.138 124.976 223.638 126.576C224.338 128.576 225.038 130.576 225.838 132.576C229.138 141.176 233.038 149.576 237.638 157.576C238.238 158.676 238.938 159.876 239.638 160.976C237.938 161.276 236.438 160.576 235.138 159.376C233.738 158.076 232.638 156.376 231.838 154.676C228.838 148.476 226.338 142.176 224.238 135.676C224.038 135.176 223.938 134.576 223.738 134.076C223.138 132.076 222.338 129.776 220.538 128.776C217.838 127.376 214.638 129.476 212.338 131.576C205.138 138.076 198.438 145.076 192.338 152.576C189.538 155.976 186.838 159.576 185.638 163.776C184.838 166.676 184.738 169.676 185.138 172.676C185.338 174.576 185.738 176.576 186.138 178.476C186.938 181.976 187.838 185.376 189.338 188.676C189.938 189.876 190.538 191.076 191.338 192.276C192.538 194.176 193.938 195.976 195.638 197.576C194.138 197.076 192.738 196.376 191.438 195.376C188.738 193.176 186.738 189.976 185.638 186.576C184.338 182.676 183.938 178.576 183.438 174.476C183.338 173.476 183.138 172.376 182.938 171.376C182.638 169.476 181.938 167.276 180.138 166.576C178.538 165.976 176.738 166.976 175.238 167.876C174.038 168.576 172.938 169.376 171.738 170.176L170.338 168.076C177.638 163.176 184.138 157.176 189.638 150.276C192.738 146.376 195.538 142.176 197.838 137.776C191.538 135.976 185.438 133.676 179.538 130.776C178.438 130.276 177.238 129.576 176.238 128.876C173.938 127.276 172.238 125.376 172.238 122.776Z" fill="white"/>
<path d="M172.238 122.776C172.338 125.276 174.038 127.276 176.138 128.776L175.738 129.376C175.238 129.376 174.938 129.876 174.738 130.276C174.038 132.276 174.538 134.476 175.238 136.476C175.938 138.476 176.938 140.376 177.138 142.476C177.538 145.576 176.038 148.876 173.438 150.676C174.038 149.176 174.138 147.476 173.538 145.976C173.138 145.076 172.538 144.176 171.938 143.376C170.438 141.176 169.138 138.876 168.738 136.276C168.438 134.476 168.738 132.576 169.638 130.976L169.438 130.876C167.038 135.376 163.538 139.276 159.338 141.976C158.438 137.076 157.838 131.476 161.138 127.776C162.938 125.876 165.438 124.876 167.838 124.076C160.738 123.476 154.138 118.376 151.838 111.676C156.938 110.176 162.838 112.676 165.438 117.276C166.038 118.376 166.838 119.876 168.138 119.976C166.838 116.476 165.438 112.676 166.438 108.976C167.238 106.076 169.438 103.576 169.838 100.676C172.938 104.076 174.238 109.076 173.338 113.576C173.038 114.876 172.638 116.176 172.538 117.576C172.438 118.976 172.938 120.376 174.038 121.176C175.038 119.976 174.938 118.176 175.538 116.776C176.238 115.176 177.838 114.076 179.038 112.876C180.638 111.176 181.738 108.976 182.038 106.676C184.238 109.576 184.438 113.576 183.138 116.976C181.838 120.376 179.238 123.076 176.338 125.176L176.138 125.476C174.738 124.476 173.438 123.676 172.238 122.776Z" fill="white"/>
<path d="M147.438 247.176C142.938 245.976 137.738 244.976 133.738 247.476L133.038 247.176C133.938 244.676 134.038 241.676 134.138 238.976C134.238 233.476 134.338 227.876 134.438 222.376H136.138C143.138 225.876 148.738 232.176 151.738 239.376C154.738 246.576 155.238 254.776 153.538 262.476C151.838 270.176 147.538 277.576 140.638 281.376C137.838 282.876 134.738 283.676 131.638 284.276C124.738 285.376 117.438 284.976 110.938 282.176C102.938 278.776 96.5378 271.876 93.5378 263.676C90.5378 255.476 90.7378 246.276 94.0378 238.176C96.7378 231.276 101.638 225.276 108.038 221.676C114.438 218.076 122.438 216.976 129.338 219.376L130.638 219.476C130.338 224.576 130.138 229.676 129.938 234.776H129.338C128.138 230.076 123.038 226.676 118.238 227.276C121.338 230.376 124.638 233.776 125.138 238.076C125.338 240.176 125.038 242.376 126.238 244.076C119.638 242.576 112.338 246.376 109.638 252.476C114.738 249.676 121.838 252.176 126.338 248.576C123.838 251.576 123.938 256.076 125.838 259.476C127.738 262.876 131.038 265.176 134.538 266.976C132.638 262.976 132.438 258.276 133.938 254.176C139.238 253.676 144.138 251.076 147.438 247.176Z" fill="#D24B48"/>
<path d="M126.438 244.176C125.238 242.476 125.538 240.176 125.338 238.176C124.838 233.876 121.538 230.476 118.438 227.376C123.238 226.776 128.238 230.076 129.538 234.876H130.138C129.938 240.576 129.838 246.276 129.838 251.976C131.538 250.776 132.538 249.176 133.238 247.176L133.938 247.476C137.838 244.976 143.038 245.976 147.638 247.176C144.238 251.076 139.438 253.676 134.238 254.276C132.738 258.376 132.938 263.076 134.838 267.076C131.338 265.376 128.038 262.976 126.138 259.576C124.238 256.176 124.138 251.576 126.638 248.676C122.038 252.276 114.938 249.676 109.938 252.576C112.438 246.376 119.838 242.676 126.438 244.176Z" fill="white"/>
<path d="M99.5379 200.176C91.7379 197.676 85.9379 190.876 82.8379 183.276C78.0379 171.576 79.5378 156.976 88.0378 147.576C90.0378 145.376 92.4379 143.476 94.9379 141.776C99.2379 138.876 104.038 136.576 109.138 135.576C119.138 133.776 129.838 137.776 136.638 145.376C143.338 152.976 146.138 163.776 144.338 173.776L143.438 174.076C142.138 173.176 140.838 172.076 139.538 171.076C133.938 166.776 127.238 163.376 120.338 163.276L120.438 160.376C122.138 157.276 120.938 153.476 119.538 150.176C118.138 146.976 116.338 143.576 116.938 140.076C114.938 140.876 113.538 142.776 112.938 144.776C112.338 146.876 112.338 148.976 112.438 151.176C112.538 154.576 112.838 158.176 114.438 161.176C111.338 160.076 109.838 156.676 107.538 154.376C104.338 151.276 99.3379 150.376 95.2379 151.976C97.7379 153.776 100.338 155.676 101.838 158.376C102.838 160.176 103.438 162.176 104.738 163.676C107.038 166.276 111.038 166.476 114.538 166.076C110.138 167.476 106.338 170.476 104.138 174.476C101.838 178.476 101.238 183.276 102.338 187.776C102.838 186.576 104.138 185.876 105.338 185.276C110.438 182.376 114.738 177.876 117.338 172.576C119.438 173.876 119.638 176.776 120.538 179.176C122.438 184.476 129.038 187.476 134.238 185.376C131.538 184.076 129.438 181.576 128.638 178.676C128.138 176.776 128.138 174.776 127.738 172.876C127.338 170.976 126.238 168.976 124.338 168.376V166.976C124.538 166.976 124.838 166.976 125.038 166.976C128.038 167.176 130.738 168.876 133.238 170.676C136.238 172.776 139.038 174.876 141.838 177.176L140.838 178.476C139.038 185.476 134.438 191.576 128.438 195.576C122.438 199.576 115.238 201.476 108.038 201.376C105.038 201.376 102.238 200.976 99.5379 200.176Z" fill="#D24B48"/>
<path d="M124.238 168.476C126.138 169.076 127.238 171.076 127.638 172.976C128.138 174.876 128.038 176.876 128.538 178.776C129.338 181.676 131.438 184.176 134.138 185.476C128.938 187.576 122.238 184.576 120.438 179.276C119.638 176.876 119.438 173.976 117.238 172.676C114.638 177.976 110.338 182.476 105.238 185.376C104.138 186.076 102.838 186.676 102.238 187.876C101.138 183.476 101.838 178.576 104.038 174.576C106.338 170.576 110.138 167.476 114.438 166.176C110.938 166.576 107.038 166.376 104.638 163.776C103.238 162.276 102.738 160.176 101.738 158.476C100.138 155.776 97.6378 153.876 95.1378 152.076C99.2378 150.476 104.238 151.376 107.438 154.476C109.738 156.776 111.338 160.076 114.338 161.276C112.638 158.276 112.438 154.776 112.338 151.276C112.238 149.176 112.238 146.976 112.838 144.876C113.438 142.776 114.838 140.876 116.838 140.176C116.238 143.676 118.038 147.076 119.438 150.276C120.838 153.476 122.038 157.376 120.338 160.476L120.238 163.376C119.438 163.376 118.638 163.376 117.938 163.476C117.438 164.876 118.738 166.476 120.238 166.876C121.538 167.176 122.838 167.076 124.138 167.076L124.238 168.476Z" fill="white"/>
<path d="M109.838 212.876C122.838 206.676 133.438 196.376 143.138 185.776C144.238 184.576 145.438 183.176 145.238 181.576C145.038 180.176 143.938 179.076 142.838 178.176C142.538 177.876 142.138 177.576 141.838 177.376C139.038 175.076 136.138 172.876 133.238 170.876C130.738 169.076 128.038 167.376 125.038 167.176C124.838 167.176 124.638 167.176 124.338 167.176C123.038 167.176 121.738 167.376 120.438 166.976C118.938 166.576 117.638 165.076 118.138 163.576C118.938 163.476 119.738 163.476 120.438 163.476C127.338 163.576 134.138 166.976 139.638 171.276C140.938 172.276 142.238 173.276 143.538 174.276C145.938 175.976 148.538 177.276 151.338 177.076C152.938 176.976 154.538 176.376 156.038 175.776C161.038 173.676 165.738 171.076 170.238 168.076L171.638 170.176C162.038 176.376 152.538 182.676 144.238 190.476C140.938 193.576 137.738 197.076 136.138 201.376C134.838 204.876 134.738 208.676 134.738 212.476C134.638 215.776 134.638 219.076 134.538 222.376C134.438 227.876 134.338 233.476 134.238 238.976C134.238 241.676 134.038 244.676 133.138 247.176C132.438 249.076 131.438 250.776 129.738 251.976C129.738 246.276 129.838 240.576 130.038 234.876C130.238 229.776 130.438 224.676 130.738 219.576C131.138 213.476 131.438 207.376 131.838 201.276C122.938 211.376 110.338 218.276 97.0379 220.376C93.1379 220.976 89.2379 221.176 85.3379 220.976C83.7379 220.876 82.0379 220.776 80.4379 220.476L80.7379 217.876C82.7379 218.176 84.6379 218.276 86.6379 218.276C94.6379 218.276 102.638 216.276 109.838 212.876Z" fill="white"/>
<path d="M85.3379 221.776C85.8379 228.676 83.9379 235.776 80.1379 241.576C76.4379 247.376 70.8379 252.076 64.6379 255.076C57.1379 258.576 48.4379 259.676 40.4379 257.476C32.4379 255.176 25.4379 249.276 22.5379 241.576C21.4379 238.776 20.9379 235.876 20.5379 232.876C19.1379 221.676 20.7379 209.376 28.1379 200.876L28.5379 200.176C30.8379 201.476 32.9379 203.176 34.7379 205.176C36.2379 206.776 37.5379 208.676 39.4379 209.776C42.0379 211.276 45.2379 211.176 48.1379 210.876C43.8379 211.776 40.3379 214.876 38.0379 218.576C35.7379 222.276 34.6379 226.576 33.7379 230.876C35.9379 229.376 38.6379 228.976 41.2379 228.176C43.7379 227.476 46.4379 226.376 47.8379 224.076C48.7379 222.476 48.9379 220.576 49.3379 218.676C49.7379 216.876 50.7379 214.976 52.4379 214.276C51.0379 222.276 59.1379 229.776 57.6379 237.876C61.6379 236.676 63.8379 232.176 63.6379 227.976C63.4379 223.876 61.1379 220.076 58.6379 216.776L60.0379 213.476C66.4379 216.976 73.4379 219.276 80.6379 220.276C82.2379 220.476 83.9379 220.676 85.5378 220.776L85.3379 221.776Z" fill="#D24B48"/>
<path d="M62.0379 210.476C64.1379 211.476 66.2379 212.776 68.2379 213.776C72.1379 215.876 76.4379 217.176 80.8379 217.776L80.5379 220.376C73.3379 219.376 66.3379 217.176 59.9379 213.576L58.5379 216.876C61.0379 220.176 63.3379 223.876 63.5379 228.076C63.8379 232.176 61.5379 236.776 57.5379 237.976C59.0379 229.976 50.9379 222.476 52.3379 214.376C50.6379 215.076 49.6379 216.976 49.2379 218.776C48.8379 220.576 48.6379 222.476 47.7379 224.176C46.4379 226.476 43.7379 227.576 41.1379 228.276C38.5379 228.976 35.8379 229.476 33.6379 230.976C34.4379 226.676 35.6379 222.376 37.9379 218.676C40.2379 214.976 43.8379 211.876 48.0379 210.976C45.0379 211.276 41.8379 211.376 39.3379 209.876C37.4379 208.776 36.1379 206.876 34.6379 205.276C32.8379 203.276 30.7379 201.576 28.4379 200.276C27.9379 199.976 27.4379 199.776 26.9379 199.476C28.1379 199.576 29.3379 199.476 30.5379 199.376C31.4379 199.276 32.3379 199.176 33.3379 199.176C39.3379 198.876 45.3379 201.176 49.7379 205.276C48.0379 202.876 47.8379 199.676 48.2379 196.776C48.6379 193.876 49.5379 190.976 49.7379 188.076V187.976C50.0379 185.076 49.6379 182.176 49.3379 179.276C51.6379 182.076 53.9379 184.876 56.2379 187.676C56.6379 188.176 56.9379 188.576 57.3379 189.076C57.5379 189.276 57.6379 189.576 57.7379 189.776C58.8379 191.876 58.7379 194.376 58.2379 196.676C57.7379 199.076 56.8379 201.476 55.7379 203.576C57.9379 200.876 61.1379 199.276 64.5379 198.376C67.9379 197.576 71.4379 197.476 74.8379 197.376C75.1379 200.576 71.8379 202.676 68.9379 204.076C66.0379 205.376 62.7379 207.076 62.3379 210.176L62.0379 210.476Z" fill="white"/>
<path d="M58.3379 196.376C58.8379 194.076 58.9379 191.576 57.8379 189.476C57.7379 189.276 57.5379 188.976 57.4379 188.776L57.6379 188.676C61.3379 188.776 64.9379 189.676 68.4379 190.876C71.0379 191.776 73.7379 192.676 75.9379 194.276C79.4379 196.676 81.9379 200.376 83.5379 204.276C85.1379 208.176 86.0379 212.376 86.7379 216.576V218.276C84.7379 218.276 82.7379 218.176 80.8379 217.876C76.4379 217.276 72.2379 215.976 68.2379 213.876C66.2379 212.776 64.1379 211.576 62.0379 210.576L62.3379 209.976C62.7379 206.876 66.1379 205.176 68.9379 203.876C71.8379 202.576 75.0379 200.376 74.8379 197.176C71.3379 197.276 67.8379 197.376 64.5379 198.176C61.1379 198.976 57.9379 200.676 55.7379 203.376C56.9379 201.176 57.7379 198.776 58.3379 196.376Z" fill="#D24B48"/>
<path d="M48.9379 187.676H49.8379V187.776C49.5379 190.776 48.6379 193.576 48.3379 196.476C47.9379 199.376 48.1379 202.576 49.8379 204.976C45.4379 200.876 39.4379 198.676 33.4379 198.876C32.5379 198.876 31.6379 198.976 30.6379 199.076V198.476C31.3379 196.976 32.4379 195.776 33.5379 194.676C37.7379 190.976 43.1379 188.476 48.9379 187.676Z" fill="#D24B48"/>
<path d="M227.338 106.976C223.938 110.376 220.838 113.976 217.738 117.676C214.638 121.276 211.538 124.776 208.438 128.376C207.138 129.876 205.838 131.476 204.138 132.576C202.238 133.776 199.938 133.276 197.838 132.876C193.638 132.076 189.538 130.676 185.538 128.976C181.038 127.076 176.638 124.876 172.538 122.176C172.038 121.876 171.338 122.276 171.338 122.876C171.638 127.776 176.538 130.376 180.438 132.276C185.838 134.876 191.538 137.276 197.338 138.776C197.138 138.276 196.938 137.776 196.738 137.276C191.238 148.276 182.438 157.776 172.538 165.076C167.538 168.776 162.138 171.876 156.538 174.376C154.938 175.076 153.238 175.876 151.538 175.976C149.938 176.176 148.338 175.776 146.938 175.076C144.038 173.676 141.638 171.476 139.038 169.576C132.938 165.276 125.738 161.976 118.038 162.576C117.638 162.576 117.238 162.876 117.138 163.276C116.638 165.176 117.838 166.876 119.538 167.576C121.738 168.476 124.238 167.676 126.538 168.276C128.838 168.876 130.838 170.176 132.738 171.576C134.838 173.076 136.938 174.576 139.038 176.176C140.038 176.976 140.938 177.676 141.938 178.476C142.738 179.176 143.838 179.876 144.238 180.976C145.038 182.876 142.138 185.076 141.038 186.276C137.838 189.676 134.538 193.076 131.138 196.276C117.838 208.576 100.938 218.776 82.1379 216.776C77.0379 216.276 72.2379 214.676 67.8379 212.176C63.5379 209.776 58.6379 206.776 53.5379 208.576C52.9379 208.776 52.4379 209.576 52.9379 210.176C53.6379 211.076 54.2379 211.976 54.9379 212.776C55.7379 213.776 57.4379 212.776 56.7379 211.776C56.1379 210.876 55.4379 209.976 54.8379 209.076C54.6379 209.576 54.4379 210.076 54.2379 210.676C58.9379 209.076 63.6379 212.576 67.6379 214.776C71.5379 216.876 75.8379 218.376 80.3379 219.076C89.5379 220.476 98.9379 219.076 107.438 215.576C116.138 212.076 123.938 206.476 130.938 200.276C134.538 197.076 137.838 193.776 141.138 190.276C143.638 187.576 148.438 183.676 145.838 179.576C144.538 177.476 142.038 175.976 140.138 174.476C137.838 172.676 135.538 170.876 133.038 169.276C130.938 167.876 128.738 166.576 126.238 166.276C124.938 166.076 123.638 166.276 122.338 166.176C121.138 166.176 118.838 165.476 119.338 163.776C119.038 163.976 118.738 164.276 118.438 164.476C125.538 163.876 132.438 166.876 138.038 171.076C140.638 172.976 143.138 175.276 146.038 176.776C149.138 178.276 152.238 178.376 155.438 177.176C167.238 172.676 177.938 164.976 186.438 155.676C191.338 150.376 195.338 144.476 198.938 138.276C199.238 137.676 198.938 136.976 198.338 136.776C193.138 135.076 187.938 133.376 182.938 131.176C179.338 129.576 173.538 127.476 173.338 122.776C172.938 122.976 172.538 123.276 172.138 123.476C179.838 128.676 188.038 132.076 196.938 134.576C199.138 135.176 201.538 135.976 203.838 135.476C205.738 135.076 207.338 133.776 208.738 132.376C212.138 128.776 215.238 124.976 218.338 121.276C222.038 116.976 225.838 112.676 229.038 107.876C229.138 107.176 227.938 106.376 227.338 106.976Z" fill="#212121"/>
<path d="M57.8379 213.276C76.3379 224.876 100.638 224.376 119.138 213.076C124.138 209.976 128.638 206.276 132.538 201.876C132.038 201.676 131.438 201.476 130.938 201.176C129.738 218.076 128.738 234.976 128.738 251.876C128.738 252.576 129.638 253.176 130.238 252.776C133.438 250.476 134.538 246.776 135.038 243.076C135.538 238.276 135.438 233.276 135.438 228.476C135.538 222.976 135.638 217.576 135.738 212.076C135.838 207.076 136.238 202.276 139.038 197.876C141.638 193.876 145.338 190.676 148.938 187.576C152.738 184.276 156.838 181.276 160.938 178.376C165.038 175.476 169.238 172.776 173.438 170.076C175.038 169.076 178.138 166.276 180.138 167.776C181.738 168.976 181.838 171.676 182.138 173.476C182.938 178.876 183.238 184.476 185.638 189.476C187.538 193.576 190.838 197.076 195.138 198.476C196.138 198.776 196.838 197.476 196.138 196.776C190.138 190.576 187.438 182.376 186.238 173.976C185.638 169.676 185.738 165.276 187.638 161.276C189.438 157.576 192.038 154.476 194.738 151.376C200.338 144.776 206.338 138.476 212.838 132.676C215.338 130.376 219.638 127.476 221.838 131.776C222.738 133.476 223.138 135.476 223.738 137.276C224.438 139.276 225.138 141.276 225.838 143.276C227.538 147.676 229.238 152.176 231.538 156.276C233.138 159.276 235.838 162.576 239.638 162.076C240.438 161.976 241.038 161.276 240.538 160.476C236.138 152.876 232.038 144.976 228.638 136.876C226.938 132.876 225.138 128.776 224.038 124.576C223.538 122.476 223.738 120.576 224.938 118.776C226.038 117.276 227.538 116.176 229.038 114.976C230.438 113.876 231.938 112.476 231.738 110.576C231.638 108.976 230.438 107.576 228.838 107.576C227.438 107.576 227.438 109.676 228.838 109.676C229.438 109.676 229.638 110.376 229.638 110.876C229.638 111.776 228.738 112.476 228.138 113.076C226.838 114.176 225.438 115.076 224.238 116.376C223.138 117.576 222.138 119.076 221.838 120.676C221.438 122.576 221.738 124.376 222.338 126.176C224.938 134.076 228.138 141.776 231.838 149.276C233.938 153.476 236.238 157.576 238.638 161.676C238.938 161.176 239.238 160.576 239.538 160.076C235.738 160.576 233.638 156.176 232.238 153.376C230.238 149.176 228.438 144.976 226.938 140.676C226.138 138.476 225.438 136.276 224.738 133.976C224.238 132.376 223.738 130.776 222.638 129.376C220.038 126.176 216.038 127.476 213.238 129.676C209.738 132.376 206.538 135.676 203.438 138.876C200.238 142.176 197.038 145.576 194.038 149.076C191.338 152.276 188.438 155.476 186.438 159.176C184.338 162.976 183.538 167.176 183.838 171.476C184.138 176.576 185.338 181.776 187.138 186.476C188.838 190.976 191.338 195.076 194.738 198.476C195.038 197.876 195.438 197.276 195.738 196.776C191.638 195.576 188.738 191.976 187.138 188.176C185.138 183.476 184.838 178.076 184.138 173.076C183.838 171.176 183.638 168.976 182.338 167.376C181.038 165.676 179.038 165.276 177.038 165.976C174.738 166.776 172.738 168.476 170.738 169.776C168.638 171.176 166.538 172.476 164.438 173.876C156.138 179.376 147.638 185.376 140.738 192.776C137.538 196.176 135.038 200.176 134.238 204.876C133.338 209.976 133.638 215.276 133.538 220.476C133.438 226.576 133.338 232.776 133.238 238.876C133.138 243.076 133.138 248.676 129.338 251.376C129.838 251.676 130.338 251.976 130.838 252.276C130.838 235.376 131.938 218.476 132.938 201.576C132.938 200.776 131.838 200.276 131.338 200.876C117.738 216.576 95.8379 223.476 75.6379 218.976C69.7379 217.676 64.0379 215.376 58.7379 212.376C57.7379 211.676 57.1379 212.876 57.8379 213.276Z" fill="#212121"/>
<path d="M63.1379 210.176C63.9379 206.876 67.7379 205.676 70.3379 204.376C73.1379 202.976 76.0379 200.576 75.9379 197.176C75.9379 196.576 75.4379 195.976 74.7379 195.976C67.7379 196.076 59.6379 196.776 54.9379 202.676C55.4379 203.076 55.9379 203.476 56.4379 203.876C58.4379 199.976 60.4379 194.776 59.1379 190.376C58.4379 188.176 56.8379 186.476 55.4379 184.776C53.6379 182.576 51.9379 180.376 50.2379 178.176C49.5379 177.376 47.9379 177.976 48.0379 179.076C48.2379 181.476 48.6379 183.876 48.6379 186.376C48.6379 188.876 48.1379 191.276 47.7379 193.676C46.9379 197.676 46.5379 201.976 48.8379 205.576C49.3379 205.176 49.8379 204.876 50.3379 204.476C47.4379 201.676 43.8379 199.676 39.9379 198.676C38.0379 198.176 36.0379 197.976 34.1379 197.976C31.7379 197.976 29.4379 198.376 27.0379 198.276C25.8379 198.176 25.3379 199.976 26.4379 200.476C28.4379 201.476 30.3379 202.676 32.0379 204.176C33.7379 205.676 35.0379 207.476 36.5379 208.976C39.7379 212.276 43.8379 212.576 48.2379 212.176C48.1379 211.476 48.0379 210.676 47.9379 209.976C38.3379 212.176 34.2379 222.076 32.5379 230.776C32.3379 231.776 33.4379 232.876 34.4379 232.176C38.3379 229.676 43.3379 229.976 47.0379 226.876C48.8379 225.376 49.5379 223.376 49.9379 221.176C50.3379 218.976 50.7379 216.376 52.9379 215.376C52.4379 214.976 51.9379 214.576 51.4379 214.276C50.3379 218.476 51.5379 222.276 53.1379 226.176C54.6379 229.776 56.6379 233.676 56.0379 237.676C55.8379 238.776 56.7379 240.276 58.1379 239.776C61.9379 238.276 64.1379 233.876 64.5379 229.976C65.0379 225.076 62.3379 220.376 59.4379 216.576C58.5379 215.476 57.0379 216.676 57.8379 217.776C60.3379 220.976 62.7379 224.976 62.6379 229.176C62.6379 230.876 62.1379 232.576 61.1379 234.076C60.2379 235.476 58.7379 236.076 57.1379 236.476C57.8379 237.176 58.5379 237.876 59.2379 238.576C59.9379 234.176 58.5379 230.176 56.8379 226.276C55.2379 222.676 53.2379 218.576 53.4379 214.576C53.5379 213.776 52.5379 213.476 51.9379 213.676C47.2379 215.676 49.2379 221.876 45.9379 224.876C44.3379 226.376 42.1379 226.976 40.0379 227.476C37.6379 228.076 35.2379 228.576 33.1379 229.976C33.7379 230.476 34.3379 230.976 35.0379 231.376C36.6379 223.576 39.7379 214.076 48.5379 212.076C49.7379 211.776 49.5379 209.676 48.2379 209.876C46.2379 210.076 44.1379 210.276 42.1379 209.776C40.0379 209.276 38.5379 207.876 37.1379 206.276C34.3379 203.076 31.4379 200.276 27.6379 198.376C27.4379 199.076 27.2379 199.876 27.0379 200.576C29.1379 200.676 31.2379 200.376 33.4379 200.276C35.3379 200.176 37.2379 200.376 39.0379 200.776C42.7379 201.576 46.2379 203.376 49.1379 205.876C49.8379 206.576 51.2379 205.676 50.6379 204.776C48.1379 201.176 49.1379 196.476 50.0379 192.576C51.1379 188.076 51.3379 183.776 50.7379 179.176C50.0379 179.476 49.3379 179.776 48.5379 180.076C50.1379 181.876 51.6379 183.776 53.2379 185.576C54.5379 187.076 56.2379 188.676 57.1379 190.576C58.8379 194.376 56.9379 199.576 55.0379 202.976C54.5379 203.876 55.8379 204.976 56.5379 204.176C61.1379 198.876 68.4379 198.676 74.9379 198.476C74.5379 198.076 74.1379 197.676 73.7379 197.276C73.9379 200.776 69.7379 202.376 67.2379 203.576C64.5379 204.976 61.8379 206.776 61.5379 210.076C61.3379 210.876 62.9379 211.076 63.1379 210.176Z" fill="#212121"/>
<path d="M130.138 234.576C129.238 229.276 123.638 225.776 118.338 226.376C117.538 226.476 117.038 227.376 117.638 228.076C119.838 230.276 122.338 232.576 123.538 235.576C124.738 238.576 123.638 241.976 125.338 244.776C125.738 244.176 126.238 243.676 126.638 243.076C119.538 241.476 111.638 245.376 108.738 252.076C108.338 253.076 109.238 254.276 110.338 253.676C115.538 250.776 122.138 253.376 127.038 249.776C126.638 249.176 126.138 248.676 125.738 248.076C123.138 251.276 122.938 255.676 124.638 259.376C126.438 263.476 130.338 266.176 134.138 268.176C135.238 268.676 136.138 267.676 135.738 266.576C134.038 262.776 133.938 258.576 135.338 254.676C134.938 254.976 134.638 255.276 134.238 255.576C139.638 254.876 144.838 252.276 148.438 248.076C148.938 247.476 148.838 246.376 147.938 246.176C143.138 244.976 137.938 243.776 133.438 246.576C132.138 247.376 133.338 249.376 134.638 248.576C138.438 246.176 143.338 247.276 147.438 248.376C147.238 247.776 147.138 247.076 146.938 246.476C143.638 250.076 139.238 252.576 134.338 253.176C133.738 253.276 133.438 253.476 133.238 254.076C131.638 258.576 131.938 263.476 133.938 267.776C134.438 267.276 134.938 266.776 135.538 266.176C132.238 264.576 129.038 262.376 127.238 259.176C125.638 256.276 125.438 252.276 127.538 249.576C128.238 248.676 127.338 247.076 126.238 247.876C123.838 249.676 120.838 249.776 117.938 249.976C115.038 250.176 112.138 250.376 109.438 251.676C109.938 252.176 110.438 252.676 111.038 253.276C113.738 247.576 120.138 244.176 126.338 245.376C127.238 245.576 128.238 244.576 127.638 243.676C126.638 242.176 126.838 240.376 126.638 238.576C126.438 237.076 126.038 235.676 125.438 234.376C124.038 231.476 121.738 229.076 119.438 226.776C119.238 227.376 118.938 227.876 118.738 228.476C123.338 227.976 127.538 230.976 129.138 235.176C129.138 235.776 130.338 235.476 130.138 234.576Z" fill="#212121"/>
<path d="M123.838 169.176C127.638 170.776 126.538 176.276 127.538 179.476C128.438 182.676 130.838 185.276 133.938 186.476C133.838 185.876 133.738 185.276 133.738 184.676C130.238 186.476 125.538 184.776 123.138 181.976C121.738 180.476 121.238 178.676 120.738 176.776C120.238 174.876 119.538 173.076 117.838 171.976C117.438 171.676 116.838 171.876 116.638 172.276C114.938 175.676 112.738 178.576 109.838 181.076C108.438 182.276 106.938 183.376 105.338 184.276C103.838 185.176 102.338 185.776 101.538 187.376C102.238 187.476 102.838 187.576 103.438 187.676C101.538 178.976 106.438 170.076 114.938 167.276C116.038 166.876 115.938 165.076 114.638 165.176C112.638 165.376 110.638 165.476 108.638 164.876C106.438 164.276 105.238 162.876 104.238 160.876C103.238 158.976 102.438 157.176 100.938 155.576C99.4379 153.876 97.5379 152.576 95.7379 151.276C95.6379 151.876 95.5378 152.476 95.5378 152.976C99.1378 151.576 103.438 152.076 106.438 154.576C109.138 156.876 110.638 160.476 114.038 161.976C114.838 162.376 115.738 161.576 115.238 160.776C113.638 157.576 113.538 153.676 113.538 150.176C113.438 147.076 113.938 142.676 117.238 141.276C116.738 140.776 116.238 140.276 115.838 139.876C115.338 143.476 116.838 146.676 118.338 149.776C119.738 152.876 121.238 156.676 119.638 159.976C119.138 160.976 120.638 161.876 121.238 160.876C124.738 153.776 117.138 147.576 118.138 140.476C118.238 139.676 117.638 138.676 116.738 139.076C112.738 140.776 111.438 144.876 111.438 148.976C111.438 153.376 111.638 157.876 113.838 161.776C114.138 161.376 114.538 160.876 114.838 160.476C113.038 159.776 111.738 158.076 110.538 156.576C109.338 154.976 108.038 153.476 106.338 152.476C103.038 150.376 98.7378 149.976 95.1378 151.276C94.3378 151.576 94.2379 152.476 94.9379 152.976C96.8379 154.376 98.8379 155.876 100.338 157.776C101.738 159.676 102.238 161.976 103.538 163.876C106.138 167.376 110.638 167.776 114.638 167.376C114.538 166.676 114.438 165.976 114.338 165.276C104.738 168.376 98.9379 178.376 101.338 188.276C101.538 189.176 102.838 189.376 103.238 188.576C104.038 186.976 105.938 186.276 107.338 185.376C108.838 184.376 110.338 183.176 111.638 181.976C114.238 179.476 116.438 176.476 118.038 173.176C117.638 173.276 117.238 173.376 116.838 173.476C118.738 174.776 118.838 177.476 119.638 179.476C120.338 181.376 121.538 182.976 123.138 184.176C126.438 186.776 130.538 187.376 134.538 186.376C135.338 186.176 135.538 184.976 134.738 184.576C131.438 182.576 129.838 179.576 129.338 175.776C128.938 172.476 128.038 168.676 124.538 167.476C123.638 167.376 122.938 168.776 123.838 169.176Z" fill="#212121"/>
<path d="M189.338 195.176C185.338 192.776 180.338 192.976 176.738 196.176C173.438 199.176 172.438 203.776 171.438 207.876C171.238 208.676 172.238 209.276 172.838 208.676C174.038 207.476 176.038 207.676 177.538 207.376C179.338 206.976 180.438 205.876 181.338 204.276C183.338 201.076 186.738 199.276 190.438 200.276C190.238 199.676 190.138 198.976 189.938 198.376C187.538 200.776 187.638 204.376 188.838 207.276C190.238 210.776 193.138 213.576 193.838 217.476C193.938 217.976 194.638 218.276 195.038 217.976C197.338 216.176 198.638 213.476 198.738 210.576C198.738 209.176 198.538 207.676 197.838 206.476C197.338 205.476 195.238 203.676 195.838 202.476C196.238 201.676 197.438 202.676 197.938 202.876C198.638 203.276 199.338 203.476 200.038 203.676C201.538 203.876 203.038 203.576 204.438 202.876C207.838 201.176 209.338 197.676 211.438 194.776C212.038 193.976 210.938 193.276 210.238 193.576C207.538 194.776 204.838 193.476 202.038 193.176C199.538 192.876 197.138 193.376 195.538 195.476C194.738 196.576 196.638 198.076 197.438 196.976C198.938 194.976 201.838 195.476 203.938 195.876C206.338 196.276 209.138 196.676 211.238 194.976C210.738 194.676 210.238 194.376 209.738 194.076C209.438 195.076 208.738 195.876 208.138 196.676C207.638 197.476 207.038 198.276 206.438 198.976C205.238 200.276 203.838 201.476 202.038 201.876C200.138 202.276 199.138 201.476 197.538 200.576C196.238 199.876 194.738 199.876 193.838 201.176C191.838 203.976 195.238 206.376 196.138 208.876C197.038 211.676 196.138 214.776 193.938 216.776C194.438 216.876 194.838 216.976 195.338 217.176C194.738 213.876 192.638 211.176 191.238 208.176C190.138 205.776 189.338 202.276 191.438 200.076C192.038 199.476 191.838 198.376 190.938 198.176C187.238 197.376 183.038 198.776 180.738 201.776C180.138 202.576 179.738 203.476 179.138 204.276C178.438 205.176 177.638 205.576 176.538 205.776C174.738 206.176 172.938 206.176 171.538 207.476C172.038 207.776 172.438 207.976 172.938 208.276C173.738 204.776 174.738 200.876 177.338 198.176C180.138 195.176 184.838 194.676 188.538 196.276C189.438 196.676 190.138 195.576 189.338 195.176Z" fill="#212121"/>
<path d="M194.038 191.076C194.038 189.776 194.438 188.376 194.838 187.176C195.238 185.876 195.938 184.676 196.738 183.676C197.538 182.676 198.538 181.776 199.638 181.076C201.038 180.276 202.638 179.876 204.138 179.276C203.838 178.576 203.538 177.876 203.238 177.176C200.838 178.976 199.038 181.576 198.638 184.576C198.238 186.976 198.738 191.576 195.438 192.076C194.838 192.176 194.538 192.876 194.638 193.376C194.838 193.976 195.438 194.176 195.938 194.176C199.338 193.676 200.238 189.976 200.538 187.076C200.638 185.476 200.838 183.976 201.538 182.576C202.238 181.276 203.138 180.076 204.338 179.276C204.838 178.976 205.038 178.376 204.838 177.876C204.638 177.376 204.038 176.976 203.538 177.176C201.838 177.776 199.938 178.276 198.338 179.276C196.938 180.076 195.738 181.176 194.838 182.476C193.938 183.676 193.238 185.076 192.738 186.576C192.338 188.176 192.438 189.676 192.638 191.376C192.838 192.076 194.038 191.876 194.038 191.076Z" fill="#212121"/>
<path d="M175.738 128.676C173.938 128.876 173.538 130.976 173.438 132.376C173.338 134.576 174.238 136.676 175.038 138.676C175.838 140.676 176.438 142.676 176.038 144.776C175.638 146.676 174.538 148.476 173.038 149.676C173.538 150.076 174.038 150.476 174.538 150.876C175.238 149.076 175.238 147.076 174.438 145.376C173.638 143.476 172.138 141.876 171.238 139.976C169.438 136.576 168.838 132.476 171.938 129.676C172.738 128.976 171.738 127.576 170.738 128.176C167.538 130.376 167.138 134.776 168.238 138.176C168.938 140.176 169.938 141.976 171.138 143.676C172.538 145.776 173.538 147.776 172.538 150.276C172.238 151.076 173.338 151.976 174.038 151.476C176.938 149.376 178.738 145.876 178.238 142.276C177.938 140.076 177.038 138.176 176.238 136.176C175.938 135.276 175.538 134.276 175.438 133.276C175.338 132.676 175.038 130.276 175.838 129.976C176.538 129.776 176.438 128.576 175.738 128.676Z" fill="#212121"/>
<path d="M176.638 125.576C183.338 121.976 187.938 112.676 182.838 105.876C182.438 105.276 181.138 105.176 181.038 106.076C180.838 107.476 180.438 108.876 179.738 110.176C178.938 111.476 177.938 112.376 176.838 113.376C175.938 114.176 175.138 115.076 174.738 116.176C174.238 117.476 174.338 119.076 173.338 120.076C173.738 120.076 174.238 120.076 174.638 120.076C173.038 118.676 173.738 116.376 174.238 114.676C174.738 112.876 175.038 111.076 174.938 109.276C174.738 105.676 173.338 101.876 170.738 99.3763C169.938 98.5763 168.738 99.1763 168.638 100.276C168.238 103.576 165.838 106.176 165.338 109.376C164.838 113.076 166.138 116.376 167.238 119.776C167.638 119.376 168.038 118.976 168.438 118.576C167.538 118.376 167.238 117.576 166.838 116.776C166.438 116.076 166.038 115.276 165.538 114.676C164.438 113.276 163.138 112.076 161.638 111.276C158.638 109.576 154.938 109.076 151.638 109.976C150.938 110.176 150.438 110.976 150.738 111.676C153.338 118.776 160.638 123.976 168.138 124.676C168.038 124.076 167.938 123.476 167.938 122.876C163.938 124.276 160.138 125.876 158.538 130.076C157.038 133.876 157.638 138.176 158.338 142.076C158.438 142.976 159.738 143.376 160.438 142.876C165.238 139.776 168.738 135.376 171.038 130.176C171.538 129.076 170.038 128.176 169.438 129.276C166.938 133.776 163.238 137.576 158.938 140.476C159.638 140.776 160.338 141.076 161.038 141.276C160.438 138.076 159.738 134.576 160.738 131.276C161.838 127.576 165.138 125.876 168.538 124.576C169.538 124.176 169.338 122.876 168.338 122.776C165.038 122.476 161.638 121.176 159.038 119.076C156.538 117.076 154.638 113.976 153.538 110.976C153.238 111.576 152.938 112.076 152.638 112.676C155.738 111.776 159.138 112.576 161.838 114.376C163.138 115.276 164.138 116.476 165.038 117.776C165.838 119.176 166.838 120.376 168.538 120.476C169.338 120.476 169.638 119.676 169.338 119.076C167.938 115.976 166.738 112.076 167.738 108.676C168.538 105.776 170.638 103.476 171.438 100.576C170.638 100.676 169.938 100.776 169.138 100.876C171.438 104.076 172.838 107.376 172.638 111.376C172.438 114.776 170.338 119.076 173.838 121.576C174.238 121.876 174.938 121.676 175.138 121.276C175.738 120.076 175.838 118.776 176.238 117.576C176.638 115.976 177.838 114.976 179.038 113.876C181.238 111.876 182.838 109.576 183.438 106.576C182.838 106.676 182.238 106.776 181.638 106.776C183.538 109.476 183.538 113.276 182.438 116.276C181.238 119.576 178.638 121.876 176.238 124.276C175.038 124.976 175.838 125.976 176.638 125.576Z" fill="#212121"/>
<path d="M235.838 159.476C232.238 155.476 226.238 156.976 222.838 160.476C221.138 162.276 220.038 164.476 219.038 166.676C218.138 168.676 217.038 171.076 214.838 171.776C213.438 172.176 213.838 173.976 215.138 174.176C219.238 174.676 223.938 174.276 226.938 171.276C229.738 168.576 232.538 162.476 237.338 163.676C237.238 163.176 237.238 162.676 237.138 162.276C233.038 164.576 232.638 169.776 233.438 174.076C234.238 178.676 236.838 183.176 241.138 185.176C242.338 185.776 243.738 184.576 243.038 183.276C241.438 180.276 241.138 177.076 241.638 173.776C242.138 170.676 242.838 167.576 241.438 164.576C240.938 164.976 240.338 165.376 239.838 165.876C242.238 168.276 245.738 169.276 249.138 169.076C253.238 168.876 256.838 167.076 260.538 165.476C261.838 164.976 261.738 162.876 260.238 162.876C256.938 162.776 254.238 160.076 251.238 159.076C247.838 157.876 244.138 158.076 240.838 159.376C241.138 159.976 241.438 160.476 241.838 161.076C245.038 158.176 247.838 155.176 249.838 151.376C251.738 147.576 252.838 143.376 252.938 139.176C252.938 138.276 251.838 137.476 250.938 138.076C244.338 142.576 239.438 149.176 237.138 156.876C236.738 158.276 238.938 158.876 239.338 157.476C241.738 150.576 246.238 144.476 252.238 140.376C251.538 139.976 250.938 139.576 250.238 139.276C250.138 143.176 249.238 146.976 247.638 150.476C246.038 153.876 243.738 157.476 240.638 159.676C239.738 160.276 240.238 161.876 241.438 161.476C244.738 160.376 248.538 160.576 251.638 162.176C254.438 163.576 257.038 165.576 260.338 165.676C260.138 164.876 259.938 164.076 259.638 163.276C254.538 166.376 246.338 169.976 241.438 164.476C240.538 163.576 239.338 164.776 239.838 165.776C241.238 168.876 239.338 172.376 238.938 175.576C238.538 178.776 239.338 182.076 240.938 184.876C241.538 184.276 242.138 183.676 242.838 182.976C239.338 181.276 237.238 177.876 236.338 174.176C235.538 170.976 235.138 165.876 238.238 163.776C238.738 163.376 238.738 162.476 238.038 162.376C233.538 161.476 230.638 165.376 228.038 168.376C226.538 170.176 224.838 171.476 222.538 171.976C220.238 172.576 217.938 172.276 215.638 171.876C215.638 172.676 215.638 173.476 215.638 174.176C220.038 172.876 220.938 167.876 223.138 164.376C225.638 160.376 230.838 157.476 235.138 160.676C235.638 161.076 236.338 160.076 235.838 159.476Z" fill="#212121"/>
<path d="M87.5379 216.576C87.4379 212.476 86.2379 208.176 84.7379 204.376C83.4379 201.076 81.6379 198.076 79.1379 195.576C76.5379 192.976 73.2379 191.276 69.7379 190.076C65.8379 188.776 61.6379 187.476 57.5379 187.576C56.0379 187.576 56.1379 189.676 57.5379 189.876C61.4379 190.276 65.0379 191.076 68.7379 192.376C72.0379 193.476 75.1379 194.976 77.6379 197.476C79.9379 199.876 81.6379 202.776 82.7379 205.876C84.0379 209.476 84.6379 213.276 85.8379 216.876C86.1379 217.676 87.6379 217.576 87.5379 216.576Z" fill="#212121"/>
<path d="M31.2379 199.076C33.3379 196.176 36.1379 193.976 39.2379 192.176C40.7379 191.276 42.3379 190.576 43.9379 190.076C45.6379 189.476 47.4379 189.276 49.2379 188.776C50.4379 188.476 50.1379 186.576 48.9379 186.676C47.0379 186.776 45.0379 187.376 43.1379 187.976C41.2379 188.576 39.4379 189.476 37.7379 190.476C36.1379 191.476 34.5379 192.576 33.1379 193.876C31.7379 195.176 30.2379 196.676 29.8379 198.576C29.6379 199.376 30.7379 199.676 31.2379 199.076Z" fill="#212121"/>
<path d="M27.6379 200.276C24.4379 203.176 22.4379 207.276 21.1379 211.376C19.7379 215.476 19.1379 219.776 19.0379 224.176C18.7379 233.176 20.1379 242.776 26.2379 249.776C32.0379 256.476 40.6379 259.976 49.4379 259.876C58.7379 259.876 67.9379 256.076 74.9379 249.876C82.8379 242.876 87.4379 232.476 86.6378 221.876C86.5378 220.376 84.1379 220.376 84.2379 221.876C85.3379 239.876 70.3379 255.476 52.8379 257.276C44.5379 258.176 36.0379 255.876 29.8379 250.076C27.0379 247.476 24.7379 244.176 23.5379 240.476C22.0379 236.176 21.5379 231.576 21.4379 227.076C21.3379 222.476 21.7379 217.776 22.9379 213.376C24.1379 208.876 26.3379 205.076 28.8379 201.176C29.2379 200.476 28.2379 199.776 27.6379 200.276Z" fill="#212121"/>
<path d="M25.9379 220.976C23.4379 228.076 25.3379 236.376 29.5379 242.376C31.5379 245.276 34.1379 247.676 37.0379 249.576C39.9379 251.476 43.3379 253.176 46.8379 253.276C47.9379 253.276 48.0379 251.776 47.1379 251.376C44.1379 250.276 41.1379 249.376 38.3379 247.676C35.5379 245.976 33.1379 243.576 31.2379 240.876C27.2379 234.976 26.2379 227.976 27.0379 221.076C27.2379 220.476 26.1379 220.376 25.9379 220.976Z" fill="#212121"/>
<path d="M129.638 218.576C123.238 216.076 116.038 216.776 109.938 219.476C104.038 222.076 99.2379 226.776 95.8379 232.176C88.7379 243.776 88.4379 259.276 95.9379 270.776C99.3379 275.876 104.038 280.176 109.638 282.776C116.138 285.776 123.338 286.476 130.338 285.476C137.138 284.576 143.438 282.076 147.938 276.576C152.038 271.576 154.338 265.376 155.238 259.076C157.038 245.576 151.938 231.776 140.738 223.776C139.438 222.876 138.038 222.076 136.638 221.376C135.538 220.776 134.538 222.476 135.638 223.076C146.738 229.076 153.338 240.876 153.438 253.476C153.438 259.576 152.038 265.876 149.038 271.176C145.938 276.676 141.138 280.576 135.038 282.176C128.638 283.876 121.538 284.076 115.138 282.276C109.438 280.676 104.438 277.376 100.538 272.976C91.9379 263.276 90.3379 248.876 95.5378 237.176C98.2378 231.176 102.638 225.876 108.338 222.576C114.638 218.876 122.238 218.076 129.238 219.976C130.338 220.576 130.638 218.976 129.638 218.576Z" fill="#212121"/>
<path d="M96.5378 247.076C93.1378 260.476 101.938 275.376 115.138 279.476C116.938 280.076 117.638 277.376 115.938 276.676C110.338 274.476 105.538 271.076 102.238 265.976C98.6379 260.476 97.3379 253.776 97.7379 247.276C97.7379 246.576 96.6378 246.476 96.5378 247.076Z" fill="#212121"/>
<path d="M182.738 173.776C169.938 176.476 160.938 189.576 158.338 201.776C156.938 208.676 157.438 215.776 160.338 222.176C163.138 228.276 168.038 233.076 174.138 235.776C180.238 238.476 187.338 239.576 194.038 238.876C197.438 238.576 200.738 237.776 203.838 236.176C206.638 234.776 209.238 232.976 211.538 230.776C221.638 221.176 225.138 205.776 220.538 192.676C218.438 186.676 214.738 181.276 209.938 177.076C204.938 172.776 198.238 169.076 191.438 169.776C189.738 169.976 188.138 170.476 186.638 171.276C185.638 171.776 186.338 173.576 187.438 173.176C193.638 171.076 200.138 173.576 205.338 177.076C210.138 180.376 213.938 185.076 216.338 190.276C221.638 201.576 219.938 216.076 212.038 225.776C208.438 230.176 203.738 233.476 198.238 235.176C194.938 236.176 191.438 236.376 188.038 236.276C185.038 236.176 182.038 235.776 179.038 234.976C173.138 233.276 167.838 229.876 164.438 224.776C160.838 219.476 159.438 212.976 159.938 206.576C160.938 192.976 169.738 179.276 183.038 174.876C183.938 174.776 183.538 173.576 182.738 173.776Z" fill="#212121"/>
<path d="M165.938 222.376C168.438 227.476 173.138 230.676 178.438 232.476C181.438 233.476 184.738 233.976 187.838 233.776C189.538 233.676 191.138 233.276 192.638 232.676C194.238 232.076 195.938 231.376 197.138 230.176C197.938 229.476 197.138 228.176 196.138 228.476C194.738 228.876 193.438 229.776 192.138 230.376C190.638 231.076 189.038 231.476 187.438 231.576C184.638 231.776 181.738 231.176 179.038 230.376C174.338 228.976 169.638 226.076 167.138 221.676C166.738 220.976 165.638 221.576 165.938 222.376Z" fill="#212121"/>
<path d="M145.138 174.076C146.938 167.676 145.938 160.376 143.538 154.276C141.038 148.076 136.838 142.776 131.238 139.076C125.838 135.476 119.238 133.576 112.738 133.876C105.438 134.276 98.5379 137.476 92.7379 141.776C87.2379 145.876 83.0379 151.176 80.8379 157.676C78.7379 163.776 78.5379 170.376 79.7379 176.676C80.9379 182.976 83.8378 189.076 88.1378 193.776C92.8378 198.976 98.9379 201.976 105.938 202.476C119.938 203.476 134.538 196.476 140.338 183.376C141.038 181.876 141.538 180.376 141.938 178.776C142.338 177.276 140.038 176.676 139.638 178.176C136.238 191.076 123.938 199.176 111.138 199.976C104.438 200.376 97.9379 199.076 92.7379 194.776C88.2379 190.976 85.0379 185.776 83.2379 180.176C79.6379 168.876 81.7379 155.576 90.4379 147.176C95.3379 142.376 101.838 138.576 108.438 137.076C114.338 135.776 120.738 136.576 126.138 139.176C131.738 141.776 136.338 146.076 139.338 151.376C142.438 156.776 143.738 162.976 143.738 169.176C143.738 170.776 143.638 172.276 143.538 173.876C143.438 174.876 144.938 174.976 145.138 174.076Z" fill="#212121"/>
<path d="M86.6378 169.776C85.3378 172.376 84.9379 175.076 85.3379 177.876C85.6379 180.476 86.4379 182.976 87.6378 185.276C88.8378 187.576 90.3379 189.676 92.2379 191.476C93.2379 192.376 94.2379 193.276 95.3379 193.976C96.3379 194.676 97.6379 195.476 98.8379 195.776C100.138 196.076 100.838 194.376 99.7379 193.676C98.8379 193.076 97.7379 192.676 96.8379 192.076C95.8379 191.476 94.9379 190.676 94.0378 189.876C92.3379 188.276 90.9379 186.476 89.8379 184.476C88.7379 182.476 88.0378 180.376 87.6378 178.176C87.1378 175.776 86.9379 172.676 87.8379 170.376C88.1379 169.576 87.0378 169.076 86.6378 169.776Z" fill="#212121"/>
<path d="M89.6378 180.976C89.8378 182.276 90.5379 183.476 91.2379 184.476C91.9379 185.576 92.8379 186.576 93.8379 187.376C94.3379 187.776 95.1378 187.876 95.5378 187.276C95.9379 186.676 95.7379 185.976 95.2379 185.576C95.2379 185.576 95.0378 185.376 95.1378 185.476C95.2378 185.576 95.0378 185.376 95.0378 185.376C94.9379 185.276 94.8379 185.176 94.7379 185.076C94.5379 184.876 94.3379 184.676 94.0378 184.476C93.6378 184.076 93.2379 183.676 92.8379 183.176C92.7379 183.076 92.6378 182.976 92.5378 182.876C92.4379 182.776 92.6378 183.076 92.5378 182.776C92.5378 182.676 92.4379 182.676 92.4379 182.576C92.2379 182.376 92.1378 182.076 91.9379 181.876C91.6378 181.376 91.2379 180.876 90.9379 180.376C90.4379 179.776 89.5378 180.176 89.6378 180.976Z" fill="#212121"/>
<path d="M202.138 134.476C209.238 125.276 208.138 111.276 201.038 102.476C197.738 98.2763 193.038 95.0763 188.038 93.3763C182.238 91.4763 175.838 91.7763 169.938 92.8763C164.138 93.9763 158.438 96.1763 153.738 99.8763C148.938 103.576 145.538 108.776 143.538 114.476C139.638 126.176 141.938 140.376 150.438 149.476C155.138 154.476 161.838 157.076 168.638 157.176C175.838 157.276 183.638 154.876 189.438 150.676C190.438 149.876 189.638 148.376 188.438 148.976C182.938 151.476 177.538 154.076 171.438 154.576C165.738 154.976 159.838 153.776 155.238 150.376C145.938 143.576 142.738 130.176 144.838 119.376C145.938 113.776 148.438 108.476 152.438 104.376C156.238 100.576 161.038 97.9763 166.238 96.4763C171.638 94.8763 177.838 93.9763 183.438 94.8763C188.338 95.6763 192.938 97.9763 196.638 101.276C200.938 105.176 203.738 110.376 204.538 116.076C205.438 122.276 203.838 128.476 200.938 133.876C200.438 134.576 201.638 135.176 202.138 134.476Z" fill="#212121"/>
<path d="M191.538 100.976C194.538 103.976 197.238 107.876 198.838 111.876C199.638 113.776 200.138 115.876 200.238 117.976C200.238 118.976 200.138 119.976 199.938 120.976C199.638 121.976 198.938 122.876 198.738 123.876C198.538 124.776 199.538 125.776 200.438 125.176C202.238 123.876 202.638 120.876 202.738 118.876C202.838 116.376 202.338 113.876 201.438 111.576C200.538 109.276 199.338 107.076 197.838 105.076C196.338 102.976 194.538 101.476 192.538 99.8763C191.738 99.3763 190.938 100.376 191.538 100.976Z" fill="#212121"/>
<path d="M223.738 134.976C222.338 135.476 220.838 135.976 219.638 136.876C218.338 137.776 217.138 138.876 216.038 140.076C213.838 142.376 212.038 144.976 210.538 147.776C207.238 153.976 205.038 161.276 205.938 168.276C206.938 175.176 211.438 180.976 216.838 185.076C222.038 189.076 228.438 191.376 234.938 191.776C241.738 192.176 248.738 190.376 254.538 186.676C260.238 183.076 264.638 177.776 267.638 171.776C270.738 165.576 272.738 158.576 271.838 151.576C271.038 145.476 268.238 139.676 264.138 135.176C255.338 125.576 240.738 123.476 229.138 129.076C227.738 129.776 226.338 130.576 225.038 131.476C223.738 132.376 224.938 134.576 226.338 133.676C236.038 126.976 249.838 126.676 259.238 134.076C263.638 137.576 266.938 142.476 268.538 147.976C270.238 154.076 269.538 160.076 267.338 165.976C265.138 171.876 261.838 177.376 257.138 181.576C252.438 185.776 246.338 188.476 240.138 189.176C228.238 190.476 215.038 184.176 209.838 173.076C206.538 166.076 208.538 157.876 211.538 151.176C214.338 145.076 218.538 140.076 224.138 136.376C224.938 135.876 224.538 134.676 223.738 134.976Z" fill="#212121"/>
<path d="M263.638 164.976C263.138 166.876 262.238 168.676 261.438 170.476C260.638 172.176 259.638 173.776 258.338 175.176C255.838 177.876 252.738 179.776 249.638 181.876C248.438 182.676 249.538 184.676 250.838 183.876C254.238 181.876 257.638 179.576 260.138 176.576C261.438 175.076 262.538 173.376 263.238 171.576C264.038 169.576 264.338 167.476 264.838 165.376C265.038 164.576 263.938 164.176 263.638 164.976Z" fill="#212121"/>
<path d="M142.819 35.8448C142.042 34.9138 141.576 34.1379 140.488 33.6724C139.555 33.2069 138.933 33.0517 137.845 33.0517C136.757 32.8966 135.98 33.3621 135.203 34.1379C133.804 35.069 133.027 36.7759 133.027 38.4828C133.027 41.8966 136.446 44.3793 139.71 43.4483C140.954 43.1379 142.197 42.2069 142.819 41.1207C143.285 40.3448 143.596 39.4138 143.596 38.4828C143.441 37.5517 143.285 36.6207 142.819 35.8448Z" fill="#212121"/>
<path d="M158.361 21.569C157.895 21.2586 157.429 21.1034 156.807 21.1034C155.875 21.1034 155.098 21.569 154.631 22.3448C154.476 22.5 154.476 22.6552 154.476 22.8103C154.32 23.2759 154.32 23.431 154.165 24.0517C154.165 24.5172 154.32 24.9828 154.476 25.4483C154.787 25.9138 155.098 26.2241 155.408 26.3793C156.185 26.8448 157.273 26.8448 158.206 26.3793C158.983 25.9138 159.605 24.9828 159.605 24.0517C159.76 22.9655 159.139 22.0345 158.361 21.569Z" fill="#212121"/>
<path d="M142.663 19.3966C142.663 19.2414 142.663 19.0862 142.663 18.931C142.663 18.3103 142.508 17.8448 142.353 17.3793C142.197 17.069 142.042 16.7586 141.886 16.4483C141.576 15.9828 141.265 15.6724 140.798 15.3621C140.488 15.2069 140.177 15.0517 139.866 14.8966C139.555 14.8966 139.089 14.7414 138.778 14.7414C138.156 14.7414 137.69 14.8966 137.224 15.0517C136.757 15.2069 136.446 15.3621 136.136 15.6724C136.136 15.6724 135.98 15.6724 135.98 15.8276C135.669 15.9828 135.359 16.2931 135.048 16.4483C134.737 16.7586 134.581 17.069 134.271 17.3793C133.96 18.1552 133.649 18.931 133.649 19.7069C133.649 21.2586 134.426 22.6552 135.825 23.431C137.224 24.2069 138.933 24.2069 140.332 23.431C140.488 23.2759 140.643 23.2759 140.798 22.9655C141.265 22.6552 141.731 22.1897 141.886 21.7241C142.042 21.569 142.042 21.2586 142.197 21.1034C142.508 20.6379 142.663 20.0172 142.508 19.3966C142.663 19.7069 142.663 19.5517 142.663 19.3966Z" fill="#212121"/>
<path d="M149.968 2.63793C149.813 2.01724 149.502 1.55172 149.036 1.08621C148.725 0.931034 148.57 0.775862 148.259 0.465517C147.793 0.155172 147.171 0 146.549 0C146.083 0 145.617 0.155172 145.15 0.310345C144.684 0.465517 144.373 0.62069 144.062 1.08621C143.751 1.39655 143.441 1.86207 143.285 2.17241C143.13 2.63793 142.974 3.10345 142.974 3.56897C142.974 3.87931 143.13 4.18966 143.13 4.5C143.285 5.12069 143.596 5.58621 144.062 6.05172C144.373 6.2069 144.529 6.36207 144.839 6.67241C145.461 6.98276 145.927 7.13793 146.705 7.13793C147.171 7.13793 147.637 6.98276 148.103 6.82759C148.57 6.67241 148.88 6.51724 149.191 6.05172C149.502 5.74138 149.813 5.27586 149.968 4.96552C149.968 4.5 150.124 4.03448 150.124 3.56897C150.124 3.25862 149.968 2.94828 149.968 2.63793Z" fill="#212121"/>
<path d="M122.147 12.1034C117.951 12.1034 117.951 18.4655 122.147 18.4655C126.344 18.6207 126.344 12.1034 122.147 12.1034Z" fill="#212121"/>
<path d="M124.479 40.5C120.438 40.5 120.438 46.8621 124.479 46.8621C128.675 46.8621 128.675 40.5 124.479 40.5Z" fill="#212121"/>
<path d="M146.549 47.3276C142.353 47.3276 142.353 53.8448 146.549 53.8448C150.746 54 150.746 47.3276 146.549 47.3276Z" fill="#212121"/>
<path d="M172.039 31.1897V31.0345C171.883 30.8793 171.883 30.569 171.728 30.4138C171.573 30.1034 171.417 29.9483 171.106 29.6379C170.951 29.4828 170.795 29.3276 170.485 29.3276C170.174 29.1724 169.863 29.1724 169.552 29.1724C169.397 29.1724 169.086 29.1724 168.93 29.3276C168.775 29.4828 168.464 29.4828 168.309 29.6379C167.998 29.7931 167.842 29.9483 167.532 30.2586C167.376 30.569 167.221 30.7241 167.065 31.1897V31.3448C166.91 31.8103 166.91 32.2759 167.065 32.7414C167.221 33.2069 167.376 33.5172 167.687 33.8276C167.842 33.9828 167.998 34.1379 168.153 34.2931C168.62 34.4483 168.93 34.6034 169.397 34.6034C169.707 34.6034 170.018 34.6035 170.329 34.4483C170.64 34.2931 170.951 34.1379 171.106 33.9828C171.417 33.6724 171.573 33.2069 171.728 32.8966C172.194 32.1207 172.194 31.6552 172.039 31.1897Z" fill="#212121"/>
<path d="M122.614 31.6552C122.614 31.5 122.614 31.3448 122.614 31.1897C122.614 31.0345 122.458 30.8793 122.458 30.8793C122.458 30.8793 122.458 30.8793 122.458 30.7241C122.303 30.569 122.303 30.4138 122.147 30.4138C122.147 30.4138 122.147 30.4138 121.992 30.2586C121.837 30.1034 121.526 29.9483 121.37 29.7931C121.059 29.6379 120.593 29.6379 120.282 29.7931C119.971 29.9483 119.816 30.2586 119.816 30.7241C119.816 31.0345 119.816 31.1897 119.816 31.5V31.6552C119.816 31.8103 119.971 31.9655 119.971 32.1207C119.971 32.1207 119.971 32.1207 119.971 32.2759C119.971 32.431 120.127 32.431 120.282 32.5862C120.438 32.5862 120.593 32.5862 120.749 32.7414C120.904 32.7414 120.904 32.8966 121.059 32.8966C121.059 32.8966 120.904 32.8966 120.904 32.7414C121.059 32.8966 121.215 32.8966 121.526 32.8966C121.681 32.8966 121.992 32.8966 122.147 32.7414C122.303 32.5862 122.458 32.431 122.614 32.2759C122.614 32.1207 122.614 31.8103 122.614 31.6552C122.614 31.8103 122.614 31.9655 122.614 31.9655C122.614 31.8103 122.614 31.8103 122.614 31.6552Z" fill="#212121"/>
<path d="M133.649 4.96552C133.649 4.81035 133.493 4.81035 133.493 4.65517C133.493 4.5 133.338 4.5 133.338 4.34483C133.338 4.34483 133.183 4.18966 133.027 4.18966C133.027 4.03448 132.872 4.03448 132.716 3.87931C132.716 3.72414 132.561 3.72414 132.405 3.72414C132.25 3.72414 132.25 3.72414 132.095 3.72414C131.939 3.72414 131.784 3.72414 131.628 3.87931C131.473 3.87931 131.473 3.87931 131.473 4.03448C131.473 3.87931 131.317 4.03448 131.317 4.18966C131.317 4.34483 131.317 4.34483 131.162 4.5C131.162 4.65517 131.162 4.81035 131.162 5.12069V5.43103C131.162 5.58621 131.162 5.58621 131.317 5.74138C131.317 5.89655 131.473 6.05172 131.628 6.2069L131.784 6.36207C132.095 6.51724 132.561 6.51724 133.027 6.36207C133.338 6.36207 133.493 6.2069 133.493 5.89655C133.649 5.74138 133.649 5.58621 133.649 5.27586V4.96552Z" fill="#212121"/>
<path d="M151.056 33.2069V33.0517C151.056 32.8965 150.901 32.7414 150.746 32.5862C150.59 32.431 150.435 32.2759 150.279 32.2759H150.124C149.968 32.2759 149.813 32.2759 149.658 32.2759C149.502 32.2759 149.347 32.431 149.191 32.5862C149.036 32.7414 148.881 32.8965 148.881 33.0517C148.881 33.2069 148.881 33.3621 148.881 33.5172C148.881 33.6724 148.88 33.8276 149.036 33.9828C149.036 34.1379 149.191 34.2931 149.347 34.4483C149.502 34.6035 149.658 34.6034 149.813 34.7586C149.968 34.7586 150.124 34.9138 150.279 34.9138C150.435 34.9138 150.435 34.9138 150.59 34.9138C150.746 34.9138 150.901 34.7586 151.056 34.6034C151.056 34.4483 151.212 34.4483 151.212 34.2931C151.367 34.1379 151.367 33.8276 151.367 33.6724C151.056 33.3621 151.056 33.3621 151.056 33.2069Z" fill="#212121"/>
<path d="M170.018 13.0345C170.018 12.8793 169.863 12.8793 169.707 12.7241C169.552 12.569 169.397 12.4138 169.086 12.4138H168.62C168.62 12.4138 168.62 12.4138 168.464 12.4138C168.464 12.4138 168.464 12.4138 168.309 12.4138C168.153 12.4138 167.998 12.4138 167.998 12.4138C167.998 12.4138 167.842 12.4138 167.842 12.569C167.842 12.569 167.687 12.569 167.687 12.7241L167.532 12.8793C167.376 13.0345 167.376 13.0345 167.221 13.1897C167.221 13.3448 167.065 13.3448 167.065 13.5C167.065 13.6552 167.065 13.6552 167.065 13.8103C167.065 13.9655 167.065 13.9655 167.221 14.1207V14.2759C167.376 14.431 167.376 14.5862 167.532 14.7414C167.687 14.8966 167.842 15.0517 167.998 15.0517C167.998 15.0517 168.153 15.0517 168.153 15.2069C168.309 15.3621 168.464 15.3621 168.62 15.3621H168.775C168.93 15.3621 169.086 15.3621 169.241 15.3621C169.552 15.3621 169.707 15.2069 169.863 15.0517C170.018 14.8966 170.018 14.7414 170.174 14.5862C170.329 14.431 170.329 14.2759 170.329 14.1207C170.174 13.5 170.174 13.3448 170.018 13.0345Z" fill="#212121"/>
<path d="M59.2338 35.5949C59.4364 36.6824 57.4778 37.3622 57.7479 38.4497C58.0181 39.6732 60.5171 39.2654 60.6522 40.4889C60.6522 40.8968 60.382 41.3726 60.5171 41.7804C60.7197 42.4601 61.6653 42.3242 62.2731 42.5961C63.016 42.9359 63.2187 43.9555 62.9485 44.7032C62.6783 45.4509 62.0705 46.0627 61.4626 46.5385C58.2207 49.3254 54.1008 51.3646 49.8458 51.1607C45.9285 50.9568 41.8761 48.8496 38.364 50.5489C35.3247 52.0443 34.109 55.9188 34.2441 59.3174C34.3791 62.7841 35.5949 66.0468 35.865 69.5134C36.1352 72.7081 35.5949 75.9708 34.3116 78.8936C33.9064 79.8453 33.231 80.8649 32.2179 80.9328C30.9346 81.0008 30.1241 79.5054 29.854 78.2139C29.5163 76.9224 29.1786 75.427 27.8953 74.9512C26.0042 74.3395 24.5859 76.9224 22.6947 77.6022C22.357 77.7381 21.9518 77.8061 21.6141 77.6701C20.2633 77.3303 20.2633 75.3591 20.601 73.9996C19.3853 74.2715 18.1696 74.4754 16.8863 74.6113C15.9408 74.6793 14.59 74.4074 14.59 73.4558C14.59 72.3003 16.4811 71.8245 16.2785 70.6689C16.1434 69.7853 14.9952 69.6493 14.1172 69.7853C13.2392 69.8532 12.0234 69.7853 11.8884 68.9016C12.9015 68.2219 12.8339 66.3866 11.7533 65.7749C10.8753 65.2991 9.79462 65.5709 8.78152 65.5709C7.76842 65.5709 6.55271 65.0272 6.55271 64.0076C6.62025 62.92 8.10612 62.3762 8.17366 61.2886C8.2412 60.2011 6.89041 59.7932 5.80977 59.5893C4.79667 59.3854 3.44587 58.7057 3.71603 57.6861C3.91865 57.0064 4.79667 56.6665 4.93175 55.9188C5.13437 54.9672 4.05373 54.3554 3.10817 54.0835C2.16261 53.8796 1.01444 53.4718 0.946895 52.5201C1.08198 52.1123 2.02753 52.3162 2.50031 51.9764C3.04063 51.5685 2.77047 50.7528 2.36523 50.277C1.95999 49.8012 1.35213 49.4614 1.14952 48.8496C0.811816 47.898 1.68983 46.8784 2.63539 46.5385C3.58095 46.2666 4.66159 46.4026 5.67469 46.4026C9.45692 46.3346 12.8339 43.5477 16.6161 43.7516C19.723 43.8876 21.8167 47.2862 25.5314 45.247C26.6796 44.7712 27.4225 43.4797 27.6252 42.2562C27.8278 40.9647 27.5576 39.6732 27.1524 38.4497C26.0717 34.8472 24.3157 31.4485 23.3701 27.846C22.4246 24.1754 22.4921 20.0291 24.7209 17.0383C24.856 16.8343 25.1262 16.6304 25.3288 16.6984C25.4639 16.6984 25.599 16.9023 25.734 17.0383C26.4094 17.9899 27.0173 18.9415 27.6927 19.8931C28.4356 18.7376 29.1786 17.65 29.9215 16.4945C30.1917 16.0866 30.5969 15.5428 31.0697 15.5428C31.4074 15.5428 31.6775 15.6788 31.8802 15.8827C33.231 16.9703 33.5687 18.8055 34.2441 20.4369C34.3116 20.6408 34.4467 20.9127 34.6493 20.9807C34.9195 21.1846 35.3247 21.0487 35.5949 20.9127C36.3378 20.5049 36.743 19.6892 37.3509 19.0774C37.9588 18.4657 39.1069 18.1938 39.6473 18.8735C40.2551 19.6892 39.5122 21.1846 40.3902 21.7284C41.3357 22.2722 42.2813 20.7088 43.2944 20.7768C44.375 20.8447 44.6452 22.2722 44.5101 23.3597C44.375 24.4473 44.3075 25.8068 45.3206 26.2146C47.1442 26.9623 48.4274 22.9519 50.1835 23.8355C51.129 24.3114 50.9264 25.6708 50.5887 26.6224C50.251 27.5741 49.9809 28.9335 50.9264 29.4773C52.2772 30.225 53.9657 27.9819 55.249 28.7976C56.127 29.3414 55.8568 30.6328 55.5191 31.5165C55.1814 32.4681 54.8437 33.6916 55.5867 34.3034C56.127 34.7792 56.9375 34.6432 57.6129 34.6432C58.2883 34.6432 59.1663 34.9151 59.2338 35.5949Z" fill="white"/>
<path d="M25.8016 45.7228C27.6927 44.9072 28.5032 42.8 28.4356 40.8968C28.3681 38.5177 27.4901 36.1387 26.6796 33.8955C25.1262 29.8851 23.3026 25.3989 24.1806 21.0487C24.3832 19.9611 24.7885 18.9415 25.4639 17.9899C25.4639 17.9899 25.734 17.65 25.6665 17.65C25.3963 17.65 25.1262 17.65 24.856 17.65C24.9236 17.718 24.9236 17.718 24.9911 17.786C25.0586 18.0578 25.4639 18.3977 25.599 18.6016C26.0717 19.2134 26.477 19.7572 26.9498 20.3689C27.2875 20.8447 28.0979 20.9807 28.4356 20.3689C28.8409 19.6892 29.1786 19.0095 29.6514 18.3977C29.854 17.9899 30.1241 17.65 30.3943 17.3101C30.4618 17.2422 30.8671 16.5624 31.0021 16.5624C31.3398 16.5624 31.8802 17.582 32.0152 17.8539C32.3529 18.4657 32.488 19.0774 32.6906 19.6892C33.0959 21.0487 33.7037 22.68 35.4598 22.2042C36.0676 22.0683 36.608 21.5924 37.0807 21.1846C37.486 20.7088 37.8237 20.0291 38.364 19.6892C38.7692 19.4853 38.8368 19.4173 38.9043 19.8931C39.0394 20.4369 38.9719 21.0487 39.1745 21.5924C39.6473 22.612 40.7954 22.748 41.6735 22.2722C42.0787 22.0683 42.4839 21.5924 42.8892 21.5245C43.3619 21.3885 43.4295 21.9323 43.4295 22.3401C43.4295 23.4957 43.0242 24.6512 43.3619 25.7388C43.7672 26.8943 44.8478 27.5741 46.0635 27.3701C46.9416 27.1662 47.617 26.5545 48.2924 25.9427C48.5625 25.6708 48.8327 25.331 49.1704 25.127C49.3055 25.0591 49.3055 24.9911 49.4405 24.9231C49.6432 24.7872 49.4405 24.9231 49.4405 24.8551C49.4405 24.7872 49.5081 24.9231 49.5081 24.9911C49.5081 25.195 49.5756 25.4669 49.5081 25.6708C49.4405 26.2826 49.2379 26.8264 49.1028 27.3701C48.9678 28.5257 49.1704 29.8851 50.3861 30.361C51.3992 30.7688 52.2772 30.225 53.1552 29.7492C53.4929 29.5453 54.0332 29.2734 54.3709 29.3414C55.0463 29.4773 54.9113 30.293 54.7762 30.8368C54.506 31.9243 53.8982 33.0799 54.4385 34.2354C55.0463 35.5949 56.3296 35.323 57.5453 35.5269C57.6804 35.5269 58.0856 35.5949 58.1532 35.7988C58.0856 35.6628 58.0856 35.8668 58.0181 35.9347C57.6804 36.2746 57.3427 36.6145 57.005 37.0223C56.3296 37.906 56.2621 39.0615 57.1401 39.8772C57.4778 40.217 57.9506 40.353 58.3558 40.5569C58.5584 40.6249 59.2338 40.7608 59.3014 40.8968C59.2338 40.7608 59.3014 40.6928 59.1663 41.0327C59.0312 41.3046 59.0312 41.7124 59.0987 42.0523C59.2338 42.732 59.7066 43.2078 60.382 43.4797C60.7197 43.6157 61.4626 43.5477 61.6653 43.8196C62.0705 44.2954 61.5302 45.0431 61.26 45.383C60.3145 46.4705 59.0312 47.2862 57.8155 48.0339C56.5998 48.7816 55.249 49.4614 53.8306 49.8692C52.4798 50.277 50.9939 50.4809 49.5756 50.413C48.0897 50.345 46.6039 50.0051 45.118 49.6653C42.3488 49.1215 39.3096 48.6457 36.8106 50.277C34.7168 51.6365 33.5687 53.9476 33.0959 56.3946C32.5556 59.3174 33.1634 62.1723 33.7713 65.0272C34.4467 68.2219 34.987 71.4166 34.3791 74.7473C34.109 76.2427 33.7037 77.7381 32.9608 79.0976C32.6906 79.5734 32.3529 80.1851 31.8126 80.3211C31.2723 80.457 30.9346 79.9812 30.6644 79.5054C30.1241 78.4858 30.1241 77.2623 29.6514 76.2427C29.1786 75.0872 28.3006 74.2035 27.0173 74.0676C25.8691 73.9316 24.7885 74.5434 23.9105 75.2231C23.5052 75.563 23.1 75.9708 22.6947 76.2427C22.4246 76.4466 21.7492 76.9904 21.3439 76.8545C20.7361 76.6505 21.0738 75.0192 21.1413 74.6113C21.3439 73.7957 20.601 73.048 19.7905 73.2519C18.9125 73.4558 18.0345 73.6597 17.0889 73.7957C16.4811 73.8636 15.8057 73.9996 15.1978 73.7957C15.1303 73.7957 14.9952 73.7277 14.9952 73.6597C15.0627 73.7277 14.9952 73.7957 15.0627 73.6597C15.0627 73.5238 15.3329 73.3199 15.4004 73.2519C15.8057 72.912 16.2109 72.5722 16.4811 72.0963C17.0889 71.0088 16.4811 69.7173 15.3329 69.3095C14.7926 69.1055 14.1847 69.1055 13.6444 69.1735C13.3742 69.1735 12.3611 69.3774 12.2261 68.9696C12.091 69.3095 11.9559 69.6493 11.8208 69.9892C13.4418 68.9016 13.5093 66.2507 11.7533 65.1631C10.6051 64.4834 9.45692 64.8232 8.17366 64.8232C7.9035 64.8232 7.43072 64.8232 7.22811 64.5513C7.09303 64.3474 7.29565 64.2115 7.43073 64.0076C8.03858 63.3278 8.71398 62.6481 8.71398 61.6965C8.71398 60.6089 7.97104 59.8612 7.02549 59.4534C6.28255 59.1135 4.99929 59.1815 4.39143 58.5697C4.59405 58.0939 4.66159 58.0939 4.93175 57.822C5.26945 57.4822 5.60715 57.1423 5.80977 56.6665C6.21501 55.6469 5.74223 54.6953 4.93175 54.0835C4.12127 53.5397 3.04063 53.5397 2.29769 52.9959C2.29769 52.9959 1.95999 52.7241 2.02753 52.7241C1.95999 52.792 1.95999 52.928 1.89245 52.9959C1.68983 53.2678 1.68983 53.3358 1.82491 53.2678L2.02753 53.1999C2.50031 53.0639 3.04063 52.928 3.37833 52.5881C4.12127 51.7724 3.91865 50.5489 3.31079 49.7332C2.83801 49.0535 1.62229 48.3738 2.77047 47.6941C3.78357 47.0823 5.33699 47.4901 6.48517 47.4222C8.9166 47.1503 11.0779 46.0627 13.3742 45.315C14.5224 44.9751 15.7381 44.6353 16.9538 44.8392C17.8994 44.9751 18.7774 45.451 19.6554 45.8588C20.601 46.3346 21.5466 46.7424 22.6272 46.8784C23.8429 47.0143 24.9911 46.6745 26.0717 46.1307C27.2199 45.5189 26.2068 43.7516 25.0586 44.3634C23.2351 45.315 21.7492 44.5673 20.0607 43.7516C18.102 42.8 16.2109 42.4601 14.0496 43.0039C11.7533 43.5477 9.65954 44.7032 7.36318 45.1791C4.93175 45.5869 1.95999 44.4993 0.406576 46.9464C-0.268823 47.966 -0.0662031 49.2574 0.744276 50.1411C1.08198 50.4809 1.48721 50.7528 1.75737 51.1607C1.95999 51.4326 1.68983 51.2966 1.89245 51.2287C1.68983 51.2966 1.48721 51.2966 1.28459 51.3646C0.271496 51.7045 -0.268823 52.6561 0.271496 53.6757C0.676736 54.5593 1.68983 54.9672 2.56785 55.2391C2.97309 55.375 3.44587 55.443 3.85111 55.7149C4.25635 55.9868 4.12127 56.0547 3.85111 56.3946C3.17571 57.0743 2.56785 57.89 2.90555 58.9096C3.24325 59.8612 4.25635 60.405 5.13437 60.7449C5.53961 60.8808 7.16057 61.0168 7.16057 61.6285C7.16057 61.8324 6.62025 62.2403 6.48517 62.4442C6.14747 62.852 5.80977 63.2599 5.60715 63.7357C5.26945 64.8912 5.87731 65.9788 6.89041 66.5226C8.10612 67.1343 9.32184 66.7945 10.6726 66.8624C11.6182 66.8624 11.9559 67.882 11.213 68.4938C11.0103 68.6977 10.8753 69.1055 11.0103 69.3774C11.5507 70.9408 13.1041 70.8728 14.4549 70.8728C14.725 70.8728 15.0627 70.8728 15.2654 70.9408C15.468 71.0768 15.4004 71.0088 15.3329 71.1447C15.0627 71.6205 14.4549 71.9604 14.1172 72.4362C13.1716 73.7277 13.9146 75.2231 15.3329 75.6989C16.1434 75.9708 16.9538 75.9028 17.7643 75.8349C18.845 75.6989 19.8581 75.563 20.8712 75.3591C20.3984 74.8832 19.9931 74.4754 19.5204 73.9996C19.2502 75.0872 19.1151 76.2427 19.4528 77.3303C19.8581 78.6218 21.0738 79.3015 22.357 79.0976C23.5728 78.8936 24.5183 78.078 25.4639 77.3303C26.0042 76.9224 26.8147 75.9028 27.5576 76.3107C28.4356 76.7185 28.6383 78.2819 28.9084 79.0976C29.2461 80.1851 29.9215 81.2727 30.9346 81.7485C33.6362 82.972 34.987 79.4374 35.6624 77.4662C36.608 74.4754 36.8106 71.2127 36.4053 68.0859C36.0001 65.0272 34.987 62.0363 35.0545 58.9096C35.0545 56.5305 35.7975 54.0155 37.6211 52.3842C39.7823 50.4809 42.8216 51.0927 45.3881 51.6365C48.3599 52.2482 51.129 52.6561 54.1008 51.9084C56.8699 51.1607 59.3014 49.7332 61.5302 47.966C62.5433 47.1503 63.6914 46.1987 63.9616 44.7712C64.1642 43.5477 63.5564 42.2562 62.3407 41.7804C62.2056 41.7124 61.7328 41.5085 61.5977 41.5765C61.5977 41.5765 61.4626 41.6445 61.5302 41.6445C61.7328 41.5765 61.3276 42.0523 61.5977 41.7124C61.9354 41.3046 61.7328 40.353 61.5302 39.9451C61.0574 39.0615 60.1118 38.8576 59.2338 38.5857C58.9637 38.5177 58.8286 38.3138 58.8286 38.5857C58.8286 38.2458 59.4364 37.906 59.5715 37.6341C60.2469 36.8184 60.5846 35.5949 59.7066 34.7792C59.3014 34.3714 58.761 34.2354 58.2207 34.1674C57.6129 34.0995 56.9375 34.3714 56.3296 34.2354C55.0463 33.9635 56.3971 31.5165 56.4647 30.7008C56.5998 29.6812 56.1945 28.5937 55.1139 28.3218C54.1683 28.0499 53.2903 28.5937 52.4123 28.9335C52.1421 29.0015 51.6018 29.2734 51.3992 29.0015C51.129 28.7296 51.3316 27.9819 51.4667 27.642C51.8044 26.4865 52.3447 25.263 51.7369 24.1074C51.2641 23.1558 50.1835 22.612 49.1028 22.8839C48.2248 23.0878 47.5494 23.8355 46.9416 24.4473C46.7389 24.7192 46.4012 24.9911 46.1986 25.195C46.1311 25.263 45.8609 25.3989 45.9285 25.3989C45.7934 25.4669 45.7934 25.3989 45.7934 25.3989C45.2531 24.7872 45.6583 23.4957 45.5908 22.748C45.4557 21.7964 44.9154 20.7088 43.9023 20.4369C43.4295 20.301 42.9567 20.3689 42.5515 20.5049C42.0787 20.7088 41.6059 21.1846 41.1331 21.3205C40.7279 21.3885 40.863 20.9807 40.9305 20.6408C40.9305 20.097 40.9981 19.4853 40.7279 19.0095C40.1876 17.718 38.6342 17.5141 37.486 18.1258C36.9457 18.3977 36.5404 18.8735 36.1352 19.3493C35.865 19.6892 35.3922 20.4369 34.9195 20.3689C35.1221 20.4369 35.3247 20.5049 35.5273 20.5049C35.2572 20.3689 35.0545 19.4173 34.9195 19.1454C34.7168 18.6016 34.5142 18.0578 34.2441 17.5141C33.7713 16.5624 33.0959 15.6108 32.0828 15.203C30.9346 14.6592 29.9215 15.271 29.3137 16.2906C28.976 16.8343 28.6383 17.4461 28.3681 17.9899C27.9629 18.6696 27.5576 19.2814 27.0848 19.8931C27.5576 19.8931 28.0304 19.8931 28.5707 19.8931C28.233 19.3493 27.9629 18.8055 27.6252 18.2618C27.2875 17.718 27.0173 16.9703 26.6121 16.4945C25.734 15.4749 24.5183 16.0866 23.8429 16.9703C22.4921 18.8055 21.8843 21.1166 21.8167 23.3597C21.6141 28.3897 23.978 33.0119 25.8016 37.5661C26.6796 39.8092 28.1655 43.6837 25.3963 45.1791C24.5183 45.1111 25.1262 45.9947 25.8016 45.7228Z" fill="#464646"/>
<path d="M14.59 55.2391C14.8601 55.0351 15.1978 54.8992 15.468 54.7632C15.7381 54.6273 16.0083 54.4234 16.2785 54.2874C16.8188 53.9476 17.4266 53.6077 18.0345 53.3358C19.1827 52.7241 20.3308 52.2482 21.479 51.7045C23.8429 50.6849 26.2744 49.5973 28.3006 48.0339C32.5556 44.7032 34.9195 39.2654 34.7168 33.8276C34.5818 30.4969 33.5687 27.3022 31.8802 24.4473C31.4074 23.6996 30.3943 24.3793 30.732 25.127C32.8933 29.9531 33.4336 35.6628 31.2723 40.6249C30.2592 42.868 28.7733 44.9751 26.8147 46.4705C24.9236 47.898 22.7623 48.8496 20.601 49.8692C19.3853 50.4809 18.102 51.0927 16.9538 51.8404C16.4135 52.1803 15.8732 52.5881 15.4004 52.9959C15.1978 53.1999 14.9277 53.4038 14.725 53.6757C14.4549 53.9476 14.3198 54.3554 14.0496 54.6273C13.5769 55.0351 14.1847 55.6469 14.59 55.2391Z" fill="#464646"/>
<path d="M30.0566 63.5318C31.3398 61.6285 31.2048 58.8416 31.2723 56.5985C31.3398 54.2195 31.3398 51.9084 32.0828 49.5973C33.4336 45.451 36.6755 42.4601 40.5928 40.7608C43.0918 39.7412 45.7258 39.2654 48.3599 38.7896C49.5756 38.5857 49.0353 36.8184 47.8871 36.9543C43.2944 37.6341 38.5666 39.6053 35.0545 42.6641C33.4336 44.0235 31.8802 45.7228 30.8671 47.6261C29.7189 49.7332 29.3136 51.9764 29.2461 54.4234C29.1786 55.8508 29.3137 57.2782 29.3137 58.7737C29.3137 60.2691 29.1786 61.7645 29.2461 63.2599C29.1786 63.8036 29.7864 63.9396 30.0566 63.5318Z" fill="#464646"/>
<path d="M37.2158 28.1858C37.1483 29.4773 36.9457 30.7688 36.8106 32.0603C36.743 32.672 36.6755 33.3518 36.5404 33.9635C36.4729 34.5753 36.2027 35.255 36.2027 35.8668C36.2027 36.6145 37.2158 36.6824 37.4184 36.0027C37.6211 35.391 37.6886 34.7112 37.7561 34.0995C37.8237 33.4197 37.8912 32.808 37.9588 32.1282C38.0938 30.8368 37.9588 29.5453 37.9588 28.1858C38.0263 27.642 37.2158 27.642 37.2158 28.1858Z" fill="#464646"/>
<path d="M38.9719 30.4969C38.9043 30.9047 38.7692 31.2446 38.7017 31.6524C38.6342 32.0603 38.5666 32.4681 38.4991 32.808C38.364 33.6237 38.1614 34.3714 38.0263 35.1191C37.9588 35.4589 38.1614 35.8668 38.4991 35.9347C38.8368 36.0027 39.242 35.7988 39.3096 35.4589C39.5122 34.6432 39.6473 33.8276 39.7823 32.9439C39.8499 32.5361 39.9174 32.1282 39.9174 31.7884C39.9174 31.3805 39.8499 30.9727 39.8499 30.5649C39.7148 30.157 39.0394 30.0211 38.9719 30.4969Z" fill="#464646"/>
<path d="M45.7934 48.5097C46.4012 48.5777 47.0091 48.8496 47.617 48.8496C48.2924 48.9176 48.9678 48.9176 49.5756 48.8496C50.7238 48.7816 51.872 48.5777 52.9526 48.2378C54.0332 47.898 55.0463 47.4901 56.0594 47.0143C56.5998 46.7424 57.1401 46.4705 57.6804 46.1987C58.1532 45.9268 58.761 45.6549 59.1663 45.247C59.5715 44.8392 59.1663 44.1595 58.626 44.2954C57.6804 44.5673 56.8024 45.315 55.8568 45.7228C54.8437 46.1987 53.8306 46.6745 52.75 46.9464C51.6693 47.2862 50.5887 47.4901 49.4405 47.5581C48.8327 47.6261 48.2924 47.6261 47.752 47.6261C47.1442 47.6261 46.5363 47.762 45.9285 47.762C45.5232 47.83 45.4557 48.4418 45.7934 48.5097Z" fill="#464646"/>
<path d="M31.7451 64.6873C31.8802 65.6389 31.9477 66.5905 32.0828 67.5422C32.2179 68.4258 32.3529 69.3095 32.4205 70.1931C32.488 71.8924 32.2179 73.5918 31.5425 75.2231C31.2048 76.0388 32.488 76.3786 32.8257 75.563C33.5011 73.8636 33.8388 72.0284 33.7037 70.1931C33.5687 68.2219 33.0283 66.3866 32.6231 64.4154C32.5556 63.8716 31.6775 64.1435 31.7451 64.6873Z" fill="#464646"/>
<path d="M156.473 386.221C155.873 385.721 155.073 385.921 154.373 386.021C150.973 386.521 147.573 386.421 144.273 385.621C142.473 385.221 140.573 384.521 139.373 383.121C138.173 381.721 137.873 379.321 139.073 378.021C139.673 377.321 140.673 377.021 141.573 376.721C147.573 374.721 153.973 373.521 160.273 373.421C166.973 373.321 174.373 374.121 179.873 370.221C180.873 369.521 181.973 368.221 181.473 367.021C181.173 366.321 180.573 365.921 179.873 365.621C174.473 362.921 167.773 362.921 163.173 359.021C162.373 358.321 161.673 357.421 161.973 356.421C162.173 355.721 162.873 355.221 163.573 354.921C173.773 349.621 186.073 352.221 197.173 355.321C197.773 355.421 198.373 355.621 198.873 355.421C199.873 355.121 200.173 353.921 199.973 352.921C199.673 351.921 198.973 351.221 198.273 350.521C194.373 346.521 190.273 342.721 185.873 339.221C184.673 338.221 183.373 336.921 183.873 335.421C184.173 334.721 184.773 334.221 185.373 333.821C189.673 331.021 195.073 328.821 199.773 330.921C203.373 332.621 205.373 336.321 208.273 339.021C210.973 341.521 214.573 343.121 218.273 343.521C218.873 343.521 219.573 343.621 220.173 343.321C222.173 342.221 220.573 339.221 221.173 337.021C221.573 335.421 223.373 334.321 225.073 334.221C226.773 334.121 228.473 334.721 229.973 335.421C235.173 337.721 240.373 341.021 245.973 341.221V342.421C245.073 349.521 243.673 356.521 241.873 363.421C241.573 364.721 241.073 366.221 240.173 367.221C239.273 368.321 237.673 368.921 236.373 368.221C233.873 366.921 235.273 363.121 234.473 360.421C234.273 359.821 233.973 359.321 233.473 359.021C232.273 358.521 231.173 360.121 230.873 361.321C228.873 367.921 228.873 374.821 227.873 381.621C226.873 388.321 224.873 395.321 219.873 400.021C218.173 401.621 215.673 403.021 213.473 402.221C211.573 401.521 210.473 399.621 210.273 397.621C210.073 395.721 210.573 393.721 211.073 391.821C212.273 387.421 213.373 383.021 214.573 378.621C214.973 377.221 215.273 375.821 215.073 374.421C214.873 373.021 213.873 371.621 212.473 371.321C210.673 371.021 209.073 372.521 208.073 374.121C204.773 379.221 203.773 385.321 202.173 391.221C200.573 397.021 198.273 403.121 193.273 406.621C192.773 406.921 192.273 407.321 191.773 407.321C190.173 407.521 189.073 405.621 188.973 404.021C188.873 402.421 189.273 400.721 188.773 399.221C188.473 398.321 187.573 397.421 186.673 397.621C186.273 397.721 185.873 398.021 185.573 398.421C182.573 401.621 180.873 406.221 177.073 408.421C176.373 408.821 175.473 409.221 174.673 408.821C172.873 408.121 173.573 405.321 174.473 403.621C175.573 401.621 176.373 399.421 176.973 397.221C177.173 396.321 177.273 395.121 176.473 394.721C175.873 394.421 175.173 394.721 174.573 395.121C166.973 399.621 161.173 406.621 154.373 412.221C151.573 414.521 148.373 416.721 144.773 416.621C143.173 416.521 141.573 416.021 139.973 415.421C136.473 414.121 132.873 412.921 129.373 411.621C134.173 401.221 146.373 396.921 155.373 389.821C156.473 388.821 157.473 387.121 156.473 386.221Z" fill="#6AAC66"/>
<path d="M248.073 340.921C247.373 341.021 246.673 341.021 245.973 341.021L248.073 340.921Z" fill="#6AAC66"/>
<path d="M270.673 306.421C268.473 309.421 266.773 312.921 264.873 316.121C262.973 319.421 261.073 322.621 258.973 325.821C254.773 332.021 249.973 337.921 243.973 342.521C237.573 347.421 230.273 350.821 223.073 354.321C215.673 357.921 208.473 361.721 201.473 366.121C193.673 370.921 186.273 376.421 179.273 382.321C178.473 383.021 179.673 384.121 180.473 383.521C193.173 372.821 207.473 364.121 222.473 357.021C229.873 353.521 237.373 350.421 244.173 345.821C250.473 341.521 255.673 335.921 260.073 329.621C262.473 326.221 264.673 322.521 266.673 318.821C268.773 315.121 270.873 311.221 272.173 307.121C272.573 306.021 271.173 305.621 270.673 306.421Z" fill="#212121"/>
<path d="M248.073 340.221C242.973 340.721 238.273 338.321 233.873 336.121C230.173 334.321 225.073 330.821 221.273 334.321C219.673 335.821 219.673 337.821 219.773 339.821C219.773 340.321 220.073 341.421 219.673 341.821C219.073 342.321 217.273 341.721 216.573 341.621C214.273 341.121 212.173 340.021 210.273 338.621C208.573 337.221 207.273 335.421 205.773 333.821C202.773 330.421 199.173 328.021 194.473 328.521C192.073 328.821 189.773 329.621 187.573 330.721C185.773 331.621 183.273 332.821 182.473 334.821C181.573 337.121 183.473 339.021 185.173 340.321C187.373 342.021 189.473 343.721 191.573 345.621C193.573 347.421 195.473 349.221 197.373 351.021C198.073 351.721 199.373 352.721 198.973 353.921C198.573 355.221 196.673 354.221 195.773 354.021C186.573 351.621 176.773 349.421 167.373 352.221C165.473 352.821 162.873 353.521 161.473 354.921C159.773 356.521 160.973 358.821 162.473 360.121C165.973 363.021 170.473 364.021 174.773 365.321C175.773 365.621 176.673 365.921 177.673 366.321C178.073 366.521 179.873 367.021 179.973 367.621C180.073 368.321 178.273 369.221 177.873 369.521C176.873 370.121 175.773 370.521 174.673 370.821C170.273 372.021 165.673 371.721 161.073 371.721C155.573 371.821 150.173 372.621 144.973 374.121C142.873 374.721 139.973 375.321 138.373 376.921C136.973 378.321 136.773 380.521 137.573 382.421C139.373 386.721 145.573 387.421 149.573 387.521C150.873 387.521 152.073 387.521 153.373 387.321C153.973 387.221 154.473 387.121 155.073 387.121C155.573 387.121 155.873 387.021 155.573 387.621C155.173 388.521 154.173 389.021 153.473 389.621C152.573 390.221 151.673 390.921 150.773 391.521C144.073 395.921 136.473 399.621 131.373 405.921C130.073 407.421 129.073 409.121 128.173 410.821C127.773 411.721 128.073 412.621 129.073 412.921C131.573 413.821 134.173 414.821 136.673 415.721C139.073 416.621 141.473 417.621 143.973 417.921C148.673 418.421 152.673 415.521 155.973 412.621C159.573 409.521 162.773 406.121 166.273 403.021C167.973 401.421 169.773 399.921 171.673 398.521C172.573 397.821 173.473 397.221 174.373 396.621C174.473 396.521 175.673 395.721 175.873 395.821C175.973 395.921 175.773 396.621 175.773 396.821C175.173 399.221 173.973 401.421 173.073 403.621C172.473 405.121 171.873 407.121 172.673 408.621C173.773 410.521 176.073 410.421 177.773 409.421C179.473 408.521 180.773 407.021 181.973 405.521C183.173 403.921 184.273 402.221 185.473 400.621C185.673 400.321 186.773 398.821 187.073 398.921C187.973 399.221 187.473 401.821 187.473 402.421C187.373 404.421 187.773 406.521 189.373 407.821C191.173 409.221 193.173 408.421 194.773 407.121C201.773 401.521 203.073 392.121 205.273 384.121C205.873 381.821 206.573 379.521 207.573 377.321C208.373 375.721 209.673 372.421 211.773 372.221C212.773 372.121 213.473 373.021 213.773 373.921C214.173 375.121 213.773 376.521 213.473 377.721C212.773 380.321 211.973 383.021 211.173 385.621C210.473 388.221 209.673 390.821 209.073 393.421C208.573 395.621 208.473 398.021 209.473 400.121C210.273 402.021 211.973 403.421 213.973 403.621C216.073 403.821 218.073 402.721 219.673 401.421C226.673 395.821 228.273 385.921 229.173 377.621C229.673 372.521 229.973 367.321 231.273 362.421C231.473 361.821 231.873 359.721 232.773 359.621C233.773 359.521 233.773 361.721 233.773 362.321C233.773 363.921 233.573 365.721 234.373 367.221C235.173 368.721 236.973 369.421 238.573 368.921C240.573 368.321 241.673 366.621 242.273 364.821C243.073 362.521 243.573 360.121 244.173 357.721C244.773 355.121 245.373 352.521 245.873 349.921C246.373 347.321 246.773 344.721 247.073 342.121C247.273 340.521 244.773 340.521 244.573 342.121C243.873 347.421 242.973 352.621 241.873 357.821C241.373 360.121 240.973 362.621 240.073 364.821C239.673 365.821 239.073 366.721 237.973 367.121C236.973 367.421 236.173 367.021 235.773 366.121C235.173 364.521 235.573 362.621 235.373 361.021C235.173 359.521 234.373 357.621 232.473 357.821C230.573 358.121 229.873 360.321 229.473 361.821C228.773 364.221 228.373 366.621 228.073 369.021C226.873 378.021 227.073 387.821 221.873 395.721C220.073 398.421 214.873 404.021 212.073 399.321C210.873 397.321 211.473 394.921 211.973 392.921C212.673 390.321 213.373 387.621 213.973 385.021C214.573 382.421 215.373 379.921 215.773 377.321C216.173 375.321 216.173 373.121 214.773 371.521C213.473 370.021 211.473 369.621 209.673 370.521C207.773 371.521 206.573 373.521 205.673 375.321C201.473 383.221 201.473 392.621 196.873 400.221C195.873 401.921 194.573 403.521 192.973 404.721C192.473 405.121 191.573 406.021 190.873 405.621C190.273 405.221 190.073 404.121 190.073 403.521C190.073 401.221 190.573 398.721 188.773 396.921C187.073 395.221 185.073 396.221 183.773 397.721C181.273 400.621 179.773 404.721 176.473 406.821C175.973 407.121 174.873 407.921 174.473 407.121C174.173 406.521 174.673 405.421 174.873 404.821C175.773 402.621 176.873 400.521 177.573 398.221C178.073 396.621 178.473 394.421 176.773 393.421C174.873 392.321 172.373 394.421 170.873 395.421C167.073 398.021 163.773 401.021 160.473 404.121C157.173 407.221 153.873 410.621 150.073 413.021C148.273 414.121 146.173 415.021 143.973 414.821C141.473 414.521 139.173 413.321 136.873 412.521C134.373 411.621 131.873 410.821 129.473 409.921C129.773 410.621 130.073 411.321 130.373 412.021C133.773 404.621 140.973 400.321 147.673 396.121C149.473 395.021 151.173 393.921 152.973 392.721C154.473 391.621 156.373 390.621 157.373 389.021C158.473 387.321 158.073 385.021 155.873 384.621C154.873 384.421 153.773 384.721 152.873 384.921C151.573 385.021 150.173 385.121 148.873 385.021C146.473 384.921 143.773 384.621 141.773 383.321C140.273 382.521 138.473 379.921 140.373 378.521C141.273 377.821 142.573 377.621 143.673 377.321C144.973 376.921 146.373 376.621 147.673 376.321C150.273 375.721 152.973 375.321 155.673 375.121C160.473 374.721 165.373 375.021 170.173 374.721C172.373 374.521 174.673 374.221 176.773 373.521C178.873 372.821 181.173 371.721 182.473 369.921C183.973 367.921 183.373 365.521 181.173 364.321C179.273 363.221 177.073 362.621 174.973 362.121C172.873 361.521 170.673 361.121 168.573 360.421C167.573 360.121 166.573 359.621 165.673 359.121C164.873 358.721 163.373 357.921 163.073 357.021C162.573 355.421 167.773 354.021 168.873 353.721C171.173 353.121 173.573 352.721 175.873 352.721C180.773 352.521 185.673 353.221 190.373 354.421C192.673 355.021 194.973 355.821 197.273 356.321C199.073 356.721 200.673 355.721 200.773 353.821C200.973 351.621 198.873 349.921 197.473 348.421C195.673 346.521 193.773 344.721 191.773 342.921C189.873 341.121 187.773 339.521 185.973 337.721C185.373 337.121 184.673 336.321 185.473 335.621C186.373 334.821 187.573 334.221 188.673 333.721C192.573 331.621 197.373 330.621 201.073 333.821C202.673 335.121 203.873 336.821 205.273 338.321C206.773 340.021 208.473 341.521 210.473 342.721C212.373 343.821 214.573 344.621 216.773 345.021C218.873 345.321 221.473 345.421 222.373 343.021C222.973 341.321 222.173 339.521 222.473 337.821C222.773 335.321 226.073 335.421 227.873 335.921C232.573 337.221 236.673 340.121 241.373 341.421C243.573 342.021 245.773 342.321 248.073 342.021C248.973 341.621 248.973 340.121 248.073 340.221Z" fill="#212121"/>
<path d="M216.573 350.721C215.473 350.121 214.473 349.321 213.373 348.621C212.873 348.321 212.373 347.921 211.873 347.521C211.373 347.121 210.873 346.621 210.273 346.421C209.873 346.221 209.473 346.221 209.273 346.521C208.973 346.821 208.973 347.221 209.173 347.521C209.573 348.121 210.173 348.521 210.773 348.921C211.273 349.321 211.873 349.621 212.473 350.021C213.673 350.721 214.873 351.121 216.173 351.621C216.773 351.921 217.173 350.921 216.573 350.721Z" fill="#212121"/>
<path d="M205.873 343.221C204.673 341.221 203.073 339.521 201.173 338.221C199.273 336.921 196.773 336.121 194.473 336.021C193.773 336.021 193.273 336.621 193.273 337.221C193.273 337.921 193.873 338.421 194.473 338.421C198.273 338.821 202.373 340.621 204.773 343.821C205.173 344.521 206.273 343.921 205.873 343.221Z" fill="#212121"/>
<path d="M219.473 360.521C219.273 365.221 219.373 370.021 218.573 374.721C217.873 379.021 216.273 383.121 214.173 387.021C213.473 388.221 215.273 389.321 216.073 388.121C218.473 384.221 220.073 379.821 220.873 375.321C221.673 370.421 221.273 365.421 221.073 360.521C220.973 359.521 219.473 359.521 219.473 360.521Z" fill="#212121"/>
<path d="M198.673 374.621C197.673 377.821 196.373 380.921 195.073 384.021C194.473 385.421 193.873 387.021 193.073 388.321C192.973 388.421 192.873 388.621 192.773 388.721C193.073 389.021 193.173 389.021 193.073 388.821C193.073 388.721 193.073 388.321 193.073 388.221C193.073 387.521 193.073 386.821 192.773 386.121C192.373 384.921 191.273 383.821 189.873 383.821C188.473 383.821 187.573 384.921 186.973 386.021C186.173 387.321 185.573 388.721 184.773 389.921C183.873 391.221 182.873 391.921 181.373 392.321C180.273 392.621 180.473 394.321 181.673 394.321C184.873 394.421 186.773 390.921 188.073 388.521C188.473 387.821 188.773 387.021 189.373 386.421C189.873 385.821 190.473 386.121 190.673 386.821C191.073 388.021 190.473 389.421 191.473 390.421C192.573 391.521 193.973 390.921 194.773 389.921C195.773 388.521 196.373 386.721 197.073 385.221C198.473 381.921 199.373 378.521 200.173 375.121C200.473 374.121 198.973 373.721 198.673 374.621Z" fill="#212121"/>
<path d="M175.473 378.321C174.073 378.721 172.573 378.921 171.173 379.221C170.473 379.321 169.773 379.421 169.073 379.621C168.373 379.721 167.573 379.821 166.873 380.121C166.073 380.421 166.173 381.621 167.073 381.621C167.873 381.621 168.673 381.421 169.373 381.221C170.073 381.121 170.773 380.921 171.473 380.721C172.873 380.321 174.273 379.821 175.773 379.321C176.373 379.121 176.073 378.221 175.473 378.321Z" fill="#212121"/>
<path d="M161.273 381.121C158.173 381.521 154.973 381.621 151.873 382.321C150.773 382.521 150.973 384.421 152.173 384.321C155.373 384.021 158.373 383.121 161.473 382.521C162.173 382.321 162.073 381.021 161.273 381.121Z" fill="#212121"/>
<path d="M163.273 390.321C157.173 393.721 151.173 397.321 145.873 401.821C144.873 402.721 146.273 404.521 147.273 403.721C152.773 399.621 158.173 395.421 164.073 391.721C164.973 391.121 164.173 389.821 163.273 390.321Z" fill="#212121"/>
</svg>
