<svg width="80" height="80" viewBox="0 0 80 80" fill="none" xmlns="http://www.w3.org/2000/svg">
<path d="M55.3331 44.0087H70.3112C70.7119 44.0087 71.0806 43.7895 71.272 43.4375C71.4636 43.0854 71.447 42.6568 71.2294 42.3204L66.1472 34.4718C65.9456 34.1606 65.6 33.9726 65.2291 33.9726H55.3331C54.7291 33.9726 54.2394 34.4623 54.2394 35.0664V42.915C54.2394 43.5189 54.7291 44.0087 55.3331 44.0087ZM56.4269 36.1601H64.6342L68.3 41.8212H56.4269V36.1601ZM76.4745 57.4336V43.8122C76.4745 42.9908 76.2575 42.2562 75.8112 41.5672L69.4819 31.7926C68.7059 30.5943 67.4422 29.9072 66.0148 29.9072H52.3861V11.9973C52.3861 11.3933 51.8964 10.9036 51.2923 10.9036H12.7066C12.1025 10.9036 11.6128 11.3933 11.6128 11.9973V19.8581H2.5C1.89594 19.8581 1.40625 20.3478 1.40625 20.9518C1.40625 21.5559 1.89594 22.0456 2.5 22.0456H11.6128V23.2429C11.6128 23.847 12.1025 24.3367 12.7066 24.3367C13.3106 24.3367 13.8003 23.847 13.8003 23.2429V22.0456H18.9486C19.5527 22.0456 20.0423 21.5559 20.0423 20.9518C20.0423 20.3478 19.5527 19.8581 18.9486 19.8581H13.8003V13.0911H26.3717V21.0651C26.3717 21.6692 26.8614 22.1589 27.4655 22.1589H36.5331C37.1372 22.1589 37.6269 21.6692 37.6269 21.0651V13.0911H50.1984V49.4893H13.8003V42.7225H18.9486C19.5527 42.7225 20.0423 42.2328 20.0423 41.6287C20.0423 41.0247 19.5527 40.535 18.9486 40.535H13.8003V39.3376C13.8003 38.7336 13.3106 38.2439 12.7066 38.2439C12.1025 38.2439 11.6128 38.7336 11.6128 39.3376V40.535H2.5C1.89594 40.535 1.40625 41.0247 1.40625 41.6287C1.40625 42.2328 1.89594 42.7225 2.5 42.7225H11.6128V57.6286C10.718 58.0434 10.0944 58.9479 10.0944 59.9973V62.3389C10.0944 63.7792 11.2662 64.9509 12.7066 64.9509H19.5097C20.855 67.4181 23.4728 69.0961 26.4753 69.0961C29.4778 69.0961 32.0956 67.4183 33.4409 64.9509H54.6461C55.9914 67.4181 58.6092 69.0961 61.6117 69.0961C64.6142 69.0961 67.232 67.4183 68.5773 64.9509H75.9814C77.4217 64.9509 78.5934 63.779 78.5934 62.3389V59.9973C78.5938 58.7258 77.6797 57.6648 76.4745 57.4336ZM35.4394 19.9714H28.5592V13.0911H35.4394V19.9714ZM66.0147 32.0947C66.7059 32.0947 67.2698 32.4012 67.6456 32.9815L73.9752 42.7562C74.1937 43.0939 74.287 43.4097 74.287 43.8122V45.5622H72.1881C71.5841 45.5622 71.0944 46.0518 71.0944 46.6559C71.0944 47.26 71.5841 47.7497 72.1881 47.7497H74.287V57.3853H68.5777C67.2323 54.9179 64.6145 53.2401 61.6119 53.2401C58.6092 53.2401 55.9914 54.9181 54.6461 57.3853H52.3859V32.0947H66.0147ZM50.1986 51.677V57.3856H33.4411C32.0958 54.9183 29.478 53.2404 26.4753 53.2404C23.4727 53.2404 20.8548 54.9184 19.5095 57.3856H13.8002V51.677H50.1986ZM12.7066 62.7637C12.4723 62.7637 12.2819 62.5733 12.2819 62.3392V59.9976C12.2819 59.7675 12.4762 59.5731 12.7066 59.5731H18.7086C18.6028 60.0886 18.5473 60.6222 18.5473 61.1684C18.5473 61.7147 18.6028 62.2483 18.7086 62.7637H12.7066ZM26.4753 66.9089C23.31 66.9089 20.7348 64.3337 20.7348 61.1684C20.7348 58.0031 23.31 55.4279 26.4753 55.4279C29.6406 55.4279 32.2158 58.0031 32.2158 61.1684C32.2158 64.3337 29.6406 66.9089 26.4753 66.9089ZM34.242 62.7637C34.3478 62.2483 34.4033 61.7147 34.4033 61.1684C34.4033 60.6222 34.3478 60.0886 34.242 59.5731H53.8452C53.7394 60.0886 53.6839 60.6222 53.6839 61.1684C53.6839 61.7147 53.7394 62.2483 53.8452 62.7637H34.242ZM61.6119 66.9089C58.4466 66.9089 55.8714 64.3337 55.8714 61.1684C55.8714 58.0031 58.4466 55.4279 61.6119 55.4279C64.7772 55.4279 67.3523 58.0031 67.3523 61.1684C67.3523 64.3337 64.7772 66.9089 61.6119 66.9089ZM76.4062 62.339C76.4062 62.5733 76.2158 62.7636 75.9817 62.7636H69.3786C69.4844 62.2481 69.5398 61.7145 69.5398 61.1683C69.5398 60.622 69.4844 60.0884 69.3786 59.5729H75.9817C76.2119 59.5729 76.4062 59.7673 76.4062 59.9975V62.339ZM61.6119 57.7565C59.7306 57.7565 58.2002 59.287 58.2002 61.1683C58.2002 63.0495 59.7306 64.58 61.6119 64.58C63.4931 64.58 65.0236 63.0495 65.0236 61.1683C65.0236 59.2872 63.4931 57.7565 61.6119 57.7565ZM61.6119 62.3926C60.9369 62.3926 60.3877 61.8434 60.3877 61.1684C60.3877 60.4934 60.9369 59.9442 61.6119 59.9442C62.2869 59.9442 62.8361 60.4934 62.8361 61.1684C62.8361 61.8434 62.287 62.3926 61.6119 62.3926ZM26.4753 57.7565C24.5941 57.7565 23.0636 59.287 23.0636 61.1683C23.0636 63.0495 24.5941 64.58 26.4753 64.58C28.3566 64.58 29.887 63.0495 29.887 61.1683C29.887 59.2872 28.3566 57.7565 26.4753 57.7565ZM26.4753 62.3926C25.8003 62.3926 25.2511 61.8434 25.2511 61.1684C25.2511 60.4934 25.8003 59.9442 26.4753 59.9442C27.1503 59.9442 27.6995 60.4934 27.6995 61.1684C27.6995 61.8434 27.1505 62.3926 26.4753 62.3926ZM24.9098 34.7826V36.7789L30.4459 31.2903L24.9098 25.8017V27.7979C24.9098 28.402 24.4202 28.8917 23.8161 28.8917H7.16391C6.55984 28.8917 6.07016 28.402 6.07016 27.7979C6.07016 27.1939 6.55984 26.7042 7.16391 26.7042H22.7223V23.1772C22.7223 22.7356 22.9878 22.3373 23.3955 22.1676C23.8031 21.9978 24.2727 22.0897 24.5863 22.4006L32.7695 30.5137C32.9766 30.719 33.0931 30.9987 33.0931 31.2904C33.0931 31.5822 32.9766 31.8617 32.7695 32.0672L24.5863 40.1803C24.3772 40.3875 24.0989 40.4973 23.8158 40.4973C23.6742 40.4973 23.5314 40.4698 23.3955 40.4131C22.988 40.2433 22.7223 39.845 22.7223 39.4036V35.8765H7.16391C6.55984 35.8765 6.07016 35.3868 6.07016 34.7828C6.07016 34.1787 6.55984 33.689 7.16391 33.689H23.8161C24.4202 33.6889 24.9098 34.1786 24.9098 34.7826ZM59.6194 46.6561C59.6194 47.2601 59.1297 47.7498 58.5256 47.7498H55.333C54.7289 47.7498 54.2392 47.2601 54.2392 46.6561C54.2392 46.052 54.7289 45.5623 55.333 45.5623H58.5256C59.1298 45.5623 59.6194 46.052 59.6194 46.6561Z" fill="#212121"/>
</svg>
