<svg width="80" height="80" viewBox="0 0 80 80" fill="none" xmlns="http://www.w3.org/2000/svg">
<path d="M62.1252 6.63875C61.8437 6.45712 61.5279 6.33541 61.1973 6.28122C60.8668 6.22702 60.5286 6.2415 60.2039 6.32375C59.8718 6.40615 59.5598 6.5551 59.287 6.76158C59.0141 6.96807 58.786 7.22778 58.6164 7.525L56.7039 10.8888L43.3352 34.3875C43.2284 34.5775 43.1731 34.792 43.1748 35.0099C43.1766 35.2278 43.2352 35.4415 43.345 35.6298C43.4548 35.818 43.6119 35.9743 43.8007 36.0831C43.9895 36.1919 44.2035 36.2494 44.4214 36.25H75.0002C75.3381 36.2491 75.6725 36.1804 75.9834 36.0479C76.2943 35.9154 76.5754 35.7219 76.8102 35.4788C77.0419 35.2393 77.2225 34.9553 77.3412 34.644C77.4598 34.3326 77.5139 34.0004 77.5002 33.6675C77.3016 28.2575 75.8003 22.9754 73.1235 18.2698C70.4468 13.5642 66.6738 9.57419 62.1252 6.63875ZM46.5702 33.75L58.2314 13.25C61.6523 15.5076 64.4919 18.5409 66.5191 22.1031C68.5463 25.6654 69.7039 29.6559 69.8977 33.75H46.5702ZM75.0002 33.75H72.3864C72.1892 29.215 70.9124 24.7926 68.6622 20.8503C66.412 16.9081 63.2534 13.5598 59.4489 11.0838L60.7789 8.7425C64.9851 11.4606 68.4739 15.1528 70.9495 19.5061C73.4251 23.8594 74.8146 28.7455 75.0002 33.75Z" fill="#212121"/>
<path d="M55.9121 23.375C55.9195 24.1247 56.1486 24.8554 56.5705 25.4752C56.9924 26.0949 57.5882 26.576 58.283 26.8577C58.9777 27.1395 59.7403 27.2094 60.4747 27.0586C61.2091 26.9079 61.8825 26.5431 62.41 26.0104C62.9375 25.4777 63.2956 24.8008 63.4392 24.0649C63.5827 23.3291 63.5053 22.5672 63.2167 21.8753C62.9282 21.1833 62.4413 20.5922 61.8174 20.1764C61.1936 19.7607 60.4606 19.5388 59.7109 19.5388C58.6987 19.5447 57.7303 19.952 57.0181 20.6712C56.3059 21.3904 55.9081 22.3628 55.9121 23.375ZM61.0084 23.375C61.001 23.6302 60.9186 23.8776 60.7714 24.0862C60.6243 24.2948 60.4189 24.4554 60.1809 24.5479C59.943 24.6405 59.683 24.6608 59.4336 24.6065C59.1842 24.5521 58.9563 24.4254 58.7784 24.2423C58.6006 24.0591 58.4806 23.8276 58.4336 23.5766C58.3866 23.3257 58.4146 23.0665 58.5141 22.8314C58.6136 22.5962 58.7802 22.3957 58.9931 22.2547C59.2059 22.1137 59.4556 22.0386 59.7109 22.0388C60.06 22.0444 60.3926 22.1882 60.6359 22.4387C60.8791 22.6892 61.0131 23.0259 61.0084 23.375Z" fill="#212121"/>
<path d="M52.0664 28.5837H54.6152V31.0837H52.0664V28.5837Z" fill="#212121"/>
<path d="M63.5322 28.5837H66.081V31.0837H63.5322V28.5837Z" fill="#212121"/>
<path d="M66.0747 38.9263H37.6509L51.8822 13.915C52.0488 13.6207 52.1551 13.2961 52.1948 12.9602C52.2345 12.6243 52.2068 12.2839 52.1134 11.9588C52.024 11.6401 51.8709 11.3429 51.6633 11.0851C51.4558 10.8273 51.1981 10.6142 50.9059 10.4588C46.1641 7.93054 40.8734 6.6067 35.4997 6.60378C30.619 6.59289 25.799 7.68509 21.3997 9.79878C20.9391 10.0208 20.529 10.3351 20.1949 10.7221C19.8607 11.1092 19.6097 11.5607 19.4572 12.0488C18.9592 11.944 18.4449 11.9429 17.9464 12.0455C17.4479 12.1481 16.9759 12.3522 16.5597 12.645C12.5472 15.4866 9.20883 19.1759 6.78121 23.4516C4.3536 27.7272 2.89616 32.4845 2.5122 37.3863C2.47292 37.8917 2.53713 38.3997 2.7009 38.8794C2.86467 39.3592 3.12457 39.8004 3.4647 40.1763C3.12454 40.5524 2.86463 40.9938 2.70086 41.4738C2.53709 41.9537 2.47289 42.462 2.5122 42.9675C2.89593 47.87 4.35351 52.6279 6.78159 56.9041C9.20968 61.1802 12.5488 64.8698 16.5622 67.7113C16.9769 68.0072 17.4489 68.213 17.948 68.3154C18.447 68.4179 18.962 68.4148 19.4597 68.3063C19.613 68.7939 19.8644 69.245 20.1985 69.632C20.5325 70.0189 20.9422 70.3334 21.4022 70.5563C25.8052 72.6592 30.6228 73.7506 35.5022 73.7506C40.3816 73.7506 45.1992 72.6592 49.6022 70.5563C50.0622 70.3334 50.4719 70.0189 50.8059 69.632C51.1399 69.245 51.3914 68.7939 51.5447 68.3063C52.0424 68.4148 52.5574 68.4179 53.0564 68.3154C53.5555 68.213 54.0275 68.0072 54.4422 67.7113C58.6394 64.7109 62.0951 60.7906 64.5452 56.2501C66.9952 51.7096 68.3748 46.6691 68.5784 41.5138C68.5927 41.18 68.5386 40.8469 68.4196 40.5348C68.3005 40.2227 68.1189 39.9382 67.8859 39.6988C67.6511 39.4553 67.3698 39.2615 67.0587 39.1288C66.7476 38.9961 66.4129 38.9272 66.0747 38.9263ZM35.4997 37.6475L23.8447 17.1588C27.4479 15.2951 31.4455 14.3225 35.5022 14.3225C39.5589 14.3225 43.5564 15.2951 47.1597 17.1588L35.4997 37.6475ZM42.296 54.6475L47.1559 63.1913C43.5529 65.0547 39.5555 66.0272 35.4991 66.0273C31.4426 66.0272 27.4453 65.0547 23.8422 63.1913L28.726 54.6075L35.4997 42.7038L42.296 54.6475ZM21.8435 12.8C21.8917 12.6376 21.9733 12.4869 22.0831 12.3578C22.1929 12.2287 22.3284 12.1238 22.481 12.05C26.5434 10.1005 30.9937 9.09334 35.4997 9.10378C40.4545 9.10668 45.333 10.3239 49.7084 12.6488C49.7123 12.6584 49.7123 12.6692 49.7084 12.6788L48.3909 15C44.4244 12.8847 39.9982 11.7782 35.5028 11.7782C31.0075 11.7782 26.5812 12.8847 22.6147 15L21.9522 13.8375C21.8637 13.6814 21.8084 13.5086 21.7896 13.3301C21.7709 13.1516 21.7893 12.9711 21.8435 12.8ZM21.691 18.425L33.3522 38.925H10.0259C10.2203 34.8319 11.3781 30.8424 13.405 27.2811C15.432 23.7198 18.2709 20.6873 21.691 18.43V18.425ZM18.0047 14.675C18.3088 14.5428 18.6381 14.4784 18.9697 14.4863C19.1436 14.525 19.3074 14.5997 19.4505 14.7056C19.5937 14.8116 19.7131 14.9464 19.8009 15.1013L20.4597 16.2575C16.6579 18.7357 13.5021 22.0852 11.2546 26.0278C9.00712 29.9704 7.7327 34.3923 7.5372 38.9263H6.26095C6.08538 38.9257 5.91182 38.8889 5.75114 38.8181C5.59047 38.7474 5.44614 38.6442 5.3272 38.515C5.21088 38.3921 5.12162 38.2462 5.06521 38.0866C5.0088 37.9271 4.98648 37.7575 4.9997 37.5888C5.35471 33.0511 6.70326 28.647 8.94982 24.6885C11.1964 20.73 14.286 17.314 17.9997 14.6825L18.0047 14.675ZM19.8009 65.25C19.7127 65.405 19.5931 65.5399 19.4497 65.646C19.3064 65.7521 19.1425 65.8272 18.9685 65.8663C18.8036 65.9042 18.6326 65.9067 18.4667 65.8738C18.3008 65.8408 18.1438 65.7731 18.0059 65.675C14.2904 63.044 11.1991 59.6278 8.9514 55.6685C6.70369 51.7092 5.35457 47.304 4.9997 42.765C4.98597 42.5963 5.00781 42.4266 5.06379 42.2668C5.11977 42.107 5.20866 41.9608 5.3247 41.8375C5.4434 41.7084 5.58751 41.6052 5.74798 41.5345C5.90845 41.4637 6.08182 41.4269 6.2572 41.4263H7.5372C7.73364 45.9591 9.00838 50.3796 11.2556 54.321C13.5028 58.2624 16.6577 61.611 20.4585 64.0888L19.8009 65.25ZM10.0259 41.4263H33.3522L21.691 61.9263C18.2702 59.6686 15.4308 56.6353 13.4038 53.073C11.3768 49.5108 10.2195 45.5203 10.0259 41.4263ZM49.1622 67.5513C49.1137 67.714 49.0316 67.8647 48.9214 67.9939C48.8112 68.123 48.6752 68.2277 48.5222 68.3013C44.4564 70.243 40.0078 71.2507 35.5022 71.2507C30.9966 71.2507 26.548 70.243 22.4822 68.3013C22.3294 68.2274 22.1936 68.1226 22.0834 67.9935C21.9732 67.8644 21.8911 67.7138 21.8422 67.5513C21.789 67.3806 21.7713 67.2008 21.7903 67.023C21.8092 66.8452 21.8643 66.6732 21.9522 66.5175L22.6134 65.355C26.5799 67.4708 31.0061 68.5775 35.5016 68.5775C39.997 68.5775 44.4233 67.4708 48.3897 65.355L49.0522 66.5175C49.1403 66.6734 49.1955 66.8456 49.2144 67.0236C49.2333 67.2016 49.2156 67.3804 49.1622 67.5513ZM49.3134 61.9263L37.6522 41.4263H60.9785C60.7843 45.5198 59.6266 49.5097 57.5996 53.0714C55.5727 56.6331 52.7336 59.6662 49.3134 61.9238V61.9263ZM52.9984 65.6763C52.8605 65.7746 52.7033 65.8424 52.5371 65.8754C52.371 65.9084 52.1997 65.9057 52.0347 65.8675C51.8608 65.8281 51.697 65.7529 51.5537 65.6468C51.4104 65.5407 51.2907 65.406 51.2022 65.2513L50.5447 64.095C54.3459 61.6174 57.5013 58.2688 59.7488 54.3271C61.9963 50.3854 63.271 45.9644 63.4672 41.4313H66.081C65.891 46.201 64.6137 50.8643 62.3466 55.0651C60.0794 59.2659 56.8825 62.8932 52.9997 65.67L52.9984 65.6763Z" fill="#212121"/>
<path d="M50.1553 47.9775C49.5232 47.9718 48.9036 48.154 48.3752 48.5011C47.8469 48.8481 47.4335 49.3443 47.1877 49.9267C46.9418 50.509 46.8745 51.1513 46.9944 51.772C47.1142 52.3927 47.4157 52.9638 47.8607 53.4128C48.3056 53.8618 48.874 54.1685 49.4935 54.2939C50.1131 54.4194 50.756 54.3579 51.3405 54.1173C51.9251 53.8767 52.425 53.4679 52.7768 52.9427C53.1287 52.4175 53.3165 51.7996 53.3165 51.1675C53.3195 50.3255 52.9883 49.5167 52.3957 48.9187C51.803 48.3206 50.9972 47.9821 50.1553 47.9775ZM50.1553 51.8525C50.0177 51.8582 49.8815 51.8227 49.7643 51.7503C49.6471 51.678 49.5542 51.5723 49.4975 51.4468C49.4409 51.3212 49.4232 51.1816 49.4465 51.0459C49.4699 50.9102 49.5334 50.7846 49.6288 50.6852C49.7242 50.5859 49.8471 50.5173 49.9817 50.4884C50.1164 50.4595 50.2566 50.4716 50.3844 50.5231C50.5121 50.5745 50.6215 50.6631 50.6986 50.7772C50.7756 50.8914 50.8167 51.026 50.8165 51.1637C50.8187 51.2527 50.8033 51.3411 50.7712 51.4241C50.7391 51.507 50.691 51.5828 50.6296 51.6472C50.5681 51.7115 50.4946 51.7631 50.4132 51.7989C50.3319 51.8348 50.2442 51.8543 50.1553 51.8562V51.8525Z" fill="#212121"/>
<path d="M55.8887 44.0988H58.4374V46.5988H55.8887V44.0988Z" fill="#212121"/>
<path d="M44.4209 44.0988H46.9697V46.5988H44.4209V44.0988Z" fill="#212121"/>
<path d="M30.4297 58.2775C30.4369 59.0273 30.6658 59.7582 31.0876 60.3781C31.5093 60.9981 32.1052 61.4793 32.8 61.7613C33.4948 62.0432 34.2575 62.1132 34.992 61.9624C35.7265 61.8117 36.4 61.4469 36.9276 60.9141C37.4552 60.3813 37.8133 59.7043 37.9568 58.9684C38.1003 58.2324 38.0228 57.4704 37.7341 56.7784C37.4453 56.0864 36.9583 55.4954 36.3342 55.0797C35.7102 54.664 34.977 54.4423 34.2272 54.4425C33.2155 54.4488 32.2475 54.856 31.5357 55.575C30.8238 56.2939 30.4261 57.2658 30.4297 58.2775ZM35.526 58.2775C35.5188 58.5327 35.4367 58.7802 35.2897 58.9889C35.1427 59.1977 34.9375 59.3585 34.6996 59.4512C34.4618 59.544 34.2018 59.5646 33.9523 59.5105C33.7028 59.4563 33.4748 59.3299 33.2968 59.1469C33.1188 58.9639 32.9986 58.7325 32.9514 58.4816C32.9042 58.2307 32.9319 57.9714 33.0312 57.7362C33.1305 57.501 33.2969 57.3003 33.5096 57.1591C33.7223 57.0179 33.9719 56.9426 34.2272 56.9425C34.5762 56.9481 34.9088 57.0917 35.1522 57.3419C35.3956 57.5921 35.53 57.9285 35.526 58.2775Z" fill="#212121"/>
<path d="M34.2275 49.27H36.7763V51.77H34.2275V49.27Z" fill="#212121"/>
<path d="M39.3252 60.9075H41.8739V63.4075H39.3252V60.9075Z" fill="#212121"/>
<path d="M21.462 48.5813C21.4566 47.9572 21.2666 47.3487 20.9159 46.8324C20.5652 46.3161 20.0695 45.9152 19.4913 45.6802C18.9131 45.4452 18.2783 45.3866 17.6669 45.5117C17.0555 45.6369 16.4948 45.9403 16.0555 46.3836C15.6161 46.8269 15.3179 47.3903 15.1983 48.0028C15.0786 48.6154 15.143 49.2496 15.3832 49.8257C15.6235 50.4017 16.0289 50.8937 16.5483 51.2397C17.0677 51.5857 17.6779 51.7702 18.302 51.77C19.1437 51.7654 19.9491 51.427 20.5415 50.8292C21.134 50.2314 21.465 49.4229 21.462 48.5813ZM18.302 49.27C18.1644 49.276 18.0281 49.2406 17.9107 49.1685C17.7934 49.0964 17.7003 48.9907 17.6434 48.8652C17.5866 48.7397 17.5687 48.6001 17.5919 48.4643C17.6152 48.3285 17.6785 48.2027 17.7738 48.1033C17.8692 48.0038 17.9921 47.9351 18.1268 47.9061C18.2614 47.8771 18.4017 47.8891 18.5296 47.9405C18.6574 47.9919 18.7669 48.0804 18.8439 48.1946C18.921 48.3088 18.9621 48.4435 18.962 48.5813C18.9654 48.76 18.8978 48.9328 18.7742 49.0618C18.6505 49.1909 18.4807 49.2657 18.302 49.27Z" fill="#212121"/>
<path d="M25.3096 44.0988H27.8583V46.5988H25.3096V44.0988Z" fill="#212121"/>
<path d="M18.9385 54.4425H21.4872V56.9425H18.9385V54.4425Z" fill="#212121"/>
<path d="M22.7617 36.25C23.522 36.2574 24.2673 36.0388 24.9031 35.6218C25.5389 35.2048 26.0364 34.6083 26.3325 33.908C26.6286 33.2077 26.71 32.4352 26.5662 31.6886C26.4225 30.942 26.0601 30.2549 25.5251 29.7147C24.9901 29.1744 24.3066 28.8053 23.5615 28.6542C22.8163 28.5031 22.0431 28.5769 21.3399 28.8661C20.6367 29.1553 20.0354 29.647 19.6121 30.2786C19.1889 30.9103 18.963 31.6534 18.9629 32.4138C18.9593 33.4258 19.3571 34.398 20.0692 35.1172C20.7814 35.8363 21.7496 36.2437 22.7617 36.25ZM22.7617 31.0788C23.0275 31.0713 23.2895 31.1433 23.5141 31.2856C23.7388 31.4279 23.9159 31.6339 24.0227 31.8774C24.1296 32.1209 24.1614 32.3908 24.1141 32.6524C24.0667 32.9141 23.9424 33.1557 23.757 33.3463C23.5715 33.5369 23.3335 33.6678 23.0732 33.7223C22.8129 33.7769 22.5423 33.7525 22.296 33.6524C22.0496 33.5522 21.8388 33.3809 21.6904 33.1602C21.542 32.9396 21.4628 32.6797 21.4629 32.4138C21.4599 32.0655 21.5948 31.7302 21.8381 31.481C22.0814 31.2318 22.4134 31.089 22.7617 31.0838V31.0788Z" fill="#212121"/>
<path d="M20.2129 23.4113H22.7616V25.9113H20.2129V23.4113Z" fill="#212121"/>
<path d="M13.8428 31.1688H16.3915V33.6688H13.8428V31.1688Z" fill="#212121"/>
<path d="M34.25 20.1362C34.2557 20.7602 34.4459 21.3686 34.7967 21.8846C35.1475 22.4007 35.6432 22.8014 36.2213 23.0363C36.7994 23.2711 37.4341 23.3296 38.0454 23.2044C38.6568 23.0792 39.2173 22.7759 39.6566 22.3327C40.0958 21.8894 40.3941 21.3261 40.5137 20.7137C40.6334 20.1013 40.5691 19.4671 40.329 18.8912C40.0889 18.3152 39.6838 17.8232 39.1645 17.4771C38.6453 17.131 38.0353 16.9463 37.4113 16.9462C36.5692 16.9505 35.7633 17.2889 35.1705 17.887C34.5778 18.4852 34.2467 19.2941 34.25 20.1362ZM37.4113 19.4462C37.5488 19.4405 37.6849 19.476 37.8021 19.5483C37.9193 19.6205 38.0122 19.7262 38.0689 19.8516C38.1255 19.9771 38.1434 20.1167 38.1201 20.2523C38.0968 20.388 38.0334 20.5136 37.9382 20.613C37.8429 20.7124 37.7201 20.7811 37.5856 20.8101C37.451 20.8391 37.3108 20.8273 37.183 20.776C37.0553 20.7247 36.9458 20.6364 36.8686 20.5224C36.7914 20.4084 36.7501 20.2739 36.75 20.1362C36.7467 19.9567 36.8147 19.7833 36.9391 19.6539C37.0636 19.5245 37.2343 19.4498 37.4138 19.4462H37.4113Z" fill="#212121"/>
<path d="M34.2275 27.29H36.7763V29.79H34.2275V27.29Z" fill="#212121"/>
<path d="M29.1309 18.24H31.6796V20.74H29.1309V18.24Z" fill="#212121"/>
<path d="M62.1252 6.63875C61.8437 6.45712 61.5279 6.33541 61.1973 6.28122C60.8668 6.22702 60.5286 6.2415 60.2039 6.32375C59.8718 6.40615 59.5598 6.5551 59.287 6.76158C59.0141 6.96807 58.786 7.22778 58.6164 7.525L56.7039 10.8888L43.3352 34.3875C43.2284 34.5775 43.1731 34.792 43.1748 35.0099C43.1766 35.2278 43.2352 35.4415 43.345 35.6298C43.4548 35.818 43.6119 35.9743 43.8007 36.0831C43.9895 36.1919 44.2035 36.2494 44.4214 36.25H75.0002C75.3381 36.2491 75.6725 36.1804 75.9834 36.0479C76.2943 35.9154 76.5754 35.7219 76.8102 35.4788C77.0419 35.2393 77.2225 34.9553 77.3412 34.644C77.4598 34.3326 77.5139 34.0004 77.5002 33.6675C77.3016 28.2575 75.8003 22.9754 73.1235 18.2698C70.4468 13.5642 66.6738 9.57419 62.1252 6.63875ZM46.5702 33.75L58.2314 13.25C61.6523 15.5076 64.4919 18.5409 66.5191 22.1031C68.5463 25.6654 69.7039 29.6559 69.8977 33.75H46.5702ZM75.0002 33.75H72.3864C72.1892 29.215 70.9124 24.7926 68.6622 20.8503C66.412 16.9081 63.2534 13.5598 59.4489 11.0838L60.7789 8.7425C64.9851 11.4606 68.4739 15.1528 70.9495 19.5061C73.4251 23.8594 74.8146 28.7455 75.0002 33.75Z" fill="#212121"/>
<path d="M55.9121 23.375C55.9195 24.1247 56.1486 24.8554 56.5705 25.4752C56.9924 26.0949 57.5882 26.576 58.283 26.8577C58.9777 27.1395 59.7403 27.2094 60.4747 27.0586C61.2091 26.9079 61.8825 26.5431 62.41 26.0104C62.9375 25.4777 63.2956 24.8008 63.4392 24.0649C63.5827 23.3291 63.5053 22.5672 63.2167 21.8753C62.9282 21.1833 62.4413 20.5922 61.8174 20.1764C61.1936 19.7607 60.4606 19.5388 59.7109 19.5388C58.6987 19.5447 57.7303 19.952 57.0181 20.6712C56.3059 21.3904 55.9081 22.3628 55.9121 23.375ZM61.0084 23.375C61.001 23.6302 60.9186 23.8776 60.7714 24.0862C60.6243 24.2948 60.4189 24.4554 60.1809 24.5479C59.943 24.6405 59.683 24.6608 59.4336 24.6065C59.1842 24.5521 58.9563 24.4254 58.7784 24.2423C58.6006 24.0591 58.4806 23.8276 58.4336 23.5766C58.3866 23.3257 58.4146 23.0665 58.5141 22.8314C58.6136 22.5962 58.7802 22.3957 58.9931 22.2547C59.2059 22.1137 59.4556 22.0386 59.7109 22.0388C60.06 22.0444 60.3926 22.1882 60.6359 22.4387C60.8791 22.6892 61.0131 23.0259 61.0084 23.375Z" fill="#212121"/>
<path d="M52.0664 28.5837H54.6152V31.0837H52.0664V28.5837Z" fill="#212121"/>
<path d="M63.5322 28.5837H66.081V31.0837H63.5322V28.5837Z" fill="#212121"/>
<path d="M66.0747 38.9263H37.6509L51.8822 13.915C52.0488 13.6207 52.1551 13.2961 52.1948 12.9602C52.2345 12.6243 52.2068 12.2839 52.1134 11.9588C52.024 11.6401 51.8709 11.3429 51.6633 11.0851C51.4558 10.8273 51.1981 10.6142 50.9059 10.4588C46.1641 7.93054 40.8734 6.6067 35.4997 6.60378C30.619 6.59289 25.799 7.68509 21.3997 9.79878C20.9391 10.0208 20.529 10.3351 20.1949 10.7221C19.8607 11.1092 19.6097 11.5607 19.4572 12.0488C18.9592 11.944 18.4449 11.9429 17.9464 12.0455C17.4479 12.1481 16.9759 12.3522 16.5597 12.645C12.5472 15.4866 9.20883 19.1759 6.78121 23.4516C4.3536 27.7272 2.89616 32.4845 2.5122 37.3863C2.47292 37.8917 2.53713 38.3997 2.7009 38.8794C2.86467 39.3592 3.12457 39.8004 3.4647 40.1763C3.12454 40.5524 2.86463 40.9938 2.70086 41.4738C2.53709 41.9537 2.47289 42.462 2.5122 42.9675C2.89593 47.87 4.35351 52.6279 6.78159 56.9041C9.20968 61.1802 12.5488 64.8698 16.5622 67.7113C16.9769 68.0072 17.4489 68.213 17.948 68.3154C18.447 68.4179 18.962 68.4148 19.4597 68.3063C19.613 68.7939 19.8644 69.245 20.1985 69.632C20.5325 70.0189 20.9422 70.3334 21.4022 70.5563C25.8052 72.6592 30.6228 73.7506 35.5022 73.7506C40.3816 73.7506 45.1992 72.6592 49.6022 70.5563C50.0622 70.3334 50.4719 70.0189 50.8059 69.632C51.1399 69.245 51.3914 68.7939 51.5447 68.3063C52.0424 68.4148 52.5574 68.4179 53.0564 68.3154C53.5555 68.213 54.0275 68.0072 54.4422 67.7113C58.6394 64.7109 62.0951 60.7906 64.5452 56.2501C66.9952 51.7096 68.3748 46.6691 68.5784 41.5138C68.5927 41.18 68.5386 40.8469 68.4196 40.5348C68.3005 40.2227 68.1189 39.9382 67.8859 39.6988C67.6511 39.4553 67.3698 39.2615 67.0587 39.1288C66.7476 38.9961 66.4129 38.9272 66.0747 38.9263ZM35.4997 37.6475L23.8447 17.1588C27.4479 15.2951 31.4455 14.3225 35.5022 14.3225C39.5589 14.3225 43.5564 15.2951 47.1597 17.1588L35.4997 37.6475ZM42.296 54.6475L47.1559 63.1913C43.5529 65.0547 39.5555 66.0272 35.4991 66.0273C31.4426 66.0272 27.4453 65.0547 23.8422 63.1913L28.726 54.6075L35.4997 42.7038L42.296 54.6475ZM21.8435 12.8C21.8917 12.6376 21.9733 12.4869 22.0831 12.3578C22.1929 12.2287 22.3284 12.1238 22.481 12.05C26.5434 10.1005 30.9937 9.09334 35.4997 9.10378C40.4545 9.10668 45.333 10.3239 49.7084 12.6488C49.7123 12.6584 49.7123 12.6692 49.7084 12.6788L48.3909 15C44.4244 12.8847 39.9982 11.7782 35.5028 11.7782C31.0075 11.7782 26.5812 12.8847 22.6147 15L21.9522 13.8375C21.8637 13.6814 21.8084 13.5086 21.7896 13.3301C21.7709 13.1516 21.7893 12.9711 21.8435 12.8ZM21.691 18.425L33.3522 38.925H10.0259C10.2203 34.8319 11.3781 30.8424 13.405 27.2811C15.432 23.7198 18.2709 20.6873 21.691 18.43V18.425ZM18.0047 14.675C18.3088 14.5428 18.6381 14.4784 18.9697 14.4863C19.1436 14.525 19.3074 14.5997 19.4505 14.7056C19.5937 14.8116 19.7131 14.9464 19.8009 15.1013L20.4597 16.2575C16.6579 18.7357 13.5021 22.0852 11.2546 26.0278C9.00712 29.9704 7.7327 34.3923 7.5372 38.9263H6.26095C6.08538 38.9257 5.91182 38.8889 5.75114 38.8181C5.59047 38.7474 5.44614 38.6442 5.3272 38.515C5.21088 38.3921 5.12162 38.2462 5.06521 38.0866C5.0088 37.9271 4.98648 37.7575 4.9997 37.5888C5.35471 33.0511 6.70326 28.647 8.94982 24.6885C11.1964 20.73 14.286 17.314 17.9997 14.6825L18.0047 14.675ZM19.8009 65.25C19.7127 65.405 19.5931 65.5399 19.4497 65.646C19.3064 65.7521 19.1425 65.8272 18.9685 65.8663C18.8036 65.9042 18.6326 65.9067 18.4667 65.8738C18.3008 65.8408 18.1438 65.7731 18.0059 65.675C14.2904 63.044 11.1991 59.6278 8.9514 55.6685C6.70369 51.7092 5.35457 47.304 4.9997 42.765C4.98597 42.5963 5.00781 42.4266 5.06379 42.2668C5.11977 42.107 5.20866 41.9608 5.3247 41.8375C5.4434 41.7084 5.58751 41.6052 5.74798 41.5345C5.90845 41.4637 6.08182 41.4269 6.2572 41.4263H7.5372C7.73364 45.9591 9.00838 50.3796 11.2556 54.321C13.5028 58.2624 16.6577 61.611 20.4585 64.0888L19.8009 65.25ZM10.0259 41.4263H33.3522L21.691 61.9263C18.2702 59.6686 15.4308 56.6353 13.4038 53.073C11.3768 49.5108 10.2195 45.5203 10.0259 41.4263ZM49.1622 67.5513C49.1137 67.714 49.0316 67.8647 48.9214 67.9939C48.8112 68.123 48.6752 68.2277 48.5222 68.3013C44.4564 70.243 40.0078 71.2507 35.5022 71.2507C30.9966 71.2507 26.548 70.243 22.4822 68.3013C22.3294 68.2274 22.1936 68.1226 22.0834 67.9935C21.9732 67.8644 21.8911 67.7138 21.8422 67.5513C21.789 67.3806 21.7713 67.2008 21.7903 67.023C21.8092 66.8452 21.8643 66.6732 21.9522 66.5175L22.6134 65.355C26.5799 67.4708 31.0061 68.5775 35.5016 68.5775C39.997 68.5775 44.4233 67.4708 48.3897 65.355L49.0522 66.5175C49.1403 66.6734 49.1955 66.8456 49.2144 67.0236C49.2333 67.2016 49.2156 67.3804 49.1622 67.5513ZM49.3134 61.9263L37.6522 41.4263H60.9785C60.7843 45.5198 59.6266 49.5097 57.5996 53.0714C55.5727 56.6331 52.7336 59.6662 49.3134 61.9238V61.9263ZM52.9984 65.6763C52.8605 65.7746 52.7033 65.8424 52.5371 65.8754C52.371 65.9084 52.1997 65.9057 52.0347 65.8675C51.8608 65.8281 51.697 65.7529 51.5537 65.6468C51.4104 65.5407 51.2907 65.406 51.2022 65.2513L50.5447 64.095C54.3459 61.6174 57.5013 58.2688 59.7488 54.3271C61.9963 50.3854 63.271 45.9644 63.4672 41.4313H66.081C65.891 46.201 64.6137 50.8643 62.3466 55.0651C60.0794 59.2659 56.8825 62.8932 52.9997 65.67L52.9984 65.6763Z" fill="#212121"/>
<path d="M50.1553 47.9775C49.5232 47.9718 48.9036 48.154 48.3752 48.5011C47.8469 48.8481 47.4335 49.3443 47.1877 49.9267C46.9418 50.509 46.8745 51.1513 46.9944 51.772C47.1142 52.3927 47.4157 52.9638 47.8607 53.4128C48.3056 53.8618 48.874 54.1685 49.4935 54.2939C50.1131 54.4194 50.756 54.3579 51.3405 54.1173C51.9251 53.8767 52.425 53.4679 52.7768 52.9427C53.1287 52.4175 53.3165 51.7996 53.3165 51.1675C53.3195 50.3255 52.9883 49.5167 52.3957 48.9187C51.803 48.3206 50.9972 47.9821 50.1553 47.9775ZM50.1553 51.8525C50.0177 51.8582 49.8815 51.8227 49.7643 51.7503C49.6471 51.678 49.5542 51.5723 49.4975 51.4468C49.4409 51.3212 49.4232 51.1816 49.4465 51.0459C49.4699 50.9102 49.5334 50.7846 49.6288 50.6852C49.7242 50.5859 49.8471 50.5173 49.9817 50.4884C50.1164 50.4595 50.2566 50.4716 50.3844 50.5231C50.5121 50.5745 50.6215 50.6631 50.6986 50.7772C50.7756 50.8914 50.8167 51.026 50.8165 51.1637C50.8187 51.2527 50.8033 51.3411 50.7712 51.4241C50.7391 51.507 50.691 51.5828 50.6296 51.6472C50.5681 51.7115 50.4946 51.7631 50.4132 51.7989C50.3319 51.8348 50.2442 51.8543 50.1553 51.8562V51.8525Z" fill="#212121"/>
<path d="M55.8887 44.0988H58.4374V46.5988H55.8887V44.0988Z" fill="#212121"/>
<path d="M44.4209 44.0988H46.9697V46.5988H44.4209V44.0988Z" fill="#212121"/>
<path d="M30.4297 58.2775C30.4369 59.0273 30.6658 59.7582 31.0876 60.3781C31.5093 60.9981 32.1052 61.4793 32.8 61.7613C33.4948 62.0432 34.2575 62.1132 34.992 61.9624C35.7265 61.8117 36.4 61.4469 36.9276 60.9141C37.4552 60.3813 37.8133 59.7043 37.9568 58.9684C38.1003 58.2324 38.0228 57.4704 37.7341 56.7784C37.4453 56.0864 36.9583 55.4954 36.3342 55.0797C35.7102 54.664 34.977 54.4423 34.2272 54.4425C33.2155 54.4488 32.2475 54.856 31.5357 55.575C30.8238 56.2939 30.4261 57.2658 30.4297 58.2775ZM35.526 58.2775C35.5188 58.5327 35.4367 58.7802 35.2897 58.9889C35.1427 59.1977 34.9375 59.3585 34.6996 59.4512C34.4618 59.544 34.2018 59.5646 33.9523 59.5105C33.7028 59.4563 33.4748 59.3299 33.2968 59.1469C33.1188 58.9639 32.9986 58.7325 32.9514 58.4816C32.9042 58.2307 32.9319 57.9714 33.0312 57.7362C33.1305 57.501 33.2969 57.3003 33.5096 57.1591C33.7223 57.0179 33.9719 56.9426 34.2272 56.9425C34.5762 56.9481 34.9088 57.0917 35.1522 57.3419C35.3956 57.5921 35.53 57.9285 35.526 58.2775Z" fill="#212121"/>
<path d="M34.2275 49.27H36.7763V51.77H34.2275V49.27Z" fill="#212121"/>
<path d="M39.3252 60.9075H41.8739V63.4075H39.3252V60.9075Z" fill="#212121"/>
<path d="M21.462 48.5813C21.4566 47.9572 21.2666 47.3487 20.9159 46.8324C20.5652 46.3161 20.0695 45.9152 19.4913 45.6802C18.9131 45.4452 18.2783 45.3866 17.6669 45.5117C17.0555 45.6369 16.4948 45.9403 16.0555 46.3836C15.6161 46.8269 15.3179 47.3903 15.1983 48.0028C15.0786 48.6154 15.143 49.2496 15.3832 49.8257C15.6235 50.4017 16.0289 50.8937 16.5483 51.2397C17.0677 51.5857 17.6779 51.7702 18.302 51.77C19.1437 51.7654 19.9491 51.427 20.5415 50.8292C21.134 50.2314 21.465 49.4229 21.462 48.5813ZM18.302 49.27C18.1644 49.276 18.0281 49.2406 17.9107 49.1685C17.7934 49.0964 17.7003 48.9907 17.6434 48.8652C17.5866 48.7397 17.5687 48.6001 17.5919 48.4643C17.6152 48.3285 17.6785 48.2027 17.7738 48.1033C17.8692 48.0038 17.9921 47.9351 18.1268 47.9061C18.2614 47.8771 18.4017 47.8891 18.5296 47.9405C18.6574 47.9919 18.7669 48.0804 18.8439 48.1946C18.921 48.3088 18.9621 48.4435 18.962 48.5813C18.9654 48.76 18.8978 48.9328 18.7742 49.0618C18.6505 49.1909 18.4807 49.2657 18.302 49.27Z" fill="#212121"/>
<path d="M25.3096 44.0988H27.8583V46.5988H25.3096V44.0988Z" fill="#212121"/>
<path d="M18.9385 54.4425H21.4872V56.9425H18.9385V54.4425Z" fill="#212121"/>
<path d="M22.7617 36.25C23.522 36.2574 24.2673 36.0388 24.9031 35.6218C25.5389 35.2048 26.0364 34.6083 26.3325 33.908C26.6286 33.2077 26.71 32.4352 26.5662 31.6886C26.4225 30.942 26.0601 30.2549 25.5251 29.7147C24.9901 29.1744 24.3066 28.8053 23.5615 28.6542C22.8163 28.5031 22.0431 28.5769 21.3399 28.8661C20.6367 29.1553 20.0354 29.647 19.6121 30.2786C19.1889 30.9103 18.963 31.6534 18.9629 32.4138C18.9593 33.4258 19.3571 34.398 20.0692 35.1172C20.7814 35.8363 21.7496 36.2437 22.7617 36.25ZM22.7617 31.0788C23.0275 31.0713 23.2895 31.1433 23.5141 31.2856C23.7388 31.4279 23.9159 31.6339 24.0227 31.8774C24.1296 32.1209 24.1614 32.3908 24.1141 32.6524C24.0667 32.9141 23.9424 33.1557 23.757 33.3463C23.5715 33.5369 23.3335 33.6678 23.0732 33.7223C22.8129 33.7769 22.5423 33.7525 22.296 33.6524C22.0496 33.5522 21.8388 33.3809 21.6904 33.1602C21.542 32.9396 21.4628 32.6797 21.4629 32.4138C21.4599 32.0655 21.5948 31.7302 21.8381 31.481C22.0814 31.2318 22.4134 31.089 22.7617 31.0838V31.0788Z" fill="#212121"/>
<path d="M20.2129 23.4113H22.7616V25.9113H20.2129V23.4113Z" fill="#212121"/>
<path d="M13.8428 31.1688H16.3915V33.6688H13.8428V31.1688Z" fill="#212121"/>
<path d="M34.25 20.1362C34.2557 20.7602 34.4459 21.3686 34.7967 21.8846C35.1475 22.4007 35.6432 22.8014 36.2213 23.0363C36.7994 23.2711 37.4341 23.3296 38.0454 23.2044C38.6568 23.0792 39.2173 22.7759 39.6566 22.3327C40.0958 21.8894 40.3941 21.3261 40.5137 20.7137C40.6334 20.1013 40.5691 19.4671 40.329 18.8912C40.0889 18.3152 39.6838 17.8232 39.1645 17.4771C38.6453 17.131 38.0353 16.9463 37.4113 16.9462C36.5692 16.9505 35.7633 17.2889 35.1705 17.887C34.5778 18.4852 34.2467 19.2941 34.25 20.1362ZM37.4113 19.4462C37.5488 19.4405 37.6849 19.476 37.8021 19.5483C37.9193 19.6205 38.0122 19.7262 38.0689 19.8516C38.1255 19.9771 38.1434 20.1167 38.1201 20.2523C38.0968 20.388 38.0334 20.5136 37.9382 20.613C37.8429 20.7124 37.7201 20.7811 37.5856 20.8101C37.451 20.8391 37.3108 20.8273 37.183 20.776C37.0553 20.7247 36.9458 20.6364 36.8686 20.5224C36.7914 20.4084 36.7501 20.2739 36.75 20.1362C36.7467 19.9567 36.8147 19.7833 36.9391 19.6539C37.0636 19.5245 37.2343 19.4498 37.4138 19.4462H37.4113Z" fill="#212121"/>
<path d="M34.2275 27.29H36.7763V29.79H34.2275V27.29Z" fill="#212121"/>
<path d="M29.1309 18.24H31.6796V20.74H29.1309V18.24Z" fill="#212121"/>
</svg>
