<svg width="91" height="34" viewBox="0 0 91 34" fill="none" xmlns="http://www.w3.org/2000/svg">
<path d="M21.3584 13.6689C21.3779 13.6689 21.3877 13.6982 21.3877 13.7568C21.3877 13.8545 21.334 14.0352 21.2266 14.2988C21.1191 14.5527 20.9629 14.8506 20.7578 15.1924C20.5527 15.5342 20.2988 15.8955 19.9961 16.2764C19.7031 16.6572 19.3662 17.0186 18.9854 17.3604C18.79 17.4092 18.541 17.4629 18.2383 17.5215C17.9355 17.5703 17.5889 17.6191 17.1982 17.668C16.8174 17.7168 16.4023 17.7705 15.9531 17.8291C15.5039 17.8779 15.0352 17.9268 14.5469 17.9756C13.9707 18.8838 13.4092 19.7871 12.8623 20.6855C12.3252 21.584 11.8174 22.4531 11.3389 23.293C10.8604 24.1426 10.416 24.958 10.0059 25.7393C9.60547 26.5205 9.25879 27.248 8.96582 27.9219C8.75098 28.0098 8.43359 28.0977 8.01367 28.1855C7.59375 28.2832 7.1543 28.376 6.69531 28.4639C6.24609 28.5518 5.82617 28.6348 5.43555 28.7129C5.04492 28.791 4.77148 28.8545 4.61523 28.9033C5.5332 26.9404 6.45605 25.0898 7.38379 23.3516C8.32129 21.623 9.27832 19.958 10.2549 18.3564C9.74707 18.3955 9.26855 18.4346 8.81934 18.4736C8.37012 18.5029 7.97461 18.5273 7.63281 18.5469C7.29102 18.5664 7.0127 18.5859 6.79785 18.6055C6.58301 18.6152 6.45605 18.6201 6.41699 18.6201C6.3584 18.6201 6.3291 18.5811 6.3291 18.5029C6.3291 18.3955 6.37793 18.2393 6.47559 18.0342C6.57324 17.8291 6.68555 17.624 6.8125 17.4189C6.94922 17.2041 7.08594 17.0186 7.22266 16.8623C7.36914 16.6963 7.48145 16.6035 7.55957 16.584C8.32129 16.5156 9.03906 16.4424 9.71289 16.3643C10.3965 16.2861 11.0459 16.2031 11.6611 16.1152C13.2529 13.6445 14.8838 11.3252 16.5537 9.15723C18.2236 6.98926 19.918 4.875 21.6367 2.81445C21.6758 2.77539 21.6953 2.69238 21.6953 2.56543C21.6953 2.50684 21.6758 2.44824 21.6367 2.38965C21.6074 2.33105 21.5342 2.32129 21.417 2.36035C19.3369 2.92676 17.457 3.55664 15.7773 4.25C14.0977 4.94336 12.6035 5.64648 11.2949 6.35938C9.98633 7.0625 8.85352 7.75098 7.89648 8.4248C6.94922 9.09863 6.16797 9.70898 5.55273 10.2559C4.9375 10.793 4.4834 11.2373 4.19043 11.5889C3.89746 11.9404 3.75098 12.1455 3.75098 12.2041C3.75098 12.2334 3.76074 12.2773 3.78027 12.3359C3.80957 12.3848 3.89746 12.4092 4.04395 12.4092C4.35645 12.4092 4.68848 12.3652 5.04004 12.2773C5.40137 12.1895 5.75781 12.0771 6.10938 11.9404C6.4707 11.8037 6.81738 11.6572 7.14941 11.501C7.48145 11.335 7.78906 11.1787 8.07227 11.0322C8.08203 11.2568 8.0918 11.5205 8.10156 11.8232C8.12109 12.1162 8.13574 12.4141 8.14551 12.7168C8.16504 13.0195 8.17969 13.3125 8.18945 13.5957C8.20898 13.8691 8.21875 14.0938 8.21875 14.2695C8.10156 14.3281 7.91113 14.3916 7.64746 14.46C7.38379 14.5186 7.06152 14.5771 6.68066 14.6357C6.30957 14.6846 5.88477 14.7285 5.40625 14.7676C4.9375 14.7969 4.43457 14.8115 3.89746 14.8115C3.83887 14.8115 3.79004 14.8066 3.75098 14.7969C3.72168 14.7871 3.69238 14.7822 3.66309 14.7822C3.5752 14.7725 3.44336 14.6943 3.26758 14.5479C3.10156 14.4014 2.91602 14.2158 2.71094 13.9912C2.50586 13.7666 2.2959 13.5225 2.08105 13.2588C1.86621 12.9854 1.6709 12.7266 1.49512 12.4824C1.31934 12.2285 1.17285 11.999 1.05566 11.7939C0.948242 11.5791 0.894531 11.4229 0.894531 11.3252C0.894531 10.7295 1.11426 10.1143 1.55371 9.47949C2.00293 8.83496 2.60352 8.19531 3.35547 7.56055C4.11719 6.92578 4.99609 6.30078 5.99219 5.68555C6.98828 5.07031 8.03809 4.48926 9.1416 3.94238C10.2451 3.39551 11.3682 2.89258 12.5107 2.43359C13.6533 1.96484 14.7471 1.56445 15.792 1.23242C16.8369 0.900391 17.7988 0.641602 18.6777 0.456055C19.5664 0.260742 20.2988 0.163086 20.875 0.163086C21.041 0.163086 21.2314 0.226562 21.4463 0.353516C21.6709 0.480469 21.8906 0.646484 22.1055 0.851562C22.3301 1.05664 22.5498 1.28613 22.7646 1.54004C22.9795 1.79395 23.1699 2.04785 23.3359 2.30176C23.5117 2.55566 23.6533 2.7998 23.7607 3.03418C23.8682 3.25879 23.9268 3.44434 23.9365 3.59082C23.9365 3.64941 23.834 3.84473 23.6289 4.17676C23.4336 4.49902 23.1602 4.92871 22.8086 5.46582C22.457 5.99316 22.042 6.61816 21.5635 7.34082C21.085 8.05371 20.5625 8.83496 19.9961 9.68457C19.4297 10.5244 18.8291 11.418 18.1943 12.3652C17.5693 13.3027 16.9346 14.2695 16.29 15.2656C17.1689 15.0605 17.9209 14.8652 18.5459 14.6797C19.1709 14.4844 19.6885 14.3135 20.0986 14.167C20.5088 14.0205 20.8164 13.9033 21.0215 13.8154C21.2266 13.7178 21.3389 13.6689 21.3584 13.6689ZM28.7998 21.7109C28.7998 21.7695 28.8291 21.7988 28.8877 21.7988C28.9756 21.7988 29.1221 21.7354 29.3271 21.6084C29.5322 21.4814 29.7666 21.3203 30.0303 21.125C30.2939 20.9297 30.5723 20.71 30.8652 20.4658C31.168 20.2217 31.4561 19.9824 31.7295 19.748C32.0029 19.5137 32.2471 19.2988 32.4619 19.1035C32.6865 18.9082 32.8574 18.7568 32.9746 18.6494C33.0625 18.7373 33.1699 18.8545 33.2969 19.001C33.4336 19.1475 33.5557 19.2793 33.6631 19.3965C33.4287 19.6113 33.1455 19.875 32.8135 20.1875C32.4912 20.4902 32.1396 20.8076 31.7588 21.1396C31.3877 21.4717 31.002 21.8037 30.6016 22.1357C30.2012 22.458 29.8105 22.7461 29.4297 23C29.0488 23.2539 28.6875 23.459 28.3457 23.6152C28.0039 23.7812 27.7061 23.8643 27.4521 23.8643C27.2764 23.8643 27.0811 23.8301 26.8662 23.7617C26.6611 23.6934 26.4707 23.5957 26.2949 23.4688C26.1191 23.3516 25.9727 23.21 25.8555 23.0439C25.7383 22.8779 25.6797 22.6924 25.6797 22.4873C25.6797 22.4092 25.6748 22.3164 25.665 22.209C25.665 22.0918 25.6748 21.9453 25.6943 21.7695C25.7139 21.584 25.7529 21.3643 25.8115 21.1104C25.8701 20.8467 25.958 20.5244 26.0752 20.1436C25.7529 20.4854 25.3721 20.8418 24.9326 21.2129C24.5029 21.584 24.0488 21.9355 23.5703 22.2676C23.0918 22.5996 22.6084 22.8975 22.1201 23.1611C21.6416 23.4346 21.1973 23.6396 20.7871 23.7764C20.7383 23.7959 20.6992 23.8057 20.6699 23.8057C20.6406 23.8057 20.6113 23.8057 20.582 23.8057C20.4844 23.8057 20.3574 23.7568 20.2012 23.6592C20.0352 23.5615 19.874 23.4297 19.7178 23.2637C19.5615 23.1074 19.4297 22.9268 19.3223 22.7217C19.2051 22.5166 19.1465 22.3115 19.1465 22.1064C19.1465 22.0479 19.1758 21.8525 19.2344 21.5205C19.293 21.1885 19.4346 20.7686 19.6592 20.2607C19.874 19.7432 20.1963 19.167 20.626 18.5322C21.0557 17.8877 21.6416 17.2285 22.3838 16.5547C22.7646 16.2129 23.1748 15.8906 23.6143 15.5879C23.9854 15.334 24.4102 15.0752 24.8887 14.8115C25.3672 14.5479 25.8701 14.3379 26.3975 14.1816C26.417 14.1816 26.4316 14.1768 26.4414 14.167C26.4609 14.1572 26.4854 14.1621 26.5146 14.1816C26.6318 14.2207 26.7686 14.2842 26.9248 14.3721C27.0908 14.4502 27.252 14.5381 27.4082 14.6357C27.5742 14.7236 27.7158 14.8164 27.833 14.9141C27.96 15.002 28.043 15.0752 28.082 15.1338C28.0918 15.1533 28.0918 15.168 28.082 15.1777L28.0527 15.207C27.6133 15.4414 27.1982 15.7051 26.8076 15.998C26.417 16.2812 26.0703 16.5498 25.7676 16.8037C25.416 17.1064 25.0889 17.4043 24.7861 17.6973C24.0732 18.4004 23.5801 19.0107 23.3066 19.5283C23.0332 20.0361 22.8965 20.4023 22.8965 20.627C22.8965 20.793 22.9648 20.876 23.1016 20.876C23.2383 20.876 23.4092 20.8223 23.6143 20.7148C23.8291 20.5977 24.0684 20.4463 24.332 20.2607C24.5957 20.0654 24.8838 19.8408 25.1963 19.5869C25.5186 19.3232 25.8506 19.0498 26.1924 18.7666C26.4951 18.5225 26.7881 18.2588 27.0713 17.9756C27.3154 17.7412 27.5693 17.4727 27.833 17.1699C28.0967 16.8672 28.3213 16.5596 28.5068 16.2471C28.5068 16.2373 28.5117 16.2275 28.5215 16.2178C28.5312 16.208 28.5459 16.208 28.5654 16.2178C28.6729 16.2959 28.7949 16.4277 28.9316 16.6133C29.0684 16.7891 29.1953 16.9844 29.3125 17.1992C29.4297 17.4141 29.5273 17.624 29.6055 17.8291C29.6934 18.0244 29.7373 18.1758 29.7373 18.2832C29.5127 18.7422 29.3369 19.1621 29.21 19.543C29.0928 19.9141 29 20.2412 28.9316 20.5244C28.873 20.8076 28.834 21.0518 28.8145 21.2568C28.8047 21.4521 28.7998 21.6035 28.7998 21.7109ZM44.2539 19.4258C43.5898 20.0605 42.9062 20.6807 42.2031 21.2861C41.5 21.8818 40.792 22.4727 40.0791 23.0586C40.0889 23.127 40.0938 23.1953 40.0938 23.2637C40.1035 23.332 40.1084 23.4053 40.1084 23.4834C40.1084 24.2256 39.957 24.9873 39.6543 25.7686C39.3516 26.5596 38.9561 27.3311 38.4678 28.083C37.9893 28.8447 37.4424 29.5625 36.8271 30.2363C36.2217 30.9102 35.6162 31.4961 35.0107 31.9941C34.4053 32.502 33.8291 32.9023 33.2822 33.1953C32.7256 33.498 32.2617 33.6494 31.8906 33.6494C31.6172 33.6299 31.3535 33.5322 31.0996 33.3564C30.8359 33.1807 30.6064 32.9805 30.4111 32.7559C30.2061 32.5312 30.0449 32.3018 29.9277 32.0674C29.8008 31.8428 29.7373 31.6621 29.7373 31.5254C29.7373 31.0273 29.9473 30.4805 30.3672 29.8848C30.7871 29.2891 31.3486 28.6592 32.0518 27.9951C32.7451 27.3311 33.5361 26.6426 34.4248 25.9297C35.3232 25.2266 36.2461 24.5137 37.1934 23.791C37.3008 23.3613 37.3545 22.9854 37.3545 22.6631C37.3545 22.6338 37.3496 22.5898 37.3398 22.5312C37.3301 22.4727 37.3057 22.4141 37.2666 22.3555C37.2275 22.2969 37.1689 22.248 37.0908 22.209C37.0225 22.1602 36.9297 22.1357 36.8125 22.1357C36.6758 22.1357 36.5391 22.1602 36.4023 22.209C36.2754 22.248 36.085 22.3115 35.8311 22.3994C35.792 22.4189 35.709 22.3994 35.582 22.3408C35.4648 22.2725 35.3232 22.1895 35.1572 22.0918C34.9912 21.9941 34.8154 21.8867 34.6299 21.7695C34.4541 21.6426 34.2881 21.5254 34.1318 21.418C33.9756 21.3105 33.8486 21.2178 33.751 21.1396C33.6533 21.0615 33.6045 21.0127 33.6045 20.9932C34.0928 20.7002 34.5566 20.3877 34.9961 20.0557C35.4355 19.7139 35.8213 19.3672 36.1533 19.0156C36.4854 18.6543 36.749 18.2979 36.9443 17.9463C37.1396 17.585 37.2373 17.2383 37.2373 16.9062C37.2373 16.877 37.2324 16.8184 37.2227 16.7305C37.2129 16.6328 37.1934 16.5352 37.1641 16.4375C37.1348 16.3301 37.0908 16.2373 37.0322 16.1592C36.9736 16.0811 36.9004 16.042 36.8125 16.042C36.6562 16.042 36.4756 16.1494 36.2705 16.3643C36.0752 16.5791 35.8408 16.8623 35.5674 17.2139C35.3037 17.5557 34.9912 17.9414 34.6299 18.3711C34.2686 18.8008 33.8486 19.2354 33.3701 19.6748C33.2822 19.5771 33.1943 19.4795 33.1064 19.3818C33.0283 19.3037 32.9502 19.2256 32.8721 19.1475C32.7842 19.0596 32.7158 18.9814 32.667 18.9131C33.292 18.3271 33.8291 17.7412 34.2783 17.1553C34.7373 16.5693 35.1377 16.042 35.4795 15.5732C35.8311 15.1045 36.1387 14.7285 36.4023 14.4453C36.666 14.1523 36.9248 14.0059 37.1787 14.0059C37.374 14.0059 37.6182 14.0645 37.9111 14.1816C38.2139 14.2891 38.5166 14.4258 38.8193 14.5918C39.1318 14.7578 39.4248 14.9434 39.6982 15.1484C39.9814 15.3535 40.2012 15.5488 40.3574 15.7344C40.4355 15.832 40.4795 15.9785 40.4893 16.1738C40.499 16.3594 40.5039 16.5059 40.5039 16.6133C40.5039 17.082 40.4453 17.5215 40.3281 17.9316C40.2207 18.3418 40.0693 18.7227 39.874 19.0742C39.6787 19.4258 39.4541 19.748 39.2002 20.041C38.9463 20.334 38.6826 20.6025 38.4092 20.8467C38.6729 20.915 38.917 21.0371 39.1416 21.2129C39.3662 21.3887 39.5566 21.6133 39.7129 21.8867C40.4453 21.3301 41.1387 20.7832 41.793 20.2461C42.4473 19.709 43.0381 19.1865 43.5654 18.6787L44.2539 19.4258ZM31.4365 31.9062C31.71 31.9062 32.0566 31.7354 32.4766 31.3936C32.8965 31.0615 33.3359 30.6172 33.7949 30.0605C34.2539 29.5137 34.708 28.8936 35.1572 28.2002C35.6064 27.5068 36.002 26.8037 36.3438 26.0908C35.6309 26.6768 34.9668 27.2383 34.3516 27.7754C33.7363 28.3223 33.2041 28.835 32.7549 29.3135C32.3057 29.792 31.9541 30.2363 31.7002 30.6465C31.4463 31.0664 31.3193 31.4473 31.3193 31.7891C31.3193 31.8672 31.3584 31.9062 31.4365 31.9062ZM53.4531 19.25C52.7305 19.9824 52.0078 20.6367 51.2852 21.2129C50.5723 21.7891 49.8447 22.3018 49.1025 22.751C48.3701 23.1904 47.623 23.5713 46.8613 23.8936C46.0996 24.2158 45.3184 24.4893 44.5176 24.7139C44.127 25.8662 43.7217 27.0918 43.3018 28.3906C42.8818 29.6895 42.4424 31.0811 41.9834 32.5654L38.1455 33.8252C38.624 32.3311 39.0928 30.8857 39.5518 29.4893C40.0107 28.0928 40.4746 26.7354 40.9434 25.417C40.6309 25.4658 40.3184 25.5049 40.0059 25.5342C39.6836 25.5635 39.3564 25.5879 39.0244 25.6074L38.8047 24.1133C39.3027 24.0645 39.7764 24.0107 40.2256 23.9521C40.665 23.9033 41.0898 23.8545 41.5 23.8057C42.6426 20.5928 43.7705 17.6875 44.8838 15.0898C46.0068 12.4824 47.1396 10.2266 48.2822 8.32227C49.4248 6.41797 50.5918 4.88477 51.7832 3.72266C52.9746 2.56055 54.2197 1.81836 55.5186 1.49609C55.6943 1.53516 55.8799 1.6084 56.0752 1.71582C56.2705 1.81348 56.4609 1.93066 56.6465 2.06738C56.832 2.2041 57.0078 2.35059 57.1738 2.50684C57.3398 2.65332 57.4766 2.79492 57.584 2.93164C57.6328 2.98047 57.667 3.03418 57.6865 3.09277C57.7061 3.1416 57.7158 3.22949 57.7158 3.35645C57.7158 3.96191 57.584 4.63086 57.3203 5.36328C57.0664 6.08594 56.7051 6.84766 56.2363 7.64844C55.7773 8.43945 55.2256 9.25488 54.5811 10.0947C53.9463 10.9346 53.2432 11.7695 52.4717 12.5996C51.7002 13.4199 50.8799 14.2256 50.0107 15.0166C49.1416 15.7979 48.248 16.5352 47.3301 17.2285C46.998 18.0391 46.6416 18.9326 46.2607 19.9092C45.8896 20.8857 45.4941 21.96 45.0742 23.1318C45.7676 22.9463 46.4219 22.7266 47.0371 22.4727C47.6621 22.209 48.2773 21.8965 48.8828 21.5352C49.4883 21.1641 50.1035 20.7344 50.7285 20.2461C51.3633 19.748 52.042 19.167 52.7646 18.5029L53.4531 19.25ZM50.1426 11.0615C50.0352 11.2568 49.9033 11.5059 49.7471 11.8086C49.6104 12.0625 49.4492 12.3848 49.2637 12.7754C49.0781 13.166 48.8682 13.6299 48.6338 14.167C49.3174 13.5322 49.9717 12.8682 50.5967 12.1748C51.2314 11.4717 51.8223 10.7637 52.3691 10.0508C52.916 9.33789 53.4141 8.63965 53.8633 7.95605C54.3125 7.2627 54.6982 6.61328 55.0205 6.00781C55.3428 5.40234 55.5918 4.85547 55.7676 4.36719C55.9434 3.87891 56.0312 3.47852 56.0312 3.16602C56.0312 3.0293 55.9824 2.96094 55.8848 2.96094C55.6992 2.96094 55.4551 3.10742 55.1523 3.40039C54.8496 3.69336 54.4639 4.16211 53.9951 4.80664C53.5361 5.45117 52.9893 6.28613 52.3545 7.31152C51.7197 8.33691 50.9824 9.58691 50.1426 11.0615ZM54.3467 21.5059C54.3467 21.7988 54.4541 21.9453 54.6689 21.9453C54.8936 21.9453 55.1914 21.7695 55.5625 21.418C55.9336 21.0566 56.3193 20.6025 56.7197 20.0557C56.7002 19.9482 56.6855 19.8555 56.6758 19.7773C56.6758 19.6895 56.6758 19.6113 56.6758 19.543C56.6758 19.3477 56.6953 19.1182 56.7344 18.8545C56.7832 18.5811 56.8955 18.2734 57.0713 17.9316C57.1885 17.668 57.3301 17.4092 57.4961 17.1553C57.6328 16.9307 57.7988 16.6914 57.9941 16.4375C58.1895 16.1738 58.4043 15.9297 58.6387 15.7051L58.7266 15.6172C58.8242 15.7344 58.9512 15.8955 59.1074 16.1006C59.2734 16.2959 59.4346 16.501 59.5908 16.7158C59.7568 16.9209 59.8984 17.1113 60.0156 17.2871C60.1426 17.4629 60.2207 17.585 60.25 17.6533C60.25 18.0732 60.1719 18.4932 60.0156 18.9131C59.8691 19.333 59.6689 19.748 59.415 20.1582C60.001 20.1191 60.543 19.9727 61.041 19.7188C61.5488 19.4551 62.0762 19.0303 62.623 18.4443C62.7109 18.5322 62.8232 18.6543 62.96 18.8105C63.1064 18.957 63.2236 19.084 63.3115 19.1914C62.9014 19.6211 62.4961 19.9775 62.0957 20.2607C61.7051 20.5439 61.3096 20.7686 60.9092 20.9346C60.5186 21.1006 60.1182 21.2227 59.708 21.3008C59.2979 21.3691 58.8779 21.4033 58.4482 21.4033C58.1162 21.7549 57.7598 22.0771 57.3789 22.3701C56.998 22.6631 56.6074 22.917 56.207 23.1318C55.8164 23.3467 55.4258 23.5127 55.0352 23.6299C54.6445 23.7471 54.2734 23.8057 53.9219 23.8057C53.6289 23.8057 53.3262 23.7178 53.0137 23.542C52.7012 23.3662 52.418 23.1514 52.1641 22.8975C51.9102 22.6338 51.7002 22.3555 51.5342 22.0625C51.3682 21.7695 51.2852 21.5107 51.2852 21.2861C51.2852 20.5439 51.3877 19.8066 51.5928 19.0742C51.7881 18.3418 52.1006 17.6582 52.5303 17.0234C52.9502 16.3789 53.4873 15.8125 54.1416 15.3242C54.8057 14.8359 55.5918 14.4648 56.5 14.2109C56.5293 14.1914 56.5781 14.1768 56.6465 14.167C56.7246 14.1572 56.7881 14.1523 56.8369 14.1523C56.9736 14.1523 57.1152 14.2061 57.2617 14.3135C57.418 14.4111 57.5596 14.5234 57.6865 14.6504C57.8232 14.7773 57.9355 14.9043 58.0234 15.0312C58.1113 15.1484 58.1553 15.2266 58.1553 15.2656C58.1357 15.3145 58.0625 15.3779 57.9355 15.4561C57.8086 15.5244 57.6377 15.6465 57.4229 15.8223C57.208 15.998 56.9541 16.252 56.6611 16.584C56.3682 16.9062 56.0459 17.3359 55.6943 17.873C55.167 18.6641 54.8105 19.3818 54.625 20.0264C54.4395 20.6611 54.3467 21.1543 54.3467 21.5059ZM64.1904 21.5059C64.1904 21.7988 64.2979 21.9453 64.5127 21.9453C64.7373 21.9453 65.0352 21.7695 65.4062 21.418C65.7773 21.0566 66.1631 20.6025 66.5635 20.0557C66.5439 19.9482 66.5293 19.8555 66.5195 19.7773C66.5195 19.6895 66.5195 19.6113 66.5195 19.543C66.5195 19.3477 66.5391 19.1182 66.5781 18.8545C66.627 18.5811 66.7393 18.2734 66.915 17.9316C67.0322 17.668 67.1738 17.4092 67.3398 17.1553C67.4766 16.9307 67.6426 16.6914 67.8379 16.4375C68.0332 16.1738 68.248 15.9297 68.4824 15.7051L68.5703 15.6172C68.668 15.7344 68.7949 15.8955 68.9512 16.1006C69.1172 16.2959 69.2783 16.501 69.4346 16.7158C69.6006 16.9209 69.7422 17.1113 69.8594 17.2871C69.9863 17.4629 70.0645 17.585 70.0938 17.6533C70.0938 18.0732 70.0156 18.4932 69.8594 18.9131C69.7129 19.333 69.5127 19.748 69.2588 20.1582C69.8447 20.1191 70.3867 19.9727 70.8848 19.7188C71.3926 19.4551 71.9199 19.0303 72.4668 18.4443C72.5547 18.5322 72.667 18.6543 72.8037 18.8105C72.9502 18.957 73.0674 19.084 73.1553 19.1914C72.7451 19.6211 72.3398 19.9775 71.9395 20.2607C71.5488 20.5439 71.1533 20.7686 70.7529 20.9346C70.3623 21.1006 69.9619 21.2227 69.5518 21.3008C69.1416 21.3691 68.7217 21.4033 68.292 21.4033C67.96 21.7549 67.6035 22.0771 67.2227 22.3701C66.8418 22.6631 66.4512 22.917 66.0508 23.1318C65.6602 23.3467 65.2695 23.5127 64.8789 23.6299C64.4883 23.7471 64.1172 23.8057 63.7656 23.8057C63.4727 23.8057 63.1699 23.7178 62.8574 23.542C62.5449 23.3662 62.2617 23.1514 62.0078 22.8975C61.7539 22.6338 61.5439 22.3555 61.3779 22.0625C61.2119 21.7695 61.1289 21.5107 61.1289 21.2861C61.1289 20.5439 61.2314 19.8066 61.4365 19.0742C61.6318 18.3418 61.9443 17.6582 62.374 17.0234C62.7939 16.3789 63.3311 15.8125 63.9854 15.3242C64.6494 14.8359 65.4355 14.4648 66.3438 14.2109C66.373 14.1914 66.4219 14.1768 66.4902 14.167C66.5684 14.1572 66.6318 14.1523 66.6807 14.1523C66.8174 14.1523 66.959 14.2061 67.1055 14.3135C67.2617 14.4111 67.4033 14.5234 67.5303 14.6504C67.667 14.7773 67.7793 14.9043 67.8672 15.0312C67.9551 15.1484 67.999 15.2266 67.999 15.2656C67.9795 15.3145 67.9062 15.3779 67.7793 15.4561C67.6523 15.5244 67.4814 15.6465 67.2666 15.8223C67.0518 15.998 66.7979 16.252 66.5049 16.584C66.2119 16.9062 65.8896 17.3359 65.5381 17.873C65.0107 18.6641 64.6543 19.3818 64.4688 20.0264C64.2832 20.6611 64.1904 21.1543 64.1904 21.5059ZM81.0215 21.374C81.0215 21.6182 81.0996 21.7402 81.2559 21.7402C81.4414 21.7402 81.6611 21.6816 81.915 21.5645C82.1787 21.4473 82.4521 21.2959 82.7354 21.1104C83.0186 20.915 83.3066 20.7002 83.5996 20.4658C83.8926 20.2314 84.166 20.002 84.4199 19.7773C84.6836 19.5527 84.918 19.3428 85.123 19.1475C85.3281 18.9521 85.4893 18.7959 85.6064 18.6787C85.7041 18.7666 85.8213 18.8789 85.958 19.0156C86.0947 19.1523 86.2168 19.2793 86.3242 19.3965C86.0703 19.6504 85.7822 19.9336 85.46 20.2461C85.1377 20.5586 84.791 20.8809 84.4199 21.2129C84.0586 21.5352 83.6777 21.8525 83.2773 22.165C82.8867 22.4678 82.4961 22.7412 82.1055 22.9854C81.7148 23.2197 81.334 23.4102 80.9629 23.5566C80.5918 23.7031 80.2402 23.7764 79.9082 23.7764C79.7324 23.7764 79.5176 23.6934 79.2637 23.5273C79.0098 23.3711 78.7656 23.1758 78.5312 22.9414C78.2969 22.707 78.0967 22.4629 77.9307 22.209C77.7744 21.9453 77.6963 21.7109 77.6963 21.5059C77.6963 21.0566 77.7256 20.5879 77.7842 20.0996C77.3447 20.4902 76.9199 20.8613 76.5098 21.2129C76.0996 21.5645 75.6846 21.8965 75.2646 22.209C74.8545 22.5117 74.4297 22.79 73.9902 23.0439C73.5605 23.3076 73.1016 23.5322 72.6133 23.7178C72.4668 23.7764 72.3398 23.8057 72.2324 23.8057C72.1348 23.8057 72.0078 23.7568 71.8516 23.6592C71.6953 23.5615 71.5439 23.4346 71.3975 23.2783C71.251 23.1318 71.124 22.9658 71.0166 22.7803C70.9092 22.585 70.8555 22.3994 70.8555 22.2236C70.8555 21.8232 70.9336 21.3789 71.0898 20.8906C71.2363 20.3926 71.4561 19.8848 71.749 19.3672C72.0322 18.8398 72.3838 18.3174 72.8037 17.7998C73.2139 17.2725 73.6826 16.7793 74.21 16.3203C74.7373 15.8516 75.3184 15.4316 75.9531 15.0605C76.5879 14.6797 77.2666 14.377 77.9893 14.1523C78.126 14.1719 78.3018 14.2354 78.5166 14.3428C78.7314 14.4404 78.9316 14.543 79.1172 14.6504C79.4688 13.6445 79.8691 12.6387 80.3184 11.6328C80.7773 10.6172 81.2607 9.64551 81.7686 8.71777C82.2861 7.78027 82.8232 6.90625 83.3799 6.0957C83.9365 5.27539 84.4932 4.55273 85.0498 3.92773C85.6064 3.29297 86.1533 2.78027 86.6904 2.38965C87.2373 1.99902 87.7549 1.75977 88.2432 1.67188C88.458 1.67188 88.6826 1.74512 88.917 1.8916C89.1611 2.02832 89.3906 2.19922 89.6055 2.4043C89.8203 2.59961 90.001 2.80469 90.1475 3.01953C90.3037 3.23438 90.4014 3.41504 90.4404 3.56152C90.4404 4.01074 90.3281 4.5332 90.1035 5.12891C89.8789 5.72461 89.5664 6.36914 89.166 7.0625C88.7754 7.74609 88.3066 8.46387 87.7598 9.21582C87.2227 9.96777 86.6416 10.7344 86.0166 11.5156C85.3916 12.2871 84.7324 13.0586 84.0391 13.8301C83.3555 14.6016 82.667 15.3486 81.9736 16.0713C81.6807 17.0674 81.4463 18.0195 81.2705 18.9277C81.1045 19.8262 81.0215 20.6416 81.0215 21.374ZM88.375 3.44434C88.209 3.44434 88.0039 3.56641 87.7598 3.81055C87.5254 4.05469 87.2568 4.39648 86.9541 4.83594C86.6611 5.26562 86.3486 5.77832 86.0166 6.37402C85.6846 6.96973 85.3477 7.61914 85.0059 8.32227C84.6641 9.02539 84.3223 9.77246 83.9805 10.5635C83.6387 11.3545 83.3164 12.1553 83.0137 12.9658C83.7461 12.0674 84.4395 11.1689 85.0938 10.2705C85.7578 9.3623 86.3389 8.50293 86.8369 7.69238C87.335 6.88184 87.7305 6.13965 88.0234 5.46582C88.3164 4.79199 88.4629 4.23535 88.4629 3.7959C88.4629 3.7373 88.458 3.66406 88.4482 3.57617C88.4482 3.48828 88.4238 3.44434 88.375 3.44434ZM74.4736 20.876C74.7959 20.876 75.2744 20.6514 75.9092 20.2021C76.5439 19.7432 77.2617 19.1328 78.0625 18.3711C78.1504 17.9219 78.2578 17.4678 78.3848 17.0088C78.5117 16.54 78.6533 16.0664 78.8096 15.5879C78.2432 15.9688 77.6865 16.4033 77.1396 16.8916C76.6025 17.3799 76.124 17.8633 75.7041 18.3418C75.2842 18.8203 74.9424 19.2695 74.6787 19.6895C74.4248 20.0996 74.2979 20.4121 74.2979 20.627C74.2979 20.793 74.3564 20.876 74.4736 20.876Z" fill="#00833E"/>
</svg>
