<svg width="200" height="200" viewBox="0 0 200 200" fill="none" xmlns="http://www.w3.org/2000/svg">
<circle cx="100" cy="100" r="99" stroke="#C33130" stroke-width="2"/>
<circle cx="100" cy="100" r="55" fill="url(#paint0_linear_234_4255)"/>
<g clip-path="url(#clip0_234_4255)">
<path d="M111.274 81H100.308L107.769 88.8439C109.368 87.8589 111.493 88.0527 112.881 89.4293L119.022 95.5208C119.313 95.8096 119.525 96.1221 119.632 96.395C119.74 96.6679 119.74 96.9013 119.612 97.0279C119.357 97.281 118.675 97.02 118.093 96.4425L112.343 90.7346C111.761 90.1571 111.079 89.8921 110.823 90.1492C110.696 90.2758 110.696 90.5091 110.804 90.7821C110.911 91.055 111.123 91.3675 111.414 91.6562L117.168 97.3601C117.459 97.6489 117.67 97.9614 117.778 98.2343C117.886 98.5073 117.886 98.7406 117.758 98.8672C117.503 99.1204 116.821 98.8593 116.239 98.2818L110.485 92.5779C109.902 92.0004 109.22 91.7354 108.965 91.9925C108.838 92.119 108.838 92.3524 108.945 92.6254C109.053 92.8983 109.264 93.2108 109.555 93.4995L115.31 99.2034C115.601 99.4922 115.812 99.8047 115.92 100.078C116.027 100.351 116.027 100.584 115.9 100.71C115.645 100.964 114.963 100.703 114.38 100.125L108.63 94.4212C108.048 93.8437 107.366 93.5786 107.111 93.8358C106.983 93.9623 106.983 94.1957 107.091 94.4686C107.199 94.7416 107.41 95.0541 107.701 95.3428L113.455 101.047C113.746 101.335 113.958 101.648 114.065 101.921C114.173 102.194 114.173 102.427 114.045 102.554C113.79 102.807 113.108 102.546 112.526 101.968L106.385 95.8768C104.997 94.5003 104.798 92.3959 105.787 90.8098L101.532 86.8344C97.5285 83.0885 92.2329 81 86.7299 81C81.3545 81 77 85.3195 77 90.6515V104.041C77 109.373 81.3545 113.693 86.7299 113.693H100.432L98.2503 105.56C95.8099 105.52 93.3016 103.297 92.2768 100.038C91.0765 96.2249 92.3565 92.4355 95.1359 91.5732C97.9154 90.7148 101.141 93.1079 102.342 96.9211C103.367 100.18 102.581 103.424 100.595 104.832L106.166 122.521C106.349 123.138 107.219 123.162 107.438 122.557L111.27 113.689C116.645 113.689 121 109.369 121 104.037V90.6515C121 85.3195 116.645 81 111.274 81Z" fill="white"/>
</g>
<path d="M90.0367 180.187C90.1028 180.197 90.1592 180.226 90.206 180.273C90.2377 180.333 90.2485 180.395 90.2386 180.461L89.8863 182.808C89.8764 182.875 89.8486 182.925 89.803 182.958C89.7422 183.003 89.6788 183.021 89.6128 183.011L84.2255 182.196C84.1595 182.186 84.1107 182.151 84.079 182.092C84.0322 182.044 84.0137 181.987 84.0237 181.921L84.3759 179.574C84.3859 179.508 84.4213 179.452 84.482 179.407C84.5276 179.373 84.5834 179.361 84.6494 179.371L90.0367 180.187Z" fill="#212121"/>
<path d="M60.2683 181.26C59.5705 180.923 59.0381 180.457 58.671 179.863C58.286 179.275 58.088 178.606 58.0769 177.856C58.0658 177.107 58.2457 176.346 58.6165 175.572C58.9815 174.811 59.4474 174.211 60.0142 173.77C60.5633 173.336 61.1718 173.087 61.8397 173.023C62.5077 172.96 63.1785 173.09 63.8523 173.416L65.0253 173.984C65.0854 174.013 65.13 173.997 65.159 173.937L67.3664 169.334C67.3954 169.273 67.4455 169.231 67.5168 169.206C67.5703 169.187 67.6271 169.192 67.6872 169.221L70.2498 170.46C70.31 170.489 70.3554 170.534 70.3862 170.593C70.3991 170.659 70.3911 170.722 70.3621 170.782L64.4872 183.032C64.4582 183.093 64.417 183.132 64.3635 183.151C64.2922 183.176 64.2265 183.174 64.1664 183.145L60.2683 181.26ZM63.4076 176.059C63.0827 175.902 62.7661 175.897 62.4578 176.046C62.1316 176.201 61.8613 176.502 61.6469 176.949C61.421 177.42 61.3494 177.832 61.4323 178.184C61.5031 178.531 61.7009 178.783 62.0258 178.94L62.5311 179.184C62.5912 179.213 62.6358 179.198 62.6647 179.137L63.9597 176.437C63.9886 176.377 63.973 176.332 63.9129 176.303L63.4076 176.059Z" fill="#212121"/>
<path d="M57.0503 162.956C58.1205 163.689 58.765 164.584 58.9836 165.643C59.1913 166.694 58.9378 167.745 58.2232 168.798L54.8156 173.817C54.1086 174.858 53.2299 175.474 52.1798 175.664C51.1111 175.857 50.0417 175.587 48.9715 174.855C47.9123 174.13 47.2772 173.232 47.066 172.163C46.8363 171.096 47.075 170.043 47.7821 169.001L51.1896 163.983C51.9042 162.93 52.7976 162.317 53.8698 162.142C54.931 161.959 55.9912 162.231 57.0503 162.956ZM55.4481 165.316C55.2054 165.15 54.9614 165.104 54.7162 165.18C54.4524 165.259 54.2189 165.448 54.0158 165.747L50.4503 170.998C50.2472 171.298 50.161 171.579 50.1916 171.844C50.2036 172.112 50.331 172.329 50.5737 172.495C50.8165 172.661 51.0642 172.701 51.3169 172.614C51.5622 172.539 51.7863 172.351 51.9894 172.052L55.5549 166.801C55.758 166.502 55.8536 166.218 55.8415 165.95C55.822 165.693 55.6908 165.482 55.4481 165.316Z" fill="#212121"/>
<path d="M38.1876 165.967C37.6198 165.438 37.2478 164.836 37.0714 164.159C36.8761 163.483 36.8832 162.786 37.0926 162.066C37.302 161.347 37.6973 160.672 38.2786 160.043C38.8508 159.424 39.4724 158.988 40.1433 158.735C40.7953 158.483 41.4498 158.425 42.1069 158.562C42.7639 158.698 43.3666 159.022 43.9147 159.533L44.8691 160.422C44.9181 160.467 44.9652 160.466 45.0106 160.417L48.4711 156.672C48.5165 156.622 48.577 156.596 48.6524 156.594C48.7091 156.591 48.7618 156.613 48.8108 156.659L50.8958 158.601C50.9447 158.647 50.9751 158.703 50.987 158.769C50.9801 158.835 50.9539 158.893 50.9085 158.943L41.6988 168.91C41.6534 168.959 41.6023 168.984 41.5457 168.986C41.4702 168.989 41.408 168.968 41.3591 168.922L38.1876 165.967ZM42.7141 161.926C42.4498 161.68 42.1486 161.582 41.8103 161.633C41.4532 161.684 41.1066 161.892 40.7705 162.255C40.4163 162.639 40.227 163.011 40.2027 163.372C40.1686 163.725 40.2837 164.024 40.548 164.27L40.9591 164.653C41.008 164.699 41.0552 164.697 41.1006 164.648L43.1306 162.451C43.176 162.402 43.1742 162.355 43.1253 162.309L42.7141 161.926Z" fill="#212121"/>
<path d="M21.8033 139.983C21.8611 139.95 21.9265 139.943 21.9994 139.963C22.0542 139.977 22.0982 140.014 22.1316 140.072L24.1446 143.573C24.178 143.631 24.2236 143.643 24.2814 143.61L26.4671 142.343C26.5249 142.309 26.5371 142.263 26.5037 142.205L25.4021 140.289C25.3687 140.231 25.3651 140.171 25.3913 140.11C25.3993 140.043 25.4322 139.993 25.49 139.959L27.5543 138.763C27.6121 138.729 27.6775 138.722 27.7505 138.742C27.8052 138.757 27.8492 138.793 27.8826 138.851L28.9843 140.767C29.0176 140.825 29.0632 140.837 29.1211 140.804L33.6658 138.169C33.7237 138.136 33.789 138.129 33.862 138.148C33.9167 138.163 33.9608 138.199 33.9942 138.257L35.4163 140.731C35.4497 140.789 35.4624 140.851 35.4544 140.918C35.4282 140.979 35.3861 141.027 35.3283 141.061L23.6021 147.859C23.5443 147.892 23.488 147.902 23.4333 147.887C23.3603 147.867 23.3072 147.829 23.2738 147.77L19.6684 141.5C19.635 141.442 19.6314 141.382 19.6577 141.32C19.6656 141.254 19.6986 141.204 19.7564 141.17L21.8033 139.983Z" fill="#212121"/>
<path d="M29.1863 127.876C29.6595 129.086 29.6896 130.191 29.2764 131.189C28.8584 132.175 28.059 132.9 26.8781 133.366L21.2472 135.585C20.0788 136.045 19.0075 136.057 18.0333 135.62C17.0418 135.175 16.3095 134.348 15.8362 133.137C15.3679 131.939 15.3465 130.838 15.7721 129.835C16.1804 128.824 16.9687 128.088 18.1371 127.628L23.768 125.409C24.9489 124.943 26.0313 124.942 27.0152 125.404C27.9943 125.853 28.718 126.677 29.1863 127.876ZM26.5387 128.919C26.4313 128.644 26.2552 128.469 26.0102 128.393C25.7479 128.309 25.4489 128.333 25.1133 128.465L19.2214 130.787C18.8858 130.919 18.6564 131.103 18.5334 131.339C18.3931 131.567 18.3766 131.819 18.4839 132.093C18.5912 132.368 18.7736 132.541 19.031 132.612C19.276 132.689 19.5663 132.661 19.9019 132.528L25.7939 130.206C26.1295 130.074 26.3675 129.894 26.5078 129.666C26.6357 129.442 26.646 129.194 26.5387 128.919Z" fill="#212121"/>
<path d="M25.8461 117.004C26.1344 118.272 26.0001 119.369 25.4434 120.294C24.8838 121.206 23.9856 121.804 22.7488 122.088L16.8514 123.439C15.6277 123.72 14.5666 123.571 13.6682 122.993C12.7538 122.405 12.1525 121.477 11.8643 120.209C11.579 118.954 11.7213 117.862 12.291 116.934C12.8447 115.996 13.7334 115.386 14.9572 115.106L20.8545 113.754C22.0913 113.471 23.1619 113.631 24.0662 114.235C24.9676 114.826 25.5609 115.749 25.8461 117.004ZM23.0732 117.64C23.0078 117.352 22.8597 117.152 22.6287 117.04C22.3818 116.918 22.0826 116.897 21.7311 116.978L15.5603 118.392C15.2088 118.473 14.9548 118.62 14.7981 118.835C14.6255 119.04 14.5718 119.286 14.6372 119.573C14.7026 119.861 14.8572 120.059 15.1012 120.168C15.3321 120.28 15.6233 120.296 15.9748 120.216L22.1456 118.801C22.4971 118.721 22.7592 118.578 22.9318 118.374C23.0914 118.172 23.1386 117.927 23.0732 117.64Z" fill="#212121"/>
<path d="M24.2858 109.638C24.2908 109.705 24.2753 109.766 24.2394 109.823C24.1891 109.867 24.1307 109.891 24.0641 109.896L10.5617 110.913C10.4952 110.918 10.4404 110.901 10.3974 110.864C10.3402 110.815 10.3091 110.757 10.3041 110.69L10.0182 106.859C9.92239 105.575 10.2051 104.519 10.8663 103.689C11.5274 102.859 12.4506 102.4 13.6357 102.311L19.7477 101.851C20.9329 101.762 21.9139 102.078 22.6908 102.799C23.4678 103.521 23.9041 104.523 23.9999 105.807L24.2858 109.638ZM21.1192 106.77C21.1857 106.765 21.2165 106.729 21.2115 106.662L21.1497 106.102C21.1154 105.822 20.9781 105.597 20.7377 105.427C20.4841 105.258 20.1637 105.181 19.7765 105.197L14.1039 105.624C13.7044 105.654 13.3918 105.771 13.1661 105.977C12.9404 106.182 12.839 106.438 12.862 106.746L12.9024 107.287C12.9074 107.354 12.9432 107.385 13.0097 107.38L21.1192 106.77Z" fill="#212121"/>
<path d="M20.9026 84.3499C20.8877 84.4153 20.8548 84.4696 20.8039 84.513C20.7429 84.5403 20.6798 84.5464 20.6147 84.5315L18.3105 84.0034C18.2454 83.9885 18.1978 83.9569 18.1676 83.9088C18.1274 83.8445 18.1148 83.7797 18.1296 83.7144L19.3419 78.3808C19.3568 78.3154 19.3947 78.2691 19.4557 78.2418C19.5067 78.1984 19.5647 78.1842 19.6298 78.1992L21.934 78.7273C21.9991 78.7422 22.0518 78.7818 22.092 78.846C22.1221 78.8942 22.1297 78.9509 22.1149 79.0163L20.9026 84.3499Z" fill="#212121"/>
<path d="M34.1296 61.9504C33.7223 62.6588 33.2321 63.203 32.659 63.5829C32.0744 63.9562 31.4524 64.153 30.7931 64.1733C30.1289 64.1753 29.4846 63.9953 28.8601 63.6333L28.3224 63.3215C28.2645 63.288 28.2283 63.2438 28.2136 63.1888C28.1941 63.1156 28.201 63.0499 28.2344 62.9918L29.6365 60.5532C29.6699 60.4952 29.7197 60.4621 29.786 60.4541C29.8474 60.4278 29.907 60.4314 29.9648 60.4649L30.3638 60.6962C30.6413 60.8571 30.8978 60.9206 31.1331 60.8868C31.3751 60.8413 31.5562 60.714 31.6764 60.505C31.7966 60.296 31.8182 60.084 31.7413 59.8691C31.6596 59.6359 31.4972 59.4489 31.2544 59.3081C30.9884 59.1539 30.6913 59.121 30.3629 59.2093C30.023 59.291 29.4473 59.5146 28.6358 59.8802C27.8856 60.2194 27.2418 60.481 26.7043 60.6649C26.1553 60.842 25.5612 60.9234 24.9219 60.9089C24.2711 60.8877 23.6219 60.6893 22.9743 60.3139C22.3151 59.9317 21.8146 59.448 21.4727 58.8627C21.1374 58.2658 20.9846 57.6198 21.0142 56.9247C21.0505 56.2181 21.2689 55.5163 21.6695 54.8196C22.0768 54.1112 22.5785 53.5738 23.1747 53.2072C23.7661 52.8223 24.4054 52.6356 25.0927 52.647C25.7751 52.6401 26.4517 52.831 27.1225 53.2199L27.5388 53.4612C27.5966 53.4948 27.6353 53.5482 27.6548 53.6214C27.6695 53.6764 27.6601 53.7329 27.6267 53.7909L26.2347 56.2121C26.2013 56.2702 26.1539 56.3124 26.0925 56.3387C26.0262 56.3467 25.9641 56.334 25.9063 56.3005L25.4206 56.0189C25.1662 55.8714 24.918 55.8204 24.676 55.8659C24.434 55.9114 24.2529 56.0386 24.1327 56.2476C24.0125 56.4567 23.9966 56.672 24.0851 56.8936C24.1735 57.1152 24.3508 57.3031 24.6167 57.4573C24.9059 57.6249 25.2228 57.677 25.5676 57.6137C25.9124 57.5504 26.4781 57.3442 27.2647 56.9951C28.2289 56.5786 28.9854 56.2818 29.5345 56.1046C30.0835 55.9275 30.6262 55.855 31.1627 55.8874C31.6877 55.913 32.2277 56.0867 32.7828 56.4086C33.8235 57.0119 34.4601 57.8223 34.6924 58.8395C34.9315 59.8451 34.7438 60.8821 34.1296 61.9504Z" fill="#212121"/>
<path d="M29.697 43.3432C30.1799 42.7351 30.7507 42.3175 31.4093 42.0903C32.0659 41.8443 32.7592 41.7993 33.4894 41.9552C34.2195 42.1111 34.9187 42.4566 35.5868 42.9917C36.2445 43.5184 36.7241 44.1082 37.0254 44.761C37.3246 45.3951 37.4309 46.0462 37.3443 46.7143C37.2577 47.3825 36.9813 48.0101 36.5151 48.5972L35.7034 49.6193C35.6617 49.6717 35.667 49.7188 35.7192 49.7607L39.6969 52.9459C39.7491 52.9877 39.7794 53.0463 39.7879 53.1217C39.7942 53.1782 39.7766 53.2327 39.7349 53.2851L37.9616 55.5181C37.9199 55.5705 37.8668 55.6051 37.8022 55.622C37.7354 55.62 37.676 55.5981 37.6238 55.5563L27.0376 47.079C26.9854 47.0372 26.9561 46.988 26.9498 46.9315C26.9413 46.8561 26.9579 46.7922 26.9995 46.7398L29.697 43.3432ZM34.0485 47.5738C34.2733 47.2908 34.3479 46.9818 34.2724 46.6469C34.1946 46.2931 33.9627 45.9615 33.5764 45.6522C33.1692 45.3261 32.7852 45.1644 32.4245 45.1671C32.072 45.1593 31.7834 45.2969 31.5586 45.5799L31.2089 46.0202C31.1673 46.0727 31.1726 46.1198 31.2248 46.1616L33.5581 48.0301C33.6103 48.0719 33.6572 48.0666 33.6989 48.0142L34.0485 47.5738Z" fill="#212121"/>
<path d="M43.5352 32.7386C43.5806 32.7877 43.6019 32.8502 43.5991 32.926C43.597 32.9828 43.5715 33.0341 43.5225 33.0797L40.5712 35.8294C40.5223 35.875 40.5205 35.9224 40.5659 35.9716L42.2825 37.8293C42.328 37.8785 42.3751 37.8802 42.4241 37.8346L44.0392 36.3298C44.0882 36.2842 44.1455 36.2673 44.2112 36.2793C44.2776 36.2723 44.3335 36.2934 44.3789 36.3425L46.0001 38.0971C46.0455 38.1462 46.0668 38.2087 46.064 38.2845C46.0619 38.3413 46.0364 38.3926 45.9874 38.4382L44.3723 39.943C44.3233 39.9886 44.3216 40.036 44.367 40.0851L46.0972 41.9576C46.1426 42.0068 46.1898 42.0085 46.2388 41.9629L49.19 39.2132C49.239 39.1676 49.2963 39.1508 49.362 39.1627C49.4284 39.1557 49.4843 39.1768 49.5297 39.2259L51.1373 40.9657C51.1827 41.0149 51.204 41.0774 51.2012 41.1532C51.1991 41.21 51.1736 41.2612 51.1246 41.3068L45.8387 46.2318C45.7898 46.2774 45.7321 46.3037 45.6657 46.3107C45.6 46.2987 45.5445 46.2682 45.4991 46.219L36.2894 36.2521C36.2439 36.2029 36.2223 36.1499 36.2244 36.0931C36.2272 36.0173 36.2531 35.9566 36.3021 35.911L41.5879 30.986C41.6369 30.9404 41.6942 30.9236 41.7599 30.9355C41.8263 30.9286 41.8822 30.9496 41.9276 30.9988L43.5352 32.7386Z" fill="#212121"/>
<path d="M57.0649 37.1566C56.0167 37.8742 54.9676 38.1381 53.9175 37.9482C52.8674 37.7583 51.9925 37.1482 51.2929 36.1179L47.829 31.0161C47.1219 29.9746 46.8759 28.934 47.0911 27.8941C47.3063 26.8542 47.9379 25.9755 48.986 25.2579C50.0342 24.5403 51.0795 24.2709 52.1222 24.4497C53.1758 24.621 54.0561 25.2273 54.7632 26.2687L54.8648 26.4183C54.9024 26.4737 54.9142 26.5386 54.9001 26.6132C54.8896 26.6691 54.8567 26.7159 54.8016 26.7537L52.5193 28.4623C52.3869 28.5529 52.2755 28.5317 52.1853 28.3988L51.8806 27.9501C51.7076 27.6953 51.506 27.5412 51.2758 27.4878C51.0381 27.4233 50.8089 27.4667 50.5883 27.6177C50.3786 27.7612 50.2603 27.9559 50.2332 28.2016C50.1986 28.4363 50.2678 28.681 50.4408 28.9358L54.1981 34.4697C54.3636 34.7135 54.5652 34.8676 54.8029 34.932C55.0331 34.9854 55.253 34.9403 55.4626 34.7968C55.6833 34.6458 55.8109 34.4529 55.8455 34.2182C55.8726 33.9725 55.8034 33.7277 55.6379 33.484L55.3107 33.0021C55.2731 32.9467 55.2596 32.891 55.2701 32.8351C55.2841 32.7606 55.3188 32.7045 55.3739 32.6667L57.7917 31.1575C57.8468 31.1197 57.906 31.1117 57.9692 31.1333C58.0359 31.1364 58.088 31.1656 58.1256 31.221L58.2272 31.3705C58.9268 32.4009 59.1672 33.4453 58.9485 34.5038C58.7409 35.5548 58.113 36.439 57.0649 37.1566Z" fill="#212121"/>
<path d="M65.8936 31.7685C65.8335 31.7976 65.7706 31.8057 65.7051 31.7927C65.6458 31.7618 65.6017 31.7162 65.5728 31.6558L59.6979 19.4057C59.6689 19.3453 59.6638 19.2883 59.6825 19.2346C59.7074 19.163 59.75 19.1126 59.8101 19.0835L62.3727 17.8443C62.4329 17.8153 62.4926 17.8161 62.5518 17.847C62.6174 17.86 62.6646 17.8967 62.6936 17.9571L68.5685 30.2071C68.5974 30.2675 68.5994 30.3335 68.5745 30.4051C68.5558 30.4588 68.5163 30.5002 68.4562 30.5293L65.8936 31.7685Z" fill="#212121"/>
<path d="M79.3703 26.5479C79.2172 26.5954 79.1126 26.5506 79.0565 26.4136L78.2941 24.8185C78.2744 24.7545 78.2263 24.7343 78.1497 24.758L76.0826 25.3983C76.006 25.422 75.9776 25.4659 75.9973 25.53L76.2812 27.2732C76.3118 27.4181 76.2505 27.5143 76.0974 27.5617L73.3795 28.4035C73.2136 28.4549 73.1242 28.3914 73.1113 28.213L71.8956 14.3609C71.8778 14.212 71.9391 14.1159 72.0794 14.0724L75.1993 13.106C75.3396 13.0626 75.4442 13.1073 75.513 13.2404L82.2603 25.3792L82.303 25.4501C82.3384 25.5654 82.286 25.6448 82.1456 25.6883L79.3703 26.5479ZM75.6036 22.7472C75.6233 22.8113 75.6586 22.8354 75.7097 22.8196L76.9921 22.4224C77.0431 22.4066 77.0588 22.3667 77.0391 22.3026L75.004 18.1339C74.9755 18.0866 74.9485 18.0669 74.9229 18.0748C74.8974 18.0827 74.8861 18.1143 74.8891 18.1695L75.6036 22.7472Z" fill="#212121"/>
<path d="M85.4516 25.0845C85.3856 25.0945 85.3232 25.0836 85.2644 25.0518C85.2168 25.0048 85.188 24.9481 85.1781 24.8818L83.16 11.4371C83.1501 11.3708 83.1619 11.3148 83.1955 11.269C83.2404 11.208 83.2958 11.1725 83.3619 11.1625L86.1743 10.7368C86.2404 10.7268 86.2972 10.7454 86.3447 10.7924C86.4035 10.8242 86.4379 10.8732 86.4478 10.9395L88.0629 21.6992C88.0728 21.7655 88.1108 21.7937 88.1768 21.7837L92.2173 21.1721C92.2833 21.1622 92.3401 21.1807 92.3877 21.2277C92.4465 21.2595 92.4809 21.3085 92.4908 21.3748L92.8431 23.7217C92.853 23.788 92.8356 23.8516 92.7907 23.9127C92.7571 23.9584 92.7073 23.9863 92.6412 23.9963L85.4516 25.0845Z" fill="#212121"/>
<path d="M114.763 11.1181C114.832 11.02 114.939 10.982 115.084 11.004L117.837 11.4206C117.903 11.4306 117.952 11.4651 117.983 11.5242C118.03 11.5719 118.049 11.629 118.039 11.6953L116.021 25.1399C116.011 25.2062 115.975 25.2619 115.915 25.3069C115.869 25.3407 115.813 25.3526 115.747 25.3426L112.935 24.917C112.869 24.907 112.812 24.8781 112.765 24.8303C112.734 24.7713 112.723 24.7086 112.733 24.6423L114.014 16.1101C114.021 16.0571 114.012 16.0286 113.986 16.0246C113.961 16.0073 113.933 16.0166 113.901 16.0524L112.15 18.2689C112.081 18.367 112.034 18.414 112.007 18.4101C111.981 18.4061 111.943 18.346 111.893 18.23L110.87 15.5937C110.85 15.5499 110.826 15.5261 110.8 15.5221C110.774 15.5181 110.756 15.5426 110.748 15.5956L109.465 24.1477C109.455 24.214 109.419 24.2697 109.359 24.3147C109.313 24.3485 109.257 24.3604 109.191 24.3504L106.379 23.9247C106.313 23.9147 106.256 23.8858 106.21 23.8381C106.178 23.779 106.167 23.7164 106.177 23.6501L108.195 10.2054C108.205 10.1391 108.233 10.0891 108.278 10.0553C108.339 10.0103 108.403 9.99273 108.469 10.0027L111.241 10.4224C111.373 10.4424 111.465 10.5104 111.515 10.6265L112.666 13.7501C112.698 13.8092 112.737 13.8152 112.785 13.7681L114.763 11.1181Z" fill="#212121"/>
<path d="M129.702 17.516C129.683 17.5801 129.64 17.6299 129.573 17.6653C129.523 17.6919 129.466 17.6953 129.402 17.6755L125.555 16.4839C125.491 16.4642 125.449 16.4863 125.43 16.5504L124.686 18.972C124.666 19.0361 124.688 19.078 124.752 19.0978L126.857 19.7499C126.921 19.7697 126.964 19.8111 126.987 19.8742C127.026 19.9285 127.036 19.9876 127.016 20.0517L126.313 22.3388C126.294 22.4029 126.251 22.4526 126.184 22.4881C126.134 22.5147 126.077 22.5181 126.013 22.4983L123.908 21.8462C123.844 21.8264 123.802 21.8486 123.782 21.9126L123.033 24.3535C123.013 24.4176 123.035 24.4595 123.099 24.4793L126.946 25.6709C127.01 25.6907 127.053 25.7321 127.075 25.7952C127.115 25.8495 127.124 25.9086 127.105 25.9727L126.408 28.2406C126.388 28.3047 126.345 28.3544 126.278 28.3899C126.228 28.4164 126.171 28.4198 126.108 28.4001L119.217 26.2658C119.153 26.2461 119.102 26.2091 119.063 26.1548C119.04 26.0917 119.039 26.0281 119.058 25.9641L123.049 12.9716C123.069 12.9075 123.104 12.8622 123.154 12.8356C123.221 12.8002 123.286 12.7923 123.35 12.8121L130.24 14.9463C130.304 14.9661 130.347 15.0075 130.37 15.0707C130.409 15.1249 130.419 15.1841 130.399 15.2481L129.702 17.516Z" fill="#212121"/>
<path d="M140.181 19.5923C140.21 19.5319 140.251 19.4923 140.305 19.4735C140.376 19.4484 140.442 19.4504 140.502 19.4795L143.029 20.7013C143.089 20.7304 143.125 20.7778 143.138 20.8436C143.169 20.9031 143.17 20.963 143.141 21.0235L137.266 33.2735C137.237 33.3339 137.187 33.3766 137.116 33.4017C137.062 33.4205 137.005 33.4153 136.945 33.3862L134.076 31.9987C133.943 31.9347 133.888 31.8335 133.91 31.6953L135.148 24.5251C135.153 24.483 135.138 24.4533 135.102 24.4358C135.083 24.4121 135.063 24.4244 135.039 24.4727L132.069 30.7602C132.04 30.8206 131.99 30.8633 131.918 30.8884C131.865 30.9072 131.808 30.902 131.748 30.8729L129.221 29.6512C129.161 29.6221 129.116 29.5778 129.085 29.5183C129.072 29.4525 129.08 29.3894 129.109 29.329L134.984 17.0789C135.013 17.0185 135.054 16.9789 135.108 16.9601C135.179 16.9351 135.245 16.9371 135.305 16.9662L138.138 18.3363C138.27 18.4003 138.326 18.5014 138.304 18.6397L137.067 25.8549C137.061 25.8969 137.071 25.9238 137.095 25.9354C137.131 25.9529 137.16 25.9374 137.184 25.8891L140.181 19.5923Z" fill="#212121"/>
<path d="M142.445 37.1664C141.761 36.6981 141.257 36.1424 140.934 35.4993C140.619 34.8452 140.498 34.154 140.572 33.4259C140.647 32.6977 140.921 31.9846 141.394 31.2866L146.856 23.2434C146.893 23.188 146.94 23.155 146.996 23.1444C147.07 23.1303 147.134 23.1421 147.19 23.1799L149.54 24.7888C149.595 24.8266 149.624 24.8789 149.627 24.9459C149.648 25.0094 149.64 25.0688 149.603 25.1242L143.961 33.4333C143.781 33.6992 143.695 33.9568 143.703 34.2061C143.723 34.4629 143.837 34.6631 144.047 34.8066C144.257 34.9501 144.479 34.9803 144.713 34.8972C144.958 34.8217 145.171 34.651 145.351 34.3851L150.993 26.0759C151.031 26.0205 151.077 25.9875 151.133 25.977C151.207 25.9629 151.272 25.9747 151.327 26.0125L153.677 27.6213C153.732 27.6591 153.761 27.7115 153.764 27.7785C153.786 27.8419 153.778 27.9013 153.74 27.9567L148.279 36C147.805 36.698 147.244 37.2146 146.596 37.55C145.948 37.8854 145.264 38.0252 144.542 37.9693C143.828 37.9023 143.129 37.6347 142.445 37.1664Z" fill="#212121"/>
<path d="M161.139 47.9578C161.098 47.9054 161.076 47.8457 161.074 47.7787C161.091 47.7138 161.125 47.6604 161.177 47.6186L163.025 46.1389C163.077 46.097 163.132 46.0793 163.188 46.0857C163.263 46.0942 163.321 46.1247 163.363 46.1771L166.76 50.4543C166.801 50.5067 166.814 50.5654 166.797 50.6303C166.799 50.6973 166.774 50.7517 166.722 50.7935L164.874 52.2733C164.822 52.3151 164.758 52.3317 164.683 52.3232C164.627 52.3168 164.578 52.2875 164.536 52.235L161.139 47.9578Z" fill="#212121"/>
<path d="M169.045 68.5752C169.021 68.5128 169.018 68.4493 169.035 68.3847C169.071 68.3276 169.119 68.2868 169.181 68.2624L181.786 63.295C181.848 63.2705 181.905 63.2696 181.957 63.2924C182.026 63.3227 182.073 63.3691 182.097 63.4315L183.495 67.0075C183.963 68.2058 184.003 69.2992 183.615 70.2877C183.227 71.2762 182.479 71.9884 181.373 72.4244L175.668 74.6729C174.561 75.1089 173.531 75.0972 172.577 74.6378C171.623 74.1784 170.911 73.3495 170.443 72.1513L169.045 68.5752ZM172.913 70.3783C172.851 70.4028 172.832 70.4463 172.857 70.5087L173.08 71.0256C173.195 71.2828 173.392 71.4572 173.672 71.5486C173.964 71.6352 174.293 71.6137 174.658 71.4841L179.953 69.3972C180.326 69.2503 180.59 69.0453 180.746 68.7824C180.901 68.5195 180.923 68.2445 180.811 67.9574L180.613 67.4519C180.589 67.3894 180.545 67.3705 180.483 67.395L172.913 70.3783Z" fill="#212121"/>
<path d="M173.649 83.1183C173.36 81.8503 173.495 80.7536 174.051 79.8283C174.611 78.9161 175.509 78.3183 176.746 78.0348L182.643 76.6832C183.867 76.4027 184.928 76.5515 185.826 77.1295C186.741 77.7177 187.342 78.6458 187.63 79.9138C187.916 81.1688 187.773 82.2604 187.204 83.1887C186.65 84.1271 185.761 84.7365 184.538 85.017L178.64 86.3686C177.403 86.6521 176.333 86.4917 175.428 85.8875C174.527 85.2964 173.934 84.3733 173.649 83.1183ZM176.421 82.4828C176.487 82.7704 176.635 82.9703 176.866 83.0824C177.113 83.2046 177.412 83.2254 177.764 83.1449L183.934 81.7306C184.286 81.65 184.54 81.5024 184.697 81.2877C184.869 81.0831 184.923 80.8369 184.857 80.5493C184.792 80.2617 184.637 80.0634 184.393 79.9543C184.163 79.8421 183.871 79.8264 183.52 79.9069L177.349 81.3212C176.998 81.4018 176.735 81.5444 176.563 81.749C176.403 81.9506 176.356 82.1952 176.421 82.4828Z" fill="#212121"/>
<path d="M175.251 91.0432C175.24 90.8961 175.306 90.8037 175.451 90.7659L188.75 87.0221L188.828 86.996C188.948 86.987 189.013 87.0561 189.024 87.2031L189.244 90.1515C189.256 90.312 189.189 90.4044 189.044 90.4288L182.54 91.8259C182.501 91.8422 182.483 91.8638 182.484 91.8905C182.486 91.9173 182.508 91.9358 182.549 91.9462L189.188 92.3543C189.335 92.3566 189.415 92.438 189.427 92.5985L189.602 94.9451C189.614 95.1056 189.547 95.198 189.402 95.2224L182.905 96.7198C182.866 96.7361 182.848 96.7577 182.85 96.7844C182.852 96.8112 182.873 96.8231 182.913 96.82L189.545 97.1479C189.693 97.1502 189.772 97.2249 189.783 97.372L189.999 100.26C190.012 100.434 189.931 100.514 189.755 100.5L176.06 98.9291C175.913 98.9268 175.833 98.8454 175.821 98.6849L175.629 96.1176C175.617 95.9572 175.684 95.8647 175.829 95.8403L182.586 94.3234C182.625 94.3071 182.643 94.2788 182.64 94.2387C182.638 94.212 182.617 94.2001 182.577 94.2031L175.68 93.8346C175.532 93.8323 175.453 93.7576 175.442 93.6105L175.251 91.0432Z" fill="#212121"/>
<path d="M189.116 108.458C189.183 108.463 189.234 108.487 189.271 108.53C189.321 108.587 189.343 108.649 189.338 108.716L189.128 111.524C189.123 111.591 189.093 111.643 189.036 111.679C188.993 111.729 188.937 111.752 188.871 111.747L175.368 110.731C175.302 110.726 175.244 110.695 175.195 110.637C175.158 110.594 175.142 110.539 175.147 110.472L175.385 107.283C175.396 107.136 175.469 107.047 175.605 107.017L182.704 105.555C182.745 105.544 182.767 105.519 182.77 105.479C182.786 105.453 182.767 105.438 182.713 105.434L175.799 104.954C175.733 104.949 175.675 104.918 175.626 104.861C175.589 104.818 175.573 104.763 175.578 104.696L175.787 101.888C175.792 101.821 175.817 101.762 175.861 101.712C175.917 101.676 175.978 101.66 176.045 101.665L189.547 102.681C189.614 102.686 189.666 102.71 189.703 102.753C189.752 102.811 189.774 102.873 189.769 102.94L189.534 106.089C189.523 106.236 189.449 106.325 189.313 106.355L182.173 107.834C182.132 107.845 182.11 107.863 182.108 107.89C182.105 107.93 182.13 107.952 182.184 107.956L189.116 108.458Z" fill="#212121"/>
<path d="M174.475 114.091C174.49 114.025 174.523 113.971 174.574 113.928C174.635 113.9 174.698 113.894 174.763 113.909L187.964 116.934C188.029 116.949 188.076 116.981 188.107 117.029C188.147 117.093 188.159 117.158 188.145 117.224L187.512 120.008C187.497 120.073 187.459 120.12 187.398 120.147C187.347 120.19 187.289 120.204 187.224 120.19L176.659 117.768C176.594 117.753 176.554 117.779 176.539 117.844L175.63 121.844C175.615 121.91 175.577 121.956 175.516 121.983C175.465 122.026 175.407 122.041 175.342 122.026L173.038 121.498C172.973 121.483 172.92 121.443 172.88 121.379C172.85 121.331 172.842 121.274 172.857 121.209L174.475 114.091Z" fill="#212121"/>
<path d="M170.312 127.865C170.785 126.655 171.512 125.824 172.491 125.375C173.465 124.938 174.542 124.952 175.723 125.417L181.354 127.636C182.522 128.097 183.316 128.82 183.734 129.806C184.159 130.809 184.135 131.916 183.662 133.127C183.194 134.325 182.464 135.146 181.473 135.591C180.489 136.053 179.412 136.054 178.244 135.594L172.613 133.374C171.432 132.909 170.638 132.171 170.229 131.16C169.816 130.162 169.844 129.064 170.312 127.865ZM172.96 128.909C172.852 129.183 172.863 129.432 172.991 129.656C173.126 129.896 173.362 130.083 173.697 130.215L179.589 132.537C179.925 132.669 180.218 132.691 180.467 132.602C180.725 132.531 180.907 132.358 181.015 132.083C181.122 131.809 181.105 131.557 180.965 131.329C180.837 131.106 180.605 130.928 180.27 130.796L174.378 128.474C174.042 128.341 173.746 128.311 173.488 128.382C173.243 128.459 173.067 128.634 172.96 128.909Z" fill="#212121"/>
<path d="M164.48 140.033C164.56 139.893 164.667 139.855 164.801 139.917L166.44 140.565C166.498 140.599 166.547 140.581 166.587 140.511L167.669 138.63C167.709 138.56 167.7 138.509 167.642 138.475L166.253 137.391C166.132 137.306 166.112 137.193 166.192 137.054L167.615 134.581C167.701 134.43 167.81 134.415 167.94 134.537L178.214 143.861C178.328 143.958 178.348 144.07 178.275 144.198L176.642 147.037C176.569 147.165 176.462 147.204 176.321 147.153L163.153 142.863L163.074 142.84C162.97 142.78 162.954 142.686 163.028 142.558L164.48 140.033ZM169.815 140.246C169.758 140.213 169.715 140.219 169.689 140.265L169.018 141.432C168.991 141.479 169.007 141.519 169.064 141.552L173.38 143.218C173.433 143.233 173.466 143.229 173.479 143.206C173.493 143.183 173.48 143.152 173.44 143.114L169.815 140.246Z" fill="#212121"/>
<path d="M161.551 144.582C161.592 144.529 161.646 144.495 161.71 144.478C161.777 144.48 161.836 144.502 161.889 144.544L172.475 153.021C172.527 153.063 172.556 153.112 172.563 153.168C172.571 153.244 172.555 153.308 172.513 153.36L170.128 156.363C169.328 157.37 168.405 157.951 167.359 158.108C166.312 158.265 165.324 157.971 164.395 157.227L159.603 153.389C158.674 152.645 158.169 151.744 158.088 150.684C158.007 149.625 158.366 148.592 159.166 147.585L161.551 144.582ZM161.93 148.847C161.877 148.805 161.831 148.81 161.789 148.863L161.455 149.316C161.291 149.544 161.239 149.803 161.3 150.092C161.371 150.389 161.554 150.664 161.848 150.917L166.296 154.478C166.609 154.729 166.918 154.857 167.222 154.86C167.527 154.864 167.775 154.745 167.966 154.504L168.304 154.08C168.345 154.027 168.34 153.98 168.288 153.938L161.93 148.847Z" fill="#212121"/>
<path d="M148.987 175.517C149.003 175.635 148.95 175.736 148.829 175.819L146.528 177.394C146.473 177.432 146.414 177.44 146.351 177.419C146.284 177.415 146.232 177.386 146.194 177.331L138.567 166.097C138.529 166.042 138.517 165.977 138.532 165.902C138.542 165.846 138.575 165.799 138.63 165.762L140.98 164.153C141.035 164.115 141.096 164.098 141.163 164.101C141.226 164.122 141.276 164.161 141.314 164.216L146.155 171.345C146.185 171.39 146.211 171.404 146.233 171.389C146.262 171.385 146.277 171.359 146.276 171.311L146.058 168.49C146.042 168.371 146.045 168.304 146.067 168.289C146.089 168.274 146.158 168.292 146.274 168.343L148.809 169.577C148.853 169.595 148.887 169.597 148.909 169.582C148.931 169.567 148.927 169.537 148.897 169.492L144.045 162.347C144.007 162.291 143.995 162.226 144.009 162.152C144.02 162.096 144.053 162.049 144.108 162.011L146.458 160.402C146.513 160.365 146.574 160.347 146.641 160.35C146.704 160.372 146.754 160.41 146.792 160.466L154.419 171.7C154.457 171.755 154.471 171.811 154.46 171.867C154.446 171.941 154.411 171.997 154.356 172.035L152.039 173.621C151.929 173.697 151.816 173.709 151.701 173.658L148.741 172.155C148.678 172.133 148.645 172.156 148.641 172.223L148.987 175.517Z" fill="#212121"/>
<path d="M133.701 181.03C133.672 180.97 133.67 180.904 133.695 180.832C133.714 180.778 133.753 180.737 133.813 180.708L137.44 178.954C137.501 178.925 137.516 178.88 137.487 178.82L136.392 176.536C136.363 176.476 136.319 176.46 136.259 176.489L134.273 177.449C134.213 177.478 134.154 177.477 134.094 177.447C134.029 177.434 133.982 177.397 133.953 177.337L132.918 175.18C132.889 175.12 132.887 175.054 132.912 174.982C132.931 174.928 132.971 174.887 133.031 174.858L135.016 173.898C135.076 173.869 135.092 173.824 135.063 173.764L133.959 171.462C133.93 171.402 133.885 171.386 133.825 171.415L130.198 173.169C130.138 173.199 130.078 173.198 130.019 173.167C129.953 173.154 129.906 173.117 129.877 173.057L128.852 170.918C128.823 170.858 128.821 170.792 128.845 170.72C128.864 170.667 128.904 170.625 128.964 170.596L135.46 167.455C135.521 167.425 135.583 167.417 135.649 167.43C135.708 167.461 135.752 167.507 135.781 167.567L141.656 179.817C141.685 179.878 141.69 179.935 141.672 179.988C141.647 180.06 141.604 180.11 141.544 180.139L135.047 183.281C134.987 183.31 134.927 183.309 134.868 183.278C134.803 183.265 134.755 183.229 134.726 183.168L133.701 181.03Z" fill="#212121"/>
<path d="M124.614 186.665C124.633 186.729 124.63 186.787 124.603 186.837C124.568 186.904 124.519 186.947 124.455 186.967L121.775 187.797C121.711 187.817 121.652 187.807 121.598 187.768C121.536 187.745 121.494 187.702 121.475 187.638L117.484 174.645C117.464 174.581 117.472 174.516 117.507 174.449C117.533 174.398 117.579 174.363 117.642 174.343L120.686 173.401C120.826 173.357 120.935 173.394 121.013 173.51L124.962 179.612C124.987 179.646 125.018 179.657 125.056 179.645C125.086 179.65 125.093 179.627 125.077 179.576L122.996 172.938C122.976 172.874 122.984 172.808 123.019 172.741C123.046 172.691 123.091 172.656 123.155 172.636L125.834 171.806C125.898 171.786 125.961 171.788 126.024 171.81C126.078 171.85 126.115 171.901 126.135 171.966L130.126 184.958C130.146 185.022 130.142 185.079 130.116 185.13C130.08 185.197 130.031 185.24 129.967 185.26L126.962 186.191C126.822 186.234 126.713 186.198 126.635 186.081L122.655 179.947C122.63 179.913 122.605 179.9 122.58 179.907C122.541 179.919 122.53 179.951 122.546 180.002L124.614 186.665Z" fill="#212121"/>
<path d="M111.05 175.329C111.869 175.205 112.614 175.268 113.286 175.519C113.961 175.783 114.517 176.207 114.956 176.792C115.395 177.376 115.677 178.086 115.802 178.922L117.247 188.548C117.257 188.614 117.245 188.67 117.212 188.716C117.167 188.777 117.112 188.812 117.045 188.822L114.233 189.248C114.167 189.258 114.11 189.239 114.063 189.192C114.004 189.161 113.969 189.112 113.96 189.045L112.467 179.101C112.419 178.783 112.308 178.535 112.133 178.358C111.944 178.183 111.725 178.115 111.474 178.153C111.223 178.191 111.04 178.32 110.924 178.541C110.796 178.764 110.755 179.035 110.803 179.353L112.296 189.297C112.306 189.363 112.294 189.419 112.26 189.465C112.215 189.526 112.16 189.562 112.094 189.572L109.281 189.997C109.215 190.007 109.159 189.989 109.111 189.942C109.052 189.91 109.018 189.861 109.008 189.795L107.563 180.169C107.438 179.333 107.499 178.571 107.747 177.883C107.994 177.195 108.402 176.625 108.969 176.173C109.537 175.734 110.231 175.453 111.05 175.329Z" fill="#212121"/>
<defs>
<linearGradient id="paint0_linear_234_4255" x1="161" y1="94" x2="45" y2="94" gradientUnits="userSpaceOnUse">
<stop stop-color="#C33130"/>
<stop offset="1" stop-color="#FF8A00"/>
</linearGradient>
<clipPath id="clip0_234_4255">
<rect width="44" height="42" fill="white" transform="translate(77 81)"/>
</clipPath>
</defs>
</svg>
